SplineFontDB: 3.0
FontName: Kaumudi
FullName: Kaumudi
FamilyName: Kaumudi
Weight: Book
Copyright: Copyright(C) 2012 Rahul.V, All rights reserved.Mob:+91-99464 29992, 88910 29992. Email: rahul@kaumudi.com, rahulv@kimo.com; \nNCL_Kaumudi font Licensed under the GNU GENERAL PUBLIC LICENSE Version 3. As a special exception, if you create a document which uses this font, and embed this font or unaltered portions of this font into the document, this font does not by itself cause the resulting document to be covered by the GNU General Public License. This exception does not however invalidate any other reasons why the document might be covered by the GNU General Public License. \nSpecial Thanks To: Jijo George & Amjith Sher.
Version: 1.022 June 27, 2013,  Designed & Developed By Rahul Vijay, Kerala Kaumudi. +91-9946429992, rahulv@kimo.com
ItalicAngle: 0
UnderlinePosition: -204
UnderlineWidth: 70
Ascent: 1638
Descent: 410
sfntRevision: 0x000105a2
LayerCount: 2
Layer: 0 1 "Back"  1
Layer: 1 1 "Fore"  0
XUID: [1021 367 8562 15649]
FSType: 8
OS2Version: 3
OS2_WeightWidthSlopeOnly: 0
OS2_UseTypoMetrics: 1
CreationTime: 1357092539
ModificationTime: 1372234744
PfmFamily: 81
TTFWeight: 400
TTFWidth: 5
LineGap: 205
VLineGap: 0
Panose: 0 0 0 0 0 0 0 0 0 0
OS2TypoAscent: 1546
OS2TypoAOffset: 0
OS2TypoDescent: -800
OS2TypoDOffset: 0
OS2TypoLinegap: 205
OS2WinAscent: 1995
OS2WinAOffset: 0
OS2WinDescent: 950
OS2WinDOffset: 0
HheadAscent: 1547
HheadAOffset: 0
HheadDescent: -800
HheadDOffset: 0
OS2SubXSize: 1550
OS2SubYSize: 1550
OS2SubXOff: 0
OS2SubYOff: 286
OS2SupXSize: 1531
OS2SupYSize: 1533
OS2SupXOff: 0
OS2SupYOff: 983
OS2StrikeYSize: 102
OS2StrikeYPos: 530
OS2Vendor: 'rahu'
OS2CodePages: 00000001.00000000
OS2UnicodeRanges: 80808003.1000e042.00000200.00000000
Lookup: 1 0 0 "'rtla' Right to Left Alternates lookup 0"  {"'rtla' Right to Left Alternates lookup 0 subtable"  } ['rtla' ('DFLT' <'dflt' > ) ]

StartChar: .notdef
Encoding: 65536 -1 0
Width: 1294
Flags: W
LayerCount: 2
Fore
SplineSet
897 572 m 1,0,1
 863 542 863 542 830 516 c 0,2,3
 748 450 748 450 748 379 c 2,4,-1
 748 298 l 1,5,-1
 639 298 l 1,6,-1
 639 386 l 2,7,8
 639 473 639 473 717 543 c 1,9,-1
 717 542 l 1,10,11
 735 556 735 556 752.5 570.5 c 128,-1,12
 770 585 770 585 787 601 c 1,13,-1
 787 600 l 1,14,15
 867 666 867 666 867 740 c 0,16,17
 867 813 867 813 822 851 c 0,18,19
 776 890 776 890 691 890 c 0,20,21
 605 890 605 890 568 841 c 128,-1,22
 531 792 531 792 531 699 c 1,23,-1
 429 699 l 1,24,25
 430 838 430 838 499.5 910 c 128,-1,26
 569 982 569 982 700 982 c 0,27,28
 829 982 829 982 903 918 c 0,29,30
 978 854 978 854 978 751 c 0,31,32
 978 647 978 647 897 572 c 1,0,1
748 228 m 1,33,-1
 748 103 l 1,34,-1
 639 103 l 1,35,-1
 639 228 l 1,36,-1
 748 228 l 1,33,-1
1198 1303 m 1,37,-1
 1198 -195 l 1,38,-1
 223 -195 l 1,39,-1
 223 1303 l 1,40,-1
 1198 1303 l 1,37,-1
335 1184 m 1,41,-1
 335 -84 l 1,42,-1
 1091 -84 l 1,43,-1
 1091 1184 l 1,44,-1
 335 1184 l 1,41,-1
EndSplineSet
Ligature2: "<1,0> Required Ligatures in Malay+AQEA-lam2 lookup 1 subtable" ml_reph ml_ka
EndChar

StartChar: exclam
Encoding: 33 33 6
Width: 569
Flags: W
LayerCount: 2
Fore
SplineSet
234 358 m 1,0,1
 220 548 220 548 206.5 739 c 128,-1,2
 193 930 193 930 179 1120 c 1,3,-1
 179 1439 l 1,4,-1
 397 1439 l 1,5,-1
 397 1120 l 1,6,7
 384 928 384 928 371 739 c 128,-1,8
 358 550 358 550 345 358 c 1,9,-1
 234 358 l 1,0,1
187 0 m 1,10,-1
 187 198 l 1,11,-1
 389 198 l 1,12,-1
 389 0 l 1,13,-1
 187 0 l 1,10,-1
EndSplineSet
EndChar

StartChar: quotedbl
Encoding: 34 34 7
Width: 588
Flags: W
LayerCount: 2
Fore
SplineSet
466 875 m 1,0,-1
 452 893 l 2,1,2
 451 894 451 894 450 894.5 c 128,-1,3
 449 895 449 895 448 896 c 0,4,5
 313 1037 313 1037 315 1258 c 1,6,-1
 315 1297 l 1,7,8
 321 1295 321 1295 327 1293.5 c 128,-1,9
 333 1292 333 1292 339 1290 c 0,10,11
 350 1287 350 1287 361.5 1286 c 128,-1,12
 373 1285 373 1285 385 1285 c 256,13,14
 397 1285 397 1285 408 1286 c 128,-1,15
 419 1287 419 1287 430 1290 c 0,16,17
 436 1292 436 1292 443.5 1293.5 c 128,-1,18
 451 1295 451 1295 458 1297 c 1,19,-1
 454 1265 l 2,20,21
 453 1255 453 1255 453 1241.5 c 128,-1,22
 453 1228 453 1228 453 1214 c 0,23,24
 453 1060 453 1060 517 960 c 0,25,26
 519 956 519 956 523.5 951 c 128,-1,27
 528 946 528 946 531 942 c 1,28,-1
 510 931 l 1,29,30
 491 916 491 916 481 901 c 1,31,-1
 466 875 l 1,0,-1
220 893 m 1,32,33
 83 1029 83 1029 84 1258 c 1,34,-1
 84 1297 l 1,35,36
 90 1295 90 1295 96.5 1293.5 c 128,-1,37
 103 1292 103 1292 109 1290 c 0,38,39
 119 1287 119 1287 130.5 1286 c 128,-1,40
 142 1285 142 1285 154 1285 c 256,41,42
 166 1285 166 1285 176.5 1286 c 128,-1,43
 187 1287 187 1287 197 1290 c 0,44,45
 204 1292 204 1292 212 1293.5 c 128,-1,46
 220 1295 220 1295 228 1297 c 1,47,-1
 223 1265 l 1,48,-1
 223 1214 l 2,49,50
 223 1061 223 1061 288 960 c 1,51,-1
 301 942 l 1,52,-1
 279 930 l 1,53,54
 271 923 271 923 263.5 916 c 128,-1,55
 256 909 256 909 251 901 c 0,56,57
 247 895 247 895 242.5 888 c 128,-1,58
 238 881 238 881 234 875 c 1,59,-1
 220 893 l 1,32,33
EndSplineSet
EndChar

StartChar: numbersign
Encoding: 35 35 8
Width: 1139
Flags: W
LayerCount: 2
Fore
SplineSet
105 -25 m 1,0,-1
 193 395 l 1,1,-1
 23 395 l 1,2,-1
 23 537 l 1,3,-1
 223 537 l 1,4,-1
 297 898 l 1,5,-1
 23 898 l 1,6,-1
 23 1041 l 1,7,-1
 327 1041 l 1,8,-1
 414 1463 l 1,9,-1
 559 1463 l 1,10,-1
 472 1041 l 1,11,-1
 794 1041 l 1,12,-1
 881 1463 l 1,13,-1
 1027 1463 l 1,14,-1
 939 1041 l 1,15,-1
 1113 1041 l 1,16,-1
 1113 898 l 1,17,-1
 909 898 l 1,18,-1
 834 537 l 1,19,-1
 1113 537 l 1,20,-1
 1113 395 l 1,21,-1
 804 395 l 1,22,-1
 717 -25 l 1,23,-1
 572 -25 l 1,24,-1
 658 395 l 1,25,-1
 337 395 l 1,26,-1
 250 -25 l 1,27,-1
 105 -25 l 1,0,-1
367 537 m 1,28,-1
 689 537 l 1,29,-1
 764 898 l 1,30,-1
 442 898 l 1,31,-1
 367 537 l 1,28,-1
EndSplineSet
EndChar

StartChar: dollar
Encoding: 36 36 9
Width: 1078
Flags: W
LayerCount: 2
Fore
SplineSet
499 -202 m 1,0,-1
 499 -31 l 1,1,2
 427 -24 427 -24 373.5 -9 c 128,-1,3
 320 6 320 6 280 25 c 1,4,5
 201 65 201 65 143 157 c 0,6,7
 113 203 113 203 96 257.5 c 128,-1,8
 79 312 79 312 75 371 c 1,9,10
 112 378 112 378 154.5 386 c 128,-1,11
 197 394 197 394 234 401 c 1,12,13
 253 270 253 270 306 203 c 1,14,15
 344 157 344 157 390.5 130 c 128,-1,16
 437 103 437 103 499 97 c 1,17,-1
 499 658 l 1,18,19
 383 678 383 678 273 739 c 0,20,21
 192 784 192 784 148.5 862.5 c 128,-1,22
 105 941 105 941 105 1042 c 0,23,24
 105 1221 105 1221 234 1331 c 0,25,26
 321 1406 321 1406 499 1424 c 1,27,-1
 499 1504 l 1,28,-1
 583 1504 l 1,29,-1
 583 1424 l 1,30,31
 740 1409 740 1409 828 1337 c 1,32,33
 940 1247 940 1247 962 1094 c 1,34,35
 924 1089 924 1089 881 1082 c 128,-1,36
 838 1075 838 1075 799 1069 c 1,37,38
 784 1166 784 1166 732.5 1221 c 128,-1,39
 681 1276 681 1276 583 1297 c 1,40,-1
 583 787 l 1,41,42
 654 770 654 770 698 758 c 128,-1,43
 742 746 742 746 764 735 c 1,44,45
 881 685 881 685 939.5 597.5 c 128,-1,46
 998 510 998 510 998 388 c 0,47,48
 998 212 998 212 884 95 c 0,49,50
 772 -21 772 -21 583 -28 c 1,51,-1
 583 -202 l 1,52,-1
 499 -202 l 1,0,-1
499 1297 m 1,53,54
 383 1279 383 1279 322 1213 c 0,55,56
 291 1179 291 1179 276.5 1139.5 c 128,-1,57
 262 1100 262 1100 262 1056 c 0,58,59
 262 1010 262 1010 274 972.5 c 128,-1,60
 286 935 286 935 314 903.5 c 128,-1,61
 342 872 342 872 385.5 848 c 128,-1,62
 429 824 429 824 499 804 c 1,63,-1
 499 1297 l 1,53,54
583 97 m 1,64,65
 699 112 699 112 767 188 c 0,66,67
 800 225 800 225 818 273 c 128,-1,68
 836 321 836 321 836 376 c 0,69,70
 836 470 836 470 786 529 c 1,71,72
 738 589 738 589 583 638 c 1,73,-1
 583 97 l 1,64,65
EndSplineSet
EndChar

StartChar: percent
Encoding: 37 37 10
Width: 1821
Flags: W
LayerCount: 2
Fore
SplineSet
121 1094 m 0,0,1
 121 1250 121 1250 199 1355 c 0,2,3
 278 1463 278 1463 427 1463 c 0,4,5
 564 1463 564 1463 654 1366 c 1,6,7
 744 1272 744 1272 744 1083 c 0,8,9
 744 900 744 900 653 802 c 0,10,11
 563 705 563 705 429 705 c 0,12,13
 297 705 297 705 208 801 c 0,14,15
 121 896 121 896 121 1094 c 0,0,1
272 1076 m 0,16,17
 272 939 272 939 318 879 c 1,18,19
 366 822 366 822 432 822 c 0,20,21
 501 822 501 822 546 880 c 1,22,23
 568 911 568 911 580.5 963.5 c 128,-1,24
 593 1016 593 1016 593 1090 c 0,25,26
 593 1159 593 1159 580.5 1208.5 c 128,-1,27
 568 1258 568 1258 546 1287 c 0,28,29
 501 1345 501 1345 432 1345 c 256,30,31
 363 1345 363 1345 317 1287 c 1,32,33
 272 1228 272 1228 272 1076 c 0,16,17
438 -53 m 1,34,35
 637 322 637 322 839 705 c 128,-1,36
 1041 1088 1041 1088 1240 1463 c 1,37,-1
 1379 1463 l 1,38,39
 1181 1088 1181 1088 979.5 704.5 c 128,-1,40
 778 321 778 321 580 -53 c 1,41,-1
 438 -53 l 1,34,35
1072 336 m 0,42,43
 1072 493 1072 493 1151 598 c 1,44,45
 1229 706 1229 706 1379 706 c 0,46,47
 1517 706 1517 706 1606 609 c 1,48,49
 1697 516 1697 516 1697 325 c 0,50,51
 1697 142 1697 142 1605 44 c 0,52,53
 1515 -53 1515 -53 1380 -53 c 0,54,55
 1314 -53 1314 -53 1259.5 -28.5 c 128,-1,56
 1205 -4 1205 -4 1160 43 c 1,57,58
 1118 92 1118 92 1095 166.5 c 128,-1,59
 1072 241 1072 241 1072 336 c 0,42,43
1385 587 m 0,60,61
 1313 587 1313 587 1269 529 c 0,62,63
 1224 470 1224 470 1224 319 c 0,64,65
 1224 182 1224 182 1270 123 c 0,66,67
 1314 65 1314 65 1384 65 c 256,68,69
 1454 65 1454 65 1499 123 c 1,70,71
 1521 154 1521 154 1533 206.5 c 128,-1,72
 1545 259 1545 259 1545 332 c 0,73,74
 1545 402 1545 402 1533 451.5 c 128,-1,75
 1521 501 1521 501 1499 529 c 0,76,77
 1454 587 1454 587 1385 587 c 0,60,61
EndSplineSet
EndChar

StartChar: ampersand
Encoding: 38 38 11
Width: 1366
Flags: W
LayerCount: 2
Fore
SplineSet
964 175 m 1,0,1
 785 -19 785 -19 547 -19 c 0,2,3
 438 -19 438 -19 349 19.5 c 128,-1,4
 260 58 260 58 195 127 c 1,5,6
 144 186 144 186 117 254.5 c 128,-1,7
 90 323 90 323 90 396 c 0,8,9
 90 658 90 658 445 823 c 1,10,11
 341 940 341 940 307 1012 c 0,12,13
 275 1079 275 1079 275 1143 c 0,14,15
 275 1270 275 1270 375 1363 c 0,16,17
 477 1457 477 1457 631 1457 c 0,18,19
 779 1457 779 1457 871 1369 c 0,20,21
 964 1280 964 1280 964 1157 c 0,22,23
 964 956 964 956 683 809 c 1,24,-1
 961 461 l 1,25,26
 989 515 989 515 1007.5 565 c 128,-1,27
 1026 615 1026 615 1038 667 c 1,28,29
 1079 659 1079 659 1122.5 649 c 128,-1,30
 1166 639 1166 639 1207 630 c 1,31,32
 1160 452 1160 452 1077 327 c 1,33,34
 1186 189 1186 189 1304 103 c 1,35,36
 1278 74 1278 74 1248.5 40 c 128,-1,37
 1219 6 1219 6 1194 -25 c 1,38,39
 1143 8 1143 8 1088 57.5 c 128,-1,40
 1033 107 1033 107 974 175 c 1,41,-1
 964 175 l 1,0,1
601 910 m 1,42,43
 725 983 725 983 762 1035 c 1,44,45
 798 1088 798 1088 798 1152 c 0,46,47
 798 1230 798 1230 746 1277 c 1,48,49
 698 1327 698 1327 622 1327 c 0,50,51
 547 1327 547 1327 494 1278 c 0,52,53
 442 1231 442 1231 442 1159 c 0,54,55
 442 1127 442 1127 460.5 1088 c 128,-1,56
 479 1049 479 1049 515 1007 c 2,57,-1
 601 910 l 1,42,43
526 721 m 1,58,59
 450 676 450 676 399 634.5 c 128,-1,60
 348 593 348 593 320 555 c 0,61,62
 267 480 267 480 267 407 c 0,63,64
 267 317 267 317 340 220 c 0,65,66
 413 122 413 122 549 122 c 0,67,68
 592 122 592 122 634.5 134.5 c 128,-1,69
 677 147 677 147 721 172 c 0,70,71
 767 198 767 198 802.5 231 c 128,-1,72
 838 264 838 264 866 307 c 1,73,-1
 526 721 l 1,58,59
EndSplineSet
EndChar

StartChar: quotesingle
Encoding: 39 39 12
Width: 368
Flags: W
LayerCount: 2
Fore
SplineSet
288 1258 m 2,0,1
 288 1143 288 1143 253 1052.5 c 128,-1,2
 218 962 218 962 148 893 c 0,3,4
 144 888 144 888 140.5 883.5 c 128,-1,5
 137 879 137 879 133 874 c 1,6,-1
 118 901 l 2,7,8
 108 919 108 919 90 931 c 1,9,10
 85 933 85 933 79 936.5 c 128,-1,11
 73 940 73 940 68 942 c 1,12,-1
 79 960 l 1,13,14
 147 1060 147 1060 147 1214 c 0,15,16
 147 1228 147 1228 146.5 1241.5 c 128,-1,17
 146 1255 146 1255 145 1265 c 0,18,19
 144 1273 144 1273 142.5 1281.5 c 128,-1,20
 141 1290 141 1290 140 1298 c 1,21,22
 148 1296 148 1296 154.5 1294 c 128,-1,23
 161 1292 161 1292 169 1290 c 0,24,25
 179 1287 179 1287 190 1286 c 128,-1,26
 201 1285 201 1285 213 1285 c 0,27,28
 226 1285 226 1285 237.5 1286 c 128,-1,29
 249 1287 249 1287 260 1290 c 1,30,-1
 267 1290 l 1,31,32
 271 1291 271 1291 277 1293 c 128,-1,33
 283 1295 283 1295 288 1297 c 1,34,-1
 288 1258 l 2,0,1
EndSplineSet
EndChar

StartChar: parenleft
Encoding: 40 40 13
Width: 682
Flags: W
LayerCount: 2
Fore
SplineSet
481 -424 m 1,0,1
 409 -334 409 -334 345 -225 c 128,-1,2
 281 -116 281 -116 230 8 c 0,3,4
 127 255 127 255 127 520 c 0,5,6
 127 636 127 636 146.5 749 c 128,-1,7
 166 862 166 862 204 968 c 0,8,9
 226 1027 226 1027 255.5 1090.5 c 128,-1,10
 285 1154 285 1154 321 1217.5 c 128,-1,11
 357 1281 357 1281 397.5 1343 c 128,-1,12
 438 1405 438 1405 481 1463 c 1,13,-1
 605 1463 l 1,14,15
 544 1361 544 1361 505 1289 c 128,-1,16
 466 1217 466 1217 446 1174 c 1,17,18
 417 1108 417 1108 392 1034.5 c 128,-1,19
 367 961 367 961 350 889 c 0,20,21
 329 798 329 798 317.5 705 c 128,-1,22
 306 612 306 612 306 519 c 0,23,24
 306 281 306 281 380.5 47.5 c 128,-1,25
 455 -186 455 -186 605 -424 c 1,26,-1
 481 -424 l 1,0,1
EndSplineSet
Substitution2: "'rtla' Right to Left Alternates lookup 0 subtable" parenright
EndChar

StartChar: parenright
Encoding: 41 41 14
Width: 682
Flags: W
LayerCount: 2
Fore
SplineSet
129 -424 m 1,0,1
 427 49 427 49 427 519 c 0,2,3
 427 610 427 610 416 703.5 c 128,-1,4
 405 797 405 797 384 886 c 0,5,6
 367 958 367 958 342 1032 c 128,-1,7
 317 1106 317 1106 288 1170 c 0,8,9
 268 1215 268 1215 228.5 1288 c 128,-1,10
 189 1361 189 1361 129 1463 c 1,11,-1
 252 1463 l 1,12,13
 345 1342 345 1342 414.5 1218 c 128,-1,14
 484 1094 484 1094 529 968 c 0,15,16
 567 861 567 861 587 749.5 c 128,-1,17
 607 638 607 638 607 520 c 0,18,19
 607 387 607 387 580.5 260 c 128,-1,20
 554 133 554 133 502 8 c 0,21,22
 451 -115 451 -115 387.5 -224 c 128,-1,23
 324 -333 324 -333 252 -424 c 1,24,-1
 129 -424 l 1,0,1
EndSplineSet
Substitution2: "'rtla' Right to Left Alternates lookup 0 subtable" parenleft
EndChar

StartChar: asterisk
Encoding: 42 42 15
Width: 797
Flags: W
LayerCount: 2
Fore
SplineSet
112 1312 m 1,0,1
 189 1287 189 1287 247.5 1262 c 128,-1,2
 306 1237 306 1237 345 1215 c 1,3,4
 325 1391 325 1391 324 1463 c 1,5,-1
 464 1463 l 1,6,7
 461 1368 461 1368 440 1217 c 1,8,9
 542 1268 542 1268 678 1312 c 1,10,-1
 723 1177 l 1,11,12
 660 1157 660 1157 596 1142.5 c 128,-1,13
 532 1128 532 1128 471 1121 c 1,14,15
 506 1092 506 1092 549.5 1046.5 c 128,-1,16
 593 1001 593 1001 647 936 c 1,17,18
 617 914 617 914 587.5 894 c 128,-1,19
 558 874 558 874 529 854 c 1,20,21
 502 890 502 890 468 944 c 128,-1,22
 434 998 434 998 392 1068 c 1,23,24
 354 997 354 997 321 942.5 c 128,-1,25
 288 888 288 888 261 854 c 1,26,27
 232 874 232 874 204 894 c 128,-1,28
 176 914 176 914 147 936 c 1,29,30
 204 1006 204 1006 245.5 1052 c 128,-1,31
 287 1098 287 1098 313 1121 c 1,32,33
 249 1134 249 1134 187.5 1147 c 128,-1,34
 126 1160 126 1160 68 1177 c 1,35,-1
 112 1312 l 1,0,1
EndSplineSet
EndChar

StartChar: plus
Encoding: 43 43 16
Width: 1196
Flags: W
LayerCount: 2
Fore
SplineSet
517 233 m 1,0,-1
 517 628 l 1,1,-1
 116 628 l 1,2,-1
 116 790 l 1,3,-1
 517 790 l 1,4,-1
 517 1183 l 1,5,-1
 681 1183 l 1,6,-1
 681 790 l 1,7,-1
 1082 790 l 1,8,-1
 1082 628 l 1,9,-1
 681 628 l 1,10,-1
 681 233 l 1,11,-1
 517 233 l 1,0,-1
EndSplineSet
EndChar

StartChar: comma
Encoding: 44 44 17
Width: 569
Flags: W
LayerCount: 2
Fore
SplineSet
380 -31 m 0,1,2
 325 -147 325 -147 207 -245 c 1,3,4
 173 -202 173 -202 121 -176 c 1,5,6
 239 -33 239 -33 239 161 c 0,7,8
 239 176 239 176 237 198 c 0,9,10
 236 211 236 211 234 226 c 1,11,-1
 435 224 l 1,12,0
 434 82 434 82 380 -31 c 0,1,2
EndSplineSet
EndChar

StartChar: hyphen
Encoding: 45 45 18
Width: 682
Flags: W
LayerCount: 2
Fore
SplineSet
68 433 m 1,0,-1
 68 607 l 1,1,-1
 617 607 l 1,2,-1
 617 433 l 1,3,-1
 68 433 l 1,0,-1
EndSplineSet
EndChar

StartChar: period
Encoding: 46 46 19
Width: 569
Flags: W
LayerCount: 2
Fore
SplineSet
189 0 m 1,0,-1
 189 198 l 1,1,-1
 389 198 l 1,2,-1
 389 0 l 1,3,-1
 189 0 l 1,0,-1
EndSplineSet
EndChar

StartChar: slash
Encoding: 47 47 20
Width: 705
Flags: W
LayerCount: 2
Fore
SplineSet
143 -25 m 1,0,-1
 569 1463 l 1,1,-1
 737 1463 l 1,2,-1
 312 -25 l 1,3,-1
 143 -25 l 1,0,-1
EndSplineSet
EndChar

StartChar: zero
Encoding: 48 48 21
Width: 1139
Flags: W
LayerCount: 2
Fore
SplineSet
87 710 m 0,0,1
 87 835 87 835 100.5 938.5 c 128,-1,2
 114 1042 114 1042 140 1119 c 1,3,4
 168 1193 168 1193 208.5 1255.5 c 128,-1,5
 249 1318 249 1318 299 1359 c 0,6,7
 407 1445 407 1445 564 1445 c 0,8,9
 682 1445 682 1445 770.5 1398.5 c 128,-1,10
 859 1352 859 1352 916 1263 c 1,11,12
 946 1219 946 1219 968.5 1165.5 c 128,-1,13
 991 1112 991 1112 1008 1049 c 0,14,15
 1041 923 1041 923 1041 710 c 0,16,17
 1041 584 1041 584 1027.5 481 c 128,-1,18
 1014 378 1014 378 988 300 c 0,19,20
 962 225 962 225 921 163 c 128,-1,21
 880 101 880 101 829 60 c 0,22,23
 723 -25 723 -25 564 -25 c 0,24,25
 461 -25 461 -25 376.5 14 c 128,-1,26
 292 53 292 53 232 123 c 1,27,28
 160 214 160 214 123.5 361 c 128,-1,29
 87 508 87 508 87 710 c 0,0,1
861 710 m 0,30,31
 861 882 861 882 838.5 1002 c 128,-1,32
 816 1122 816 1122 775 1184 c 1,33,34
 732 1242 732 1242 678.5 1272 c 128,-1,35
 625 1302 625 1302 562 1302 c 0,36,37
 434 1302 434 1302 361 1198 c 0,38,39
 267 1064 267 1064 267 710 c 0,40,41
 267 354 267 354 352 235 c 1,42,43
 440 117 440 117 564 117 c 0,44,45
 689 117 689 117 775 236 c 0,46,47
 819 296 819 296 840 414 c 128,-1,48
 861 532 861 532 861 710 c 0,30,31
EndSplineSet
EndChar

StartChar: one
Encoding: 49 49 22
Width: 1044
Flags: W
LayerCount: 2
Fore
SplineSet
762 0 m 1,0,-1
 587 0 l 1,1,-1
 587 1128 l 1,2,3
 519 1064 519 1064 411 1004 c 0,4,5
 357 973 357 973 312 950.5 c 128,-1,6
 267 928 267 928 226 913 c 1,7,-1
 226 1079 l 1,8,9
 301 1113 301 1113 367 1156 c 128,-1,10
 433 1199 433 1199 490 1249 c 0,11,12
 547 1298 547 1298 588 1346 c 128,-1,13
 629 1394 629 1394 652 1440 c 1,14,-1
 762 1440 l 1,15,-1
 762 0 l 1,0,-1
EndSplineSet
EndChar

StartChar: two
Encoding: 50 50 23
Width: 1139
Flags: W
LayerCount: 2
Fore
SplineSet
1054 167 m 1,0,-1
 1054 0 l 1,1,-1
 87 0 l 1,2,3
 86 25 86 25 93 59.5 c 128,-1,4
 100 94 100 94 108 120 c 1,5,6
 128 167 128 167 158.5 217.5 c 128,-1,7
 189 268 189 268 226 312 c 1,8,9
 266 357 266 357 325 412 c 128,-1,10
 384 467 384 467 463 529 c 1,11,12
 582 626 582 626 663 701.5 c 128,-1,13
 744 777 744 777 787 835 c 0,14,15
 872 951 872 951 872 1050 c 0,16,17
 872 1155 872 1155 794 1228 c 0,18,19
 716 1302 716 1302 592 1302 c 0,20,21
 461 1302 461 1302 381 1224 c 0,22,23
 303 1148 303 1148 301 1012 c 1,24,25
 256 1017 256 1017 211.5 1021.5 c 128,-1,26
 167 1026 167 1026 121 1031 c 1,27,28
 130 1132 130 1132 166.5 1209.5 c 128,-1,29
 203 1287 203 1287 263.5 1339 c 128,-1,30
 324 1391 324 1391 408 1418 c 128,-1,31
 492 1445 492 1445 596 1445 c 0,32,33
 806 1445 806 1445 929 1330 c 0,34,35
 1052 1216 1052 1216 1052 1046 c 0,36,37
 1052 960 1052 960 1016 876 c 128,-1,38
 980 792 980 792 896 701 c 1,39,40
 858 657 858 657 786.5 592.5 c 128,-1,41
 715 528 715 528 618 448 c 1,42,43
 546 387 546 387 490.5 339.5 c 128,-1,44
 435 292 435 292 409 265 c 0,45,46
 386 241 386 241 365 215 c 128,-1,47
 344 189 344 189 330 167 c 1,48,-1
 1054 167 l 1,0,-1
EndSplineSet
EndChar

StartChar: three
Encoding: 51 51 24
Width: 1139
Flags: W
LayerCount: 2
Fore
SplineSet
264 400 m 1,0,1
 279 324 279 324 306 271 c 128,-1,2
 333 218 333 218 369.5 183.5 c 128,-1,3
 406 149 406 149 452.5 133 c 128,-1,4
 499 117 499 117 554 117 c 0,5,6
 684 117 684 117 771 205 c 1,7,8
 860 292 860 292 860 420 c 0,9,10
 860 543 860 543 778 621 c 1,11,12
 696 703 696 703 569 703 c 0,13,14
 543 703 543 703 512.5 698 c 128,-1,15
 482 693 482 693 445 684 c 1,16,17
 450 722 450 722 455 759 c 128,-1,18
 460 796 460 796 465 834 c 0,19,20
 466 834 466 834 467 833.5 c 128,-1,21
 468 833 468 833 469 833 c 0,22,23
 474 832 474 832 480.5 832 c 128,-1,24
 487 832 487 832 491 832 c 0,25,26
 608 832 608 832 701 891 c 1,27,28
 794 953 794 953 794 1075 c 0,29,30
 794 1174 794 1174 726 1238 c 0,31,32
 691 1270 691 1270 647.5 1286.5 c 128,-1,33
 604 1303 604 1303 550 1303 c 0,34,35
 443 1303 443 1303 372 1238 c 128,-1,36
 301 1173 301 1173 281 1043 c 1,37,38
 236 1051 236 1051 193.5 1058 c 128,-1,39
 151 1065 151 1065 106 1073 c 1,40,41
 123 1158 123 1158 161.5 1228.5 c 128,-1,42
 200 1299 200 1299 256 1346 c 0,43,44
 374 1445 374 1445 546 1445 c 0,45,46
 666 1445 666 1445 767 1393 c 1,47,48
 866 1344 866 1344 919 1256 c 1,49,50
 974 1170 974 1170 974 1071 c 0,51,52
 974 977 974 977 922 900.5 c 128,-1,53
 870 824 870 824 767 778 c 1,54,55
 833 763 833 763 885 732 c 128,-1,56
 937 701 937 701 972.5 656 c 128,-1,57
 1008 611 1008 611 1027 552 c 128,-1,58
 1046 493 1046 493 1046 424 c 0,59,60
 1046 235 1046 235 906 104 c 0,61,62
 768 -25 768 -25 553 -25 c 0,63,64
 359 -25 359 -25 233 86 c 0,65,66
 172 141 172 141 135.5 216 c 128,-1,67
 99 291 99 291 88 377 c 1,68,-1
 264 400 l 1,0,1
EndSplineSet
EndChar

StartChar: four
Encoding: 52 52 25
Width: 1150
Flags: W
LayerCount: 2
Fore
SplineSet
737 0 m 1,0,-1
 737 345 l 1,1,-1
 98 345 l 1,2,-1
 98 506 l 1,3,-1
 97 505 l 1,4,5
 264 736 264 736 432.5 971.5 c 128,-1,6
 601 1207 601 1207 768 1439 c 1,7,-1
 911 1439 l 1,8,-1
 911 504 l 1,9,-1
 1110 504 l 1,10,-1
 1110 345 l 1,11,-1
 911 345 l 1,12,-1
 911 0 l 1,13,-1
 737 0 l 1,0,-1
737 504 m 1,14,-1
 737 1163 l 1,15,-1
 269 504 l 1,16,-1
 737 504 l 1,14,-1
EndSplineSet
EndChar

StartChar: five
Encoding: 53 53 26
Width: 1139
Flags: W
LayerCount: 2
Fore
SplineSet
271 391 m 1,0,1
 281 323 281 323 306.5 272 c 128,-1,2
 332 221 332 221 369.5 186.5 c 128,-1,3
 407 152 407 152 454.5 135 c 128,-1,4
 502 118 502 118 557 118 c 0,5,6
 689 118 689 118 780 216 c 1,7,8
 871 312 871 312 871 473 c 0,9,10
 871 547 871 547 847.5 608 c 128,-1,11
 824 669 824 669 783 714 c 1,12,13
 741 755 741 755 681.5 779 c 128,-1,14
 622 803 622 803 554 803 c 0,15,16
 511 803 511 803 471.5 792 c 128,-1,17
 432 781 432 781 397 762.5 c 128,-1,18
 362 744 362 744 333.5 718.5 c 128,-1,19
 305 693 305 693 284 663 c 1,20,21
 242 667 242 667 201.5 673 c 128,-1,22
 161 679 161 679 119 684 c 1,23,24
 155 871 155 871 191 1054 c 128,-1,25
 227 1237 227 1237 262 1423 c 1,26,-1
 988 1423 l 1,27,-1
 988 1257 l 1,28,-1
 400 1257 l 1,29,-1
 320 861 l 1,30,31
 456 956 456 956 602 956 c 0,32,33
 793 956 793 956 925 824 c 1,34,35
 1057 695 1057 695 1057 489 c 0,36,37
 1057 293 1057 293 941 151 c 1,38,39
 800 -25 800 -25 557 -25 c 0,40,41
 460 -25 460 -25 377 3.5 c 128,-1,42
 294 32 294 32 231 84 c 1,43,44
 171 140 171 140 133.5 213.5 c 128,-1,45
 96 287 96 287 87 374 c 1,46,-1
 271 391 l 1,0,1
EndSplineSet
EndChar

StartChar: six
Encoding: 54 54 27
Width: 1139
Flags: W
LayerCount: 2
Fore
SplineSet
855 1075 m 1,0,1
 831 1177 831 1177 786 1226 c 1,2,3
 711 1303 711 1303 603 1303 c 0,4,5
 560 1303 560 1303 521 1290.5 c 128,-1,6
 482 1278 482 1278 450 1256 c 1,7,8
 408 1225 408 1225 373 1178.5 c 128,-1,9
 338 1132 338 1132 314 1076 c 1,10,11
 291 1017 291 1017 277.5 930.5 c 128,-1,12
 264 844 264 844 263 732 c 1,13,14
 332 833 332 833 426 882.5 c 128,-1,15
 520 932 520 932 623 932 c 0,16,17
 803 932 803 932 928 802 c 1,18,19
 1055 674 1055 674 1055 467 c 0,20,21
 1055 330 1055 330 995 215 c 1,22,23
 966 157 966 157 925 113 c 128,-1,24
 884 69 884 69 832 37 c 0,25,26
 730 -25 730 -25 597 -25 c 0,27,28
 373 -25 373 -25 231 137 c 0,29,30
 89 298 89 298 89 673 c 0,31,32
 89 1091 89 1091 246 1280 c 0,33,34
 384 1445 384 1445 614 1445 c 0,35,36
 786 1445 786 1445 896 1349 c 1,37,38
 1007 1255 1007 1255 1029 1089 c 1,39,-1
 855 1075 l 1,0,1
291 466 m 0,40,41
 291 372 291 372 330 289 c 0,42,43
 370 206 370 206 443 161 c 0,44,45
 478 139 478 139 516 128 c 128,-1,46
 554 117 554 117 594 117 c 0,47,48
 708 117 708 117 793 209 c 0,49,50
 876 299 876 299 876 456 c 0,51,52
 876 603 876 603 794 692 c 0,53,54
 754 734 754 734 701 756.5 c 128,-1,55
 648 779 648 779 587 779 c 0,56,57
 465 779 465 779 377 692 c 1,58,59
 291 605 291 605 291 466 c 0,40,41
EndSplineSet
EndChar

StartChar: seven
Encoding: 55 55 28
Width: 1139
Flags: W
LayerCount: 2
Fore
SplineSet
94 1282 m 1,0,-1
 93 1438 l 1,1,-1
 1045 1438 l 1,2,-1
 1041 1311 l 1,3,-1
 1042 1312 l 1,4,5
 971 1237 971 1237 903.5 1135.5 c 128,-1,6
 836 1034 836 1034 767 910 c 0,7,8
 735 853 735 853 705 789 c 128,-1,9
 675 725 675 725 647.5 659 c 128,-1,10
 620 593 620 593 596 527.5 c 128,-1,11
 572 462 572 462 554 403 c 1,12,13
 528 311 528 311 510.5 210.5 c 128,-1,14
 493 110 493 110 485 0 c 1,15,-1
 305 0 l 1,16,17
 308 171 308 171 373 416 c 0,18,19
 438 660 438 660 560 887 c 0,20,21
 622 1003 622 1003 685 1102 c 128,-1,22
 748 1201 748 1201 817 1282 c 1,23,-1
 94 1282 l 1,0,-1
EndSplineSet
EndChar

StartChar: eight
Encoding: 56 56 29
Width: 1139
Flags: W
LayerCount: 2
Fore
SplineSet
363 782 m 1,0,1
 251 822 251 822 197.5 896 c 128,-1,2
 144 970 144 970 144 1074 c 0,3,4
 144 1231 144 1231 259 1338 c 256,5,6
 374 1445 374 1445 564 1445 c 0,7,8
 755 1445 755 1445 872 1335 c 1,9,10
 989 1227 989 1227 989 1069 c 0,11,12
 989 969 989 969 934.5 895 c 128,-1,13
 880 821 880 821 768 780 c 1,14,15
 907 736 907 736 978 640 c 128,-1,16
 1049 544 1049 544 1049 411 c 0,17,18
 1049 224 1049 224 916 100 c 0,19,20
 783 -25 783 -25 567 -25 c 0,21,22
 461 -25 461 -25 372.5 8 c 128,-1,23
 284 41 284 41 218 100 c 1,24,25
 152 163 152 163 118.5 242 c 128,-1,26
 85 321 85 321 85 416 c 0,27,28
 85 556 85 556 157 650 c 128,-1,29
 229 744 229 744 363 778 c 1,30,-1
 363 782 l 1,0,1
323 1080 m 0,31,32
 323 976 323 976 391 912 c 0,33,34
 460 846 460 846 568 846 c 0,35,36
 672 846 672 846 741 911 c 0,37,38
 809 975 809 975 809 1070 c 0,39,40
 809 1168 809 1168 739 1235 c 1,41,42
 670 1303 670 1303 566 1303 c 0,43,44
 513 1303 513 1303 470 1286 c 128,-1,45
 427 1269 427 1269 392 1237 c 0,46,47
 323 1172 323 1172 323 1080 c 0,31,32
265 415 m 0,48,49
 265 337 265 337 301 267 c 0,50,51
 339 195 339 195 412 156 c 256,52,53
 485 117 485 117 569 117 c 0,54,55
 635 117 635 117 688.5 138 c 128,-1,56
 742 159 742 159 785 200 c 0,57,58
 870 280 870 280 870 409 c 0,59,60
 870 536 870 536 782 620 c 1,61,62
 696 706 696 706 563 706 c 0,63,64
 434 706 434 706 349 621 c 0,65,66
 265 536 265 536 265 415 c 0,48,49
EndSplineSet
EndChar

StartChar: nine
Encoding: 57 57 30
Width: 1139
Flags: W
LayerCount: 2
Fore
SplineSet
282 345 m 1,0,1
 305 224 305 224 367.5 170.5 c 128,-1,2
 430 117 430 117 529 117 c 0,3,4
 614 117 614 117 677.5 154.5 c 128,-1,5
 741 192 741 192 781 255 c 0,6,7
 819 316 819 316 848 425 c 1,8,9
 875 531 875 531 875 641 c 0,10,11
 875 647 875 647 874.5 661 c 128,-1,12
 874 675 874 675 873 687 c 1,13,14
 844 640 844 640 805.5 603 c 128,-1,15
 767 566 767 566 722 541 c 0,16,17
 675 516 675 516 624.5 502.5 c 128,-1,18
 574 489 574 489 520 489 c 0,19,20
 338 489 338 489 213 617 c 0,21,22
 87 747 87 747 87 960 c 0,23,24
 87 1066 87 1066 121 1156 c 128,-1,25
 155 1246 155 1246 218 1311 c 1,26,27
 283 1375 283 1375 366.5 1410 c 128,-1,28
 450 1445 450 1445 547 1445 c 0,29,30
 618 1445 618 1445 682.5 1425 c 128,-1,31
 747 1405 747 1405 807 1368 c 1,32,33
 923 1294 923 1294 987 1153 c 1,34,35
 1049 1011 1049 1011 1049 749 c 0,36,37
 1049 472 1049 472 988 309 c 1,38,39
 956 227 956 227 911.5 165.5 c 128,-1,40
 867 104 867 104 806 61 c 0,41,42
 686 -25 686 -25 525 -25 c 0,43,44
 439 -25 439 -25 369.5 -0.5 c 128,-1,45
 300 24 300 24 245 69 c 1,46,47
 193 116 193 116 159 181.5 c 128,-1,48
 125 247 125 247 114 329 c 1,49,-1
 282 345 l 1,0,1
569 1302 m 0,50,51
 448 1302 448 1302 357 1205 c 1,52,53
 267 1106 267 1106 267 954 c 0,54,55
 267 817 267 817 352 728 c 1,56,57
 439 641 439 641 564 641 c 0,58,59
 625 641 625 641 679 664.5 c 128,-1,60
 733 688 733 688 772 728 c 1,61,62
 811 772 811 772 832.5 833.5 c 128,-1,63
 854 895 854 895 854 968 c 0,64,65
 854 1118 854 1118 770 1211 c 0,66,67
 687 1302 687 1302 569 1302 c 0,50,51
EndSplineSet
EndChar

StartChar: colon
Encoding: 58 58 31
Width: 569
Flags: W
LayerCount: 2
Fore
SplineSet
188 793 m 1,0,-1
 188 1010 l 1,1,-1
 400 1010 l 1,2,-1
 400 793 l 1,3,-1
 188 793 l 1,0,-1
188 -6 m 1,4,-1
 188 220 l 1,5,-1
 400 220 l 1,6,-1
 400 -6 l 1,7,-1
 188 -6 l 1,4,-1
EndSplineSet
EndChar

StartChar: semicolon
Encoding: 59 59 32
Width: 569
Flags: W
LayerCount: 2
Fore
SplineSet
380 -31 m 0,1,2
 325 -147 325 -147 207 -245 c 1,3,4
 173 -202 173 -202 121 -176 c 1,5,6
 239 -33 239 -33 239 161 c 0,7,8
 239 176 239 176 237 198 c 0,9,10
 236 211 236 211 234 226 c 1,11,-1
 435 224 l 1,12,0
 434 82 434 82 380 -31 c 0,1,2
389.5 1025.5 m 128,-1,14
 425 991 425 991 425 941 c 0,15,16
 425 892 425 892 389.5 856.5 c 128,-1,17
 354 821 354 821 304 821 c 0,18,19
 253 821 253 821 217.5 856.5 c 128,-1,20
 182 892 182 892 182 941 c 0,21,22
 182 991 182 991 217.5 1025.5 c 128,-1,23
 253 1060 253 1060 304 1060 c 0,24,13
 354 1060 354 1060 389.5 1025.5 c 128,-1,14
EndSplineSet
EndChar

StartChar: less
Encoding: 60 60 33
Width: 1196
Flags: W
LayerCount: 2
Fore
SplineSet
114 629 m 1,0,-1
 114 793 l 1,1,2
 358 894 358 894 599 993.5 c 128,-1,3
 840 1093 840 1093 1083 1194 c 1,4,-1
 1083 1009 l 1,5,-1
 307 711 l 1,6,7
 500 631 500 631 695 552.5 c 128,-1,8
 890 474 890 474 1083 396 c 1,9,-1
 1083 224 l 1,10,-1
 114 629 l 1,0,-1
EndSplineSet
Substitution2: "'rtla' Right to Left Alternates lookup 0 subtable" greater
EndChar

StartChar: equal
Encoding: 61 61 34
Width: 1196
Flags: W
LayerCount: 2
Fore
SplineSet
1082 848 m 1,0,-1
 116 848 l 1,1,-1
 116 1010 l 1,2,-1
 1082 1010 l 1,3,-1
 1082 848 l 1,0,-1
1082 411 m 1,4,-1
 116 411 l 1,5,-1
 116 571 l 1,6,-1
 1082 571 l 1,7,-1
 1082 411 l 1,4,-1
EndSplineSet
EndChar

StartChar: greater
Encoding: 62 62 35
Width: 1196
Flags: W
LayerCount: 2
Fore
SplineSet
1083 629 m 1,0,1
 840 528 840 528 599 426.5 c 128,-1,2
 358 325 358 325 114 224 c 1,3,-1
 114 396 l 1,4,-1
 889 711 l 1,5,6
 696 788 696 788 501.5 866.5 c 128,-1,7
 307 945 307 945 114 1022 c 1,8,-1
 114 1194 l 1,9,10
 358 1093 358 1093 598.5 993.5 c 128,-1,11
 839 894 839 894 1083 793 c 1,12,-1
 1083 629 l 1,0,1
EndSplineSet
Substitution2: "'rtla' Right to Left Alternates lookup 0 subtable" less
EndChar

StartChar: question
Encoding: 63 63 36
Width: 1139
Flags: W
LayerCount: 2
Fore
SplineSet
476 355 m 1,0,1
 475 372 475 372 475 385 c 128,-1,2
 475 398 475 398 475 407 c 0,3,4
 475 510 475 510 505 585 c 0,5,6
 516 615 516 615 533.5 644 c 128,-1,7
 551 673 551 673 575 701 c 0,8,9
 593 722 593 722 625 752 c 128,-1,10
 657 782 657 782 705 823 c 1,11,-1
 705 822 l 1,12,13
 753 863 753 863 783.5 896 c 128,-1,14
 814 929 814 929 828 954 c 0,15,16
 856 1002 856 1002 856 1059 c 0,17,18
 856 1163 856 1163 773 1242 c 0,19,20
 689 1321 689 1321 569 1321 c 0,21,22
 452 1321 452 1321 374 1250.5 c 128,-1,23
 296 1180 296 1180 272 1029 c 1,24,25
 227 1034 227 1034 182.5 1040 c 128,-1,26
 138 1046 138 1046 92 1051 c 1,27,28
 117 1252 117 1252 239.5 1357.5 c 128,-1,29
 362 1463 362 1463 566 1463 c 0,30,31
 780 1463 780 1463 908 1349 c 0,32,33
 1036 1234 1036 1234 1036 1071 c 0,34,35
 1036 978 1036 978 991 898 c 0,36,37
 944 816 944 816 815 705 c 1,38,-1
 815 706 l 1,39,40
 771 668 771 668 743 639.5 c 128,-1,41
 715 611 715 611 700 591 c 0,42,43
 686 571 686 571 675.5 550.5 c 128,-1,44
 665 530 665 530 658 508 c 0,45,46
 644 461 644 461 643 355 c 1,47,-1
 476 355 l 1,0,1
465 0 m 1,48,-1
 465 198 l 1,49,-1
 664 198 l 1,50,-1
 664 0 l 1,51,-1
 465 0 l 1,48,-1
EndSplineSet
EndChar

StartChar: at
Encoding: 64 64 37
Width: 2079
Flags: W
LayerCount: 2
Fore
SplineSet
1161 160 m 1,0,1
 1096 85 1096 85 1016 41 c 128,-1,2
 936 -3 936 -3 855 -3 c 0,3,4
 811 -3 811 -3 767.5 10.5 c 128,-1,5
 724 24 724 24 684 49.5 c 128,-1,6
 644 75 644 75 609 114 c 128,-1,7
 574 153 574 153 547 205 c 1,8,9
 495 312 495 312 495 437 c 0,10,11
 495 591 495 591 576 749 c 1,12,13
 658 906 658 906 779 984 c 0,14,15
 901 1062 901 1062 1013 1062 c 0,16,17
 1100 1062 1100 1062 1179 1016 c 128,-1,18
 1258 970 1258 970 1317 875 c 1,19,20
 1325 913 1325 913 1335 955 c 128,-1,21
 1345 997 1345 997 1353 1034 c 1,22,-1
 1527 1034 l 1,23,-1
 1382 375 l 2,24,25
 1352 238 1352 238 1352 223 c 0,26,27
 1352 196 1352 196 1373 176.5 c 128,-1,28
 1394 157 1394 157 1425 157 c 0,29,30
 1452 157 1452 157 1488.5 172.5 c 128,-1,31
 1525 188 1525 188 1567 217 c 0,32,33
 1624 256 1624 256 1670 310 c 128,-1,34
 1716 364 1716 364 1749 428 c 1,35,36
 1781 493 1781 493 1798.5 563.5 c 128,-1,37
 1816 634 1816 634 1816 703 c 0,38,39
 1816 867 1816 867 1730 1010 c 0,40,41
 1643 1153 1643 1153 1472 1240 c 1,42,43
 1301 1325 1301 1325 1095 1325 c 0,44,45
 859 1325 859 1325 665 1217 c 0,46,47
 566 1161 566 1161 490.5 1085 c 128,-1,48
 415 1009 415 1009 361 907 c 0,49,50
 255 708 255 708 255 475 c 0,51,52
 255 233 255 233 361 59 c 0,53,54
 415 -28 415 -28 492.5 -93 c 128,-1,55
 570 -158 570 -158 673 -199 c 1,56,57
 874 -282 874 -282 1122 -282 c 0,58,59
 1387 -282 1387 -282 1564 -196 c 0,60,61
 1652 -153 1652 -153 1718.5 -100 c 128,-1,62
 1785 -47 1785 -47 1830 15 c 1,63,-1
 2007 15 l 1,64,65
 1981 -35 1981 -35 1936.5 -87 c 128,-1,66
 1892 -139 1892 -139 1833 -192 c 1,67,68
 1770 -246 1770 -246 1696.5 -288.5 c 128,-1,69
 1623 -331 1623 -331 1538 -361 c 1,70,71
 1368 -424 1368 -424 1125 -424 c 0,72,73
 902 -424 902 -424 715.5 -368 c 128,-1,74
 529 -312 529 -312 395 -199 c 0,75,76
 330 -143 330 -143 280.5 -78 c 128,-1,77
 231 -13 231 -13 197 59 c 1,78,79
 155 152 155 152 133.5 252.5 c 128,-1,80
 112 353 112 353 112 460 c 0,81,82
 112 698 112 698 213 916 c 0,83,84
 335 1182 335 1182 559.5 1323.5 c 128,-1,85
 784 1465 784 1465 1104 1465 c 0,86,87
 1353 1465 1353 1465 1550 1364 c 1,88,89
 1645 1317 1645 1317 1724.5 1240 c 128,-1,90
 1804 1163 1804 1163 1861 1068 c 1,91,92
 1908 985 1908 985 1933 891 c 128,-1,93
 1958 797 1958 797 1958 700 c 0,94,95
 1958 414 1958 414 1755 194 c 1,96,97
 1574 -4 1574 -4 1357 -4 c 0,98,99
 1289 -4 1289 -4 1247.5 16.5 c 128,-1,100
 1206 37 1206 37 1185 74 c 1,101,102
 1172 99 1172 99 1166 159 c 1,103,-1
 1161 160 l 1,0,1
675 425 m 0,104,105
 675 291 675 291 741 215 c 0,106,107
 806 139 806 139 892 139 c 0,108,109
 949 139 949 139 1011.5 173.5 c 128,-1,110
 1074 208 1074 208 1131 271 c 0,111,112
 1160 304 1160 304 1184 345 c 128,-1,113
 1208 386 1208 386 1226 435 c 0,114,115
 1262 535 1262 535 1262 636 c 0,116,117
 1262 769 1262 769 1193 845 c 0,118,119
 1124 920 1124 920 1026 920 c 0,120,121
 961 920 961 920 904 888 c 128,-1,122
 847 856 847 856 793 784 c 0,123,124
 738 711 738 711 707 612 c 0,125,126
 675 509 675 509 675 425 c 0,104,105
EndSplineSet
EndChar

StartChar: A
Encoding: 65 65 38
Width: 1366
Flags: W
LayerCount: 2
Fore
SplineSet
0 0 m 1,0,1
 140 357 140 357 282 718.5 c 128,-1,2
 424 1080 424 1080 564 1437 c 1,3,-1
 767 1437 l 1,4,5
 919 1076 919 1076 1067.5 718.5 c 128,-1,6
 1216 361 1216 361 1368 0 c 1,7,-1
 1153 0 l 1,8,-1
 982 436 l 1,9,-1
 361 436 l 1,10,11
 342 385 342 385 321.5 329.5 c 128,-1,12
 301 274 301 274 280.5 218 c 128,-1,13
 260 162 260 162 239.5 106.5 c 128,-1,14
 219 51 219 51 200 0 c 1,15,-1
 0 0 l 1,0,1
416 588 m 1,16,-1
 923 588 l 1,17,-1
 768 990 l 2,18,19
 733 1079 733 1079 707.5 1154 c 128,-1,20
 682 1229 682 1229 664 1290 c 1,21,-1
 658 1289 l 1,22,23
 644 1219 644 1219 624 1150 c 128,-1,24
 604 1081 604 1081 579 1013 c 1,25,-1
 416 588 l 1,16,-1
EndSplineSet
EndChar

StartChar: B
Encoding: 66 66 39
Width: 1366
Flags: W
LayerCount: 2
Fore
SplineSet
152 0 m 1,0,-1
 152 1437 l 1,1,-1
 701 1437 l 2,2,3
 785 1437 785 1437 851.5 1426 c 128,-1,4
 918 1415 918 1415 969.5 1393 c 128,-1,5
 1021 1371 1021 1371 1059.5 1338 c 128,-1,6
 1098 1305 1098 1305 1127 1259 c 0,7,8
 1185 1169 1185 1169 1185 1070 c 0,9,10
 1185 978 1185 978 1133.5 896 c 128,-1,11
 1082 814 1082 814 977 763 c 1,12,13
 1112 724 1112 724 1184 633 c 128,-1,14
 1256 542 1256 542 1256 416 c 0,15,16
 1256 317 1256 317 1212 228 c 0,17,18
 1170 142 1170 142 1106 95 c 256,19,20
 1042 48 1042 48 946 24 c 128,-1,21
 850 0 850 0 710 0 c 2,22,-1
 152 0 l 1,0,-1
341 831 m 1,23,-1
 662 831 l 2,24,25
 726 831 726 831 773 835.5 c 128,-1,26
 820 840 820 840 848 848 c 0,27,28
 923 870 923 870 961.5 920.5 c 128,-1,29
 1000 971 1000 971 1000 1048 c 0,30,31
 1000 1119 1000 1119 964 1173.5 c 128,-1,32
 928 1228 928 1228 862 1250 c 0,33,34
 830 1260 830 1260 773.5 1265.5 c 128,-1,35
 717 1271 717 1271 638 1271 c 2,36,-1
 341 1271 l 1,37,-1
 341 831 l 1,23,-1
341 166 m 1,38,-1
 710 166 l 2,39,40
 757 166 757 166 790.5 167.5 c 128,-1,41
 824 169 824 169 843 172 c 0,42,43
 910 185 910 185 956 212.5 c 128,-1,44
 1002 240 1002 240 1032 293 c 1,45,46
 1061 347 1061 347 1061 416 c 0,47,48
 1061 455 1061 455 1049.5 490 c 128,-1,49
 1038 525 1038 525 1016.5 554.5 c 128,-1,50
 995 584 995 584 965 606 c 128,-1,51
 935 628 935 628 899 641 c 1,52,53
 862 653 862 653 807 659 c 128,-1,54
 752 665 752 665 684 665 c 2,55,-1
 341 665 l 1,56,-1
 341 166 l 1,38,-1
EndSplineSet
EndChar

StartChar: C
Encoding: 67 67 40
Width: 1479
Flags: W
LayerCount: 2
Fore
SplineSet
1398 453 m 1,0,1
 1339 224 1339 224 1178 98 c 0,2,3
 1020 -25 1020 -25 792 -25 c 0,4,5
 674 -25 674 -25 578.5 -0.5 c 128,-1,6
 483 24 483 24 408 70.5 c 128,-1,7
 333 117 333 117 276.5 185.5 c 128,-1,8
 220 254 220 254 181 344 c 0,9,10
 104 524 104 524 104 729 c 0,11,12
 104 954 104 954 191 1120 c 0,13,14
 236 1204 236 1204 298.5 1267.5 c 128,-1,15
 361 1331 361 1331 439 1374 c 1,16,17
 519 1415 519 1415 610 1438 c 128,-1,18
 701 1461 701 1461 795 1461 c 0,19,20
 1015 1461 1015 1461 1164 1352 c 256,21,22
 1313 1243 1313 1243 1372 1045 c 1,23,24
 1325 1034 1325 1034 1278.5 1023.5 c 128,-1,25
 1232 1013 1232 1013 1186 1003 c 1,26,27
 1135 1158 1135 1158 1037 1230.5 c 128,-1,28
 939 1303 939 1303 791 1303 c 0,29,30
 620 1303 620 1303 505 1222 c 0,31,32
 392 1143 392 1143 345 1008 c 0,33,34
 299 875 299 875 299 730 c 0,35,36
 299 638 299 638 312.5 556.5 c 128,-1,37
 326 475 326 475 353.5 408 c 128,-1,38
 381 341 381 341 423.5 288.5 c 128,-1,39
 466 236 466 236 524 203 c 1,40,41
 640 134 640 134 776 134 c 0,42,43
 858 134 858 134 928 157 c 128,-1,44
 998 180 998 180 1053.5 226 c 128,-1,45
 1109 272 1109 272 1148.5 341 c 128,-1,46
 1188 410 1188 410 1208 500 c 1,47,-1
 1398 453 l 1,0,1
EndSplineSet
EndChar

StartChar: D
Encoding: 68 68 41
Width: 1479
Flags: W
LayerCount: 2
Fore
SplineSet
160 0 m 1,0,-1
 160 1437 l 1,1,-1
 664 1437 l 2,2,3
 834 1437 834 1437 924 1416 c 1,4,5
 987 1403 987 1403 1040.5 1377.5 c 128,-1,6
 1094 1352 1094 1352 1139 1313 c 1,7,8
 1255 1216 1255 1216 1312.5 1067.5 c 128,-1,9
 1370 919 1370 919 1370 726 c 0,10,11
 1370 602 1370 602 1347 501 c 128,-1,12
 1324 400 1324 400 1286 321.5 c 128,-1,13
 1248 243 1248 243 1199 187 c 128,-1,14
 1150 131 1150 131 1097 96 c 0,15,16
 1025 49 1025 49 923 24.5 c 128,-1,17
 821 0 821 0 688 0 c 2,18,-1
 160 0 l 1,0,-1
349 166 m 1,19,-1
 666 166 l 2,20,21
 813 166 813 166 894 193 c 0,22,23
 978 220 978 220 1028 269 c 0,24,25
 1098 337 1098 337 1136.5 451 c 128,-1,26
 1175 565 1175 565 1175 729 c 0,27,28
 1175 955 1175 955 1099 1077 c 0,29,30
 1062 1135 1062 1135 1014.5 1177.5 c 128,-1,31
 967 1220 967 1220 913 1241 c 0,32,33
 836 1271 836 1271 661 1271 c 2,34,-1
 349 1271 l 1,35,-1
 349 166 l 1,19,-1
EndSplineSet
EndChar

StartChar: E
Encoding: 69 69 42
Width: 1366
Flags: W
LayerCount: 2
Fore
SplineSet
164 0 m 1,0,-1
 164 1437 l 1,1,-1
 1221 1437 l 1,2,-1
 1221 1271 l 1,3,-1
 353 1271 l 1,4,-1
 353 825 l 1,5,-1
 1166 825 l 1,6,-1
 1166 661 l 1,7,-1
 353 661 l 1,8,-1
 353 166 l 1,9,-1
 1255 166 l 1,10,-1
 1255 0 l 1,11,-1
 164 0 l 1,0,-1
EndSplineSet
EndChar

StartChar: F
Encoding: 70 70 43
Width: 1251
Flags: W
LayerCount: 2
Fore
SplineSet
171 0 m 1,0,-1
 171 1437 l 1,1,-1
 1156 1437 l 1,2,-1
 1156 1271 l 1,3,-1
 359 1271 l 1,4,-1
 359 820 l 1,5,-1
 1049 820 l 1,6,-1
 1049 655 l 1,7,-1
 359 655 l 1,8,-1
 359 0 l 1,9,-1
 171 0 l 1,0,-1
EndSplineSet
EndChar

StartChar: G
Encoding: 71 71 44
Width: 1593
Flags: W
LayerCount: 2
Fore
SplineSet
848 566 m 1,0,-1
 848 730 l 1,1,2
 1004 730 1004 730 1156.5 730.5 c 128,-1,3
 1309 731 1309 731 1465 731 c 1,4,-1
 1465 200 l 1,5,6
 1322 90 1322 90 1169.5 32.5 c 128,-1,7
 1017 -25 1017 -25 859 -25 c 0,8,9
 753 -25 753 -25 654 -1.5 c 128,-1,10
 555 22 555 22 466 66 c 1,11,12
 383 110 383 110 314.5 177.5 c 128,-1,13
 246 245 246 245 201 328 c 1,14,15
 158 414 158 414 134.5 511.5 c 128,-1,16
 111 609 111 609 111 712 c 0,17,18
 111 813 111 813 134.5 913 c 128,-1,19
 158 1013 158 1013 200 1103 c 1,20,21
 245 1190 245 1190 311 1260 c 128,-1,22
 377 1330 377 1330 457 1373 c 1,23,24
 540 1415 540 1415 639 1438 c 128,-1,25
 738 1461 738 1461 844 1461 c 0,26,27
 1005 1461 1005 1461 1131 1410 c 1,28,29
 1258 1360 1258 1360 1333 1271 c 1,30,31
 1368 1227 1368 1227 1396 1167.5 c 128,-1,32
 1424 1108 1424 1108 1443 1037 c 1,33,34
 1400 1025 1400 1025 1358 1014.5 c 128,-1,35
 1316 1004 1316 1004 1272 992 c 1,36,37
 1241 1096 1241 1096 1190 1162 c 1,38,39
 1164 1194 1164 1194 1129 1220 c 128,-1,40
 1094 1246 1094 1246 1049 1264 c 0,41,42
 957 1303 957 1303 845 1303 c 0,43,44
 742 1303 742 1303 663 1279.5 c 128,-1,45
 584 1256 584 1256 525 1216 c 128,-1,46
 466 1176 466 1176 426 1123.5 c 128,-1,47
 386 1071 386 1071 362 1014 c 0,48,49
 306 879 306 879 306 723 c 0,50,51
 306 629 306 629 324.5 548.5 c 128,-1,52
 343 468 343 468 377.5 402.5 c 128,-1,53
 412 337 412 337 461 288 c 128,-1,54
 510 239 510 239 572 207 c 1,55,56
 702 143 702 143 848 143 c 0,57,58
 977 143 977 143 1096 191 c 0,59,60
 1156 216 1156 216 1202 241.5 c 128,-1,61
 1248 267 1248 267 1280 295 c 1,62,-1
 1280 566 l 1,63,-1
 848 566 l 1,0,-1
EndSplineSet
EndChar

StartChar: H
Encoding: 72 72 45
Width: 1479
Flags: W
LayerCount: 2
Fore
SplineSet
166 0 m 1,0,-1
 166 1437 l 1,1,-1
 355 1437 l 1,2,-1
 355 845 l 1,3,-1
 1125 845 l 1,4,-1
 1125 1437 l 1,5,-1
 1314 1437 l 1,6,-1
 1314 0 l 1,7,-1
 1125 0 l 1,8,-1
 1125 679 l 1,9,-1
 355 679 l 1,10,-1
 355 0 l 1,11,-1
 166 0 l 1,0,-1
EndSplineSet
EndChar

StartChar: I
Encoding: 73 73 46
Width: 569
Flags: W
LayerCount: 2
Fore
SplineSet
194 0 m 1,0,-1
 194 1437 l 1,1,-1
 383 1437 l 1,2,-1
 383 0 l 1,3,-1
 194 0 l 1,0,-1
EndSplineSet
EndChar

StartChar: J
Encoding: 74 74 47
Width: 1024
Flags: W
LayerCount: 2
Fore
SplineSet
247 427 m 1,0,1
 255 265 255 265 311 204 c 0,2,3
 368 141 368 141 469 141 c 0,4,5
 544 141 544 141 597.5 174.5 c 128,-1,6
 651 208 651 208 671 265 c 0,7,8
 691 323 691 323 691 446 c 2,9,-1
 691 1437 l 1,10,-1
 880 1437 l 1,11,-1
 880 457 l 2,12,13
 880 277 880 277 835 177 c 0,14,15
 791 77 791 77 695 27 c 1,16,17
 598 -25 598 -25 470 -25 c 0,18,19
 376 -25 376 -25 303.5 4 c 128,-1,20
 231 33 231 33 181 88 c 128,-1,21
 131 143 131 143 105 223.5 c 128,-1,22
 79 304 79 304 78 406 c 1,23,-1
 247 427 l 1,0,1
EndSplineSet
EndChar

StartChar: K
Encoding: 75 75 48
Width: 1366
Flags: W
LayerCount: 2
Fore
SplineSet
152 0 m 1,0,-1
 152 1437 l 1,1,-1
 341 1437 l 1,2,-1
 341 718 l 1,3,4
 393 769 393 769 453 828.5 c 128,-1,5
 513 888 513 888 577 950 c 128,-1,6
 641 1012 641 1012 707 1077 c 128,-1,7
 773 1142 773 1142 837.5 1204.5 c 128,-1,8
 902 1267 902 1267 962 1326 c 128,-1,9
 1022 1385 1022 1385 1075 1437 c 1,10,-1
 1333 1437 l 1,11,-1
 718 855 l 1,12,13
 879 641 879 641 1039 428 c 128,-1,14
 1199 215 1199 215 1361 0 c 1,15,-1
 1109 0 l 1,16,-1
 585 730 l 1,17,-1
 341 497 l 1,18,-1
 341 0 l 1,19,-1
 152 0 l 1,0,-1
EndSplineSet
EndChar

StartChar: L
Encoding: 76 76 49
Width: 1139
Flags: W
LayerCount: 2
Fore
SplineSet
153 0 m 1,0,-1
 153 1437 l 1,1,-1
 341 1437 l 1,2,-1
 341 166 l 1,3,-1
 1065 166 l 1,4,-1
 1065 0 l 1,5,-1
 153 0 l 1,0,-1
EndSplineSet
EndChar

StartChar: M
Encoding: 77 77 50
Width: 1706
Flags: W
LayerCount: 2
Fore
SplineSet
154 0 m 1,0,-1
 154 1437 l 1,1,-1
 441 1437 l 1,2,3
 526 1187 526 1187 615 927 c 128,-1,4
 704 667 704 667 789 418 c 0,5,6
 813 346 813 346 832 288.5 c 128,-1,7
 851 231 851 231 862 196 c 1,8,9
 875 234 875 234 896 297.5 c 128,-1,10
 917 361 917 361 943 435 c 0,11,12
 1031 684 1031 684 1119 936 c 128,-1,13
 1207 1188 1207 1188 1295 1437 c 1,14,-1
 1551 1437 l 1,15,-1
 1551 0 l 1,16,-1
 1370 0 l 1,17,-1
 1370 1205 l 1,18,-1
 1364 1206 l 1,19,20
 1258 906 1258 906 1150 603 c 128,-1,21
 1042 300 1042 300 936 0 c 1,22,-1
 767 0 l 1,23,-1
 342 1226 l 1,24,-1
 336 1225 l 1,25,-1
 336 0 l 1,26,-1
 154 0 l 1,0,-1
EndSplineSet
EndChar

StartChar: N
Encoding: 78 78 51
Width: 1479
Flags: W
LayerCount: 2
Fore
SplineSet
158 0 m 1,0,-1
 158 1437 l 1,1,-1
 354 1437 l 1,2,-1
 1130 300 l 1,3,-1
 1130 1437 l 1,4,-1
 1311 1437 l 1,5,-1
 1311 0 l 1,6,-1
 1115 0 l 1,7,-1
 339 1138 l 1,8,-1
 339 0 l 1,9,-1
 158 0 l 1,0,-1
EndSplineSet
EndChar

StartChar: O
Encoding: 79 79 52
Width: 1593
Flags: W
LayerCount: 2
Fore
SplineSet
101 700 m 0,0,1
 101 1059 101 1059 297 1260 c 0,2,3
 494 1462 494 1462 802 1462 c 0,4,5
 1004 1462 1004 1462 1167 1367 c 0,6,7
 1329 1272 1329 1272 1415 1102 c 0,8,9
 1501 931 1501 931 1501 716 c 0,10,11
 1501 497 1501 497 1411 325 c 0,12,13
 1366 240 1366 240 1301 174 c 128,-1,14
 1236 108 1236 108 1157 64 c 1,15,16
 1076 22 1076 22 985 -1.5 c 128,-1,17
 894 -25 894 -25 801 -25 c 0,18,19
 595 -25 595 -25 432 74 c 0,20,21
 351 123 351 123 289.5 190 c 128,-1,22
 228 257 228 257 185 341 c 1,23,24
 101 510 101 510 101 700 c 0,0,1
296 697 m 0,25,26
 296 435 296 435 439 285 c 0,27,28
 584 134 584 134 800 134 c 0,29,30
 1022 134 1022 134 1163 287 c 1,31,32
 1306 439 1306 439 1306 717 c 0,33,34
 1306 804 1306 804 1289.5 881 c 128,-1,35
 1273 958 1273 958 1242.5 1023 c 128,-1,36
 1212 1088 1212 1088 1167.5 1140 c 128,-1,37
 1123 1192 1123 1192 1067 1229 c 1,38,39
 951 1303 951 1303 803 1303 c 0,40,41
 701 1303 701 1303 610 1266 c 128,-1,42
 519 1229 519 1229 445 1161 c 1,43,44
 375 1091 375 1091 335.5 973.5 c 128,-1,45
 296 856 296 856 296 697 c 0,25,26
EndSplineSet
EndChar

StartChar: P
Encoding: 80 80 53
Width: 1366
Flags: W
LayerCount: 2
Fore
SplineSet
160 0 m 1,0,-1
 160 1437 l 1,1,-1
 712 1437 l 2,2,3
 784 1437 784 1437 840 1433.5 c 128,-1,4
 896 1430 896 1430 935 1423 c 0,5,6
 1043 1405 1043 1405 1114.5 1355.5 c 128,-1,7
 1186 1306 1186 1306 1231 1217 c 0,8,9
 1254 1172 1254 1172 1265.5 1123.5 c 128,-1,10
 1277 1075 1277 1075 1277 1022 c 0,11,12
 1277 840 1277 840 1158 712 c 1,13,14
 1039 586 1039 586 729 586 c 2,15,-1
 349 586 l 1,16,-1
 349 0 l 1,17,-1
 160 0 l 1,0,-1
349 752 m 1,18,-1
 732 752 l 2,19,20
 922 752 922 752 1002 821 c 0,21,22
 1082 891 1082 891 1082 1016 c 0,23,24
 1082 1108 1082 1108 1035 1172.5 c 128,-1,25
 988 1237 988 1237 911 1258 c 0,26,27
 862 1271 862 1271 728 1271 c 2,28,-1
 349 1271 l 1,29,-1
 349 752 l 1,18,-1
EndSplineSet
EndChar

StartChar: Q
Encoding: 81 81 54
Width: 1593
Flags: W
LayerCount: 2
Fore
SplineSet
1269 150 m 1,0,1
 1336 105 1336 105 1397.5 72.5 c 128,-1,2
 1459 40 1459 40 1517 18 c 1,3,4
 1503 -15 1503 -15 1489.5 -46.5 c 128,-1,5
 1476 -78 1476 -78 1462 -111 c 1,6,7
 1308 -57 1308 -57 1149 66 c 1,8,9
 986 -25 986 -25 787 -25 c 0,10,11
 589 -25 589 -25 427 70 c 0,12,13
 346 117 346 117 284 183.5 c 128,-1,14
 222 250 222 250 177 334 c 1,15,16
 136 418 136 418 113 517 c 128,-1,17
 90 616 90 616 90 718 c 0,18,19
 90 932 90 932 178 1106 c 1,20,21
 223 1192 223 1192 286 1259 c 128,-1,22
 349 1326 349 1326 427 1371 c 1,23,24
 508 1415 508 1415 600 1438.5 c 128,-1,25
 692 1462 692 1462 791 1462 c 0,26,27
 993 1462 993 1462 1156 1367 c 0,28,29
 1318 1273 1318 1273 1404 1103 c 0,30,31
 1490 932 1490 932 1490 719 c 0,32,33
 1490 363 1490 363 1269 153 c 1,34,-1
 1269 150 l 1,0,1
846 393 m 1,35,36
 1011 348 1011 348 1121 256 c 1,37,38
 1295 412 1295 412 1295 719 c 0,39,40
 1295 805 1295 805 1278.5 882 c 128,-1,41
 1262 959 1262 959 1231.5 1023.5 c 128,-1,42
 1201 1088 1201 1088 1156.5 1140 c 128,-1,43
 1112 1192 1112 1192 1056 1229 c 1,44,45
 940 1303 940 1303 792 1303 c 0,46,47
 574 1303 574 1303 429 1155 c 0,48,49
 285 1008 285 1008 285 718 c 0,50,51
 285 437 285 437 427 286 c 0,52,53
 570 134 570 134 792 134 c 0,54,55
 895 134 895 134 994 174 c 1,56,57
 898 234 898 234 800 259 c 1,58,-1
 846 393 l 1,35,36
EndSplineSet
EndChar

StartChar: R
Encoding: 82 82 55
Width: 1479
Flags: W
LayerCount: 2
Fore
SplineSet
163 0 m 1,0,-1
 163 1437 l 1,1,-1
 812 1437 l 2,2,3
 1009 1437 1009 1437 1110 1398 c 1,4,5
 1209 1361 1209 1361 1271 1262 c 1,6,7
 1333 1161 1333 1161 1333 1046 c 0,8,9
 1333 893 1333 893 1232 788 c 0,10,11
 1182 736 1182 736 1103 702 c 128,-1,12
 1024 668 1024 668 914 655 c 1,13,14
 956 635 956 635 986.5 616.5 c 128,-1,15
 1017 598 1017 598 1037 581 c 1,16,17
 1076 545 1076 545 1118.5 494.5 c 128,-1,18
 1161 444 1161 444 1197 389 c 0,19,20
 1260 291 1260 291 1324 194.5 c 128,-1,21
 1388 98 1388 98 1451 0 c 1,22,-1
 1213 0 l 1,23,-1
 1020 299 l 2,24,25
 977 366 977 366 942.5 414.5 c 128,-1,26
 908 463 908 463 879 498 c 128,-1,27
 850 533 850 533 826 556 c 128,-1,28
 802 579 802 579 779.5 594.5 c 128,-1,29
 757 610 757 610 735.5 618.5 c 128,-1,30
 714 627 714 627 690 633 c 0,31,32
 659 640 659 640 580 640 c 2,33,-1
 352 640 l 1,34,-1
 352 0 l 1,35,-1
 163 0 l 1,0,-1
352 801 m 1,36,-1
 773 801 l 2,37,38
 840 801 840 801 892 807 c 128,-1,39
 944 813 944 813 983.5 827.5 c 128,-1,40
 1023 842 1023 842 1051 863.5 c 128,-1,41
 1079 885 1079 885 1099 915 c 0,42,43
 1138 975 1138 975 1138 1046 c 0,44,45
 1138 1147 1138 1147 1061 1214 c 0,46,47
 1023 1248 1023 1248 961.5 1265 c 128,-1,48
 900 1282 900 1282 820 1282 c 2,49,-1
 352 1282 l 1,50,-1
 352 801 l 1,36,-1
EndSplineSet
EndChar

StartChar: S
Encoding: 83 83 56
Width: 1366
Flags: W
LayerCount: 2
Fore
SplineSet
272 474 m 1,0,1
 278 420 278 420 293 376.5 c 128,-1,2
 308 333 308 333 333 298 c 128,-1,3
 358 263 358 263 394.5 235 c 128,-1,4
 431 207 431 207 482 185 c 0,5,6
 582 142 582 142 709 142 c 1,7,8
 795 141 795 141 864 160.5 c 128,-1,9
 933 180 933 180 981 214 c 128,-1,10
 1029 248 1029 248 1054 293.5 c 128,-1,11
 1079 339 1079 339 1077 389 c 1,12,13
 1077 457 1077 457 1034 509 c 128,-1,14
 991 561 991 561 903 595 c 1,15,16
 871 606 871 606 805 624 c 128,-1,17
 739 642 739 642 641 665 c 0,18,19
 538 689 538 689 468 711 c 128,-1,20
 398 733 398 733 357 755 c 1,21,22
 252 808 252 808 201 887.5 c 128,-1,23
 150 967 150 967 150 1066 c 0,24,25
 150 1172 150 1172 214 1269 c 256,26,27
 278 1366 278 1366 396 1412 c 0,28,29
 519 1461 519 1461 665 1461 c 0,30,31
 827 1461 827 1461 951 1410 c 128,-1,32
 1075 1359 1075 1359 1142 1259 c 0,33,34
 1210 1157 1210 1157 1214 1035 c 1,35,36
 1168 1032 1168 1032 1124 1028 c 128,-1,37
 1080 1024 1080 1024 1034 1021 c 1,38,39
 1018 1157 1018 1157 930 1227.5 c 128,-1,40
 842 1298 842 1298 673 1298 c 0,41,42
 494 1298 494 1298 413 1233 c 256,43,44
 332 1168 332 1168 332 1079 c 0,45,46
 332 1041 332 1041 347 1008.5 c 128,-1,47
 362 976 362 976 390 951 c 0,48,49
 419 925 419 925 493 898.5 c 128,-1,50
 567 872 567 872 684 846 c 0,51,52
 800 820 800 820 882.5 797 c 128,-1,53
 965 774 965 774 1010 755 c 1,54,55
 1135 696 1135 696 1197 607.5 c 128,-1,56
 1259 519 1259 519 1259 405 c 256,57,58
 1259 291 1259 291 1191 189 c 0,59,60
 1157 137 1157 137 1110 98.5 c 128,-1,61
 1063 60 1063 60 1000 31 c 0,62,63
 875 -25 875 -25 718 -25 c 0,64,65
 518 -25 518 -25 385 31.5 c 128,-1,66
 252 88 252 88 174 203 c 1,67,-1
 175 203 l 1,68,69
 136 261 136 261 116 324 c 128,-1,70
 96 387 96 387 94 459 c 1,71,-1
 272 474 l 1,0,1
EndSplineSet
EndChar

StartChar: T
Encoding: 84 84 57
Width: 1251
Flags: W
LayerCount: 2
Fore
SplineSet
535 0 m 1,0,-1
 535 1271 l 1,1,-1
 50 1271 l 1,2,-1
 50 1437 l 1,3,-1
 1209 1437 l 1,4,-1
 1209 1271 l 1,5,-1
 723 1271 l 1,6,-1
 723 0 l 1,7,-1
 535 0 l 1,0,-1
EndSplineSet
EndChar

StartChar: U
Encoding: 85 85 58
Width: 1479
Flags: W
LayerCount: 2
Fore
SplineSet
1125 1437 m 1,0,-1
 1314 1437 l 1,1,-1
 1314 607 l 2,2,3
 1314 390 1314 390 1263 263 c 1,4,5
 1238 198 1238 198 1193 147 c 128,-1,6
 1148 96 1148 96 1083 55 c 1,7,8
 952 -25 952 -25 742 -25 c 0,9,10
 641 -25 641 -25 558 -6 c 128,-1,11
 475 13 475 13 409.5 48 c 128,-1,12
 344 83 344 83 296.5 133 c 128,-1,13
 249 183 249 183 220 246 c 1,14,15
 192 313 192 313 177.5 403.5 c 128,-1,16
 163 494 163 494 163 607 c 2,17,-1
 163 1437 l 1,18,-1
 352 1437 l 1,19,-1
 352 608 l 2,20,21
 352 420 352 420 387 329 c 1,22,23
 422 241 422 241 510 192 c 0,24,25
 597 143 597 143 725 143 c 0,26,27
 941 143 941 143 1033 240 c 0,28,29
 1125 336 1125 336 1125 608 c 2,30,-1
 1125 1437 l 1,0,-1
EndSplineSet
EndChar

StartChar: V
Encoding: 86 86 59
Width: 1366
Flags: W
LayerCount: 2
Fore
SplineSet
581 0 m 1,0,1
 438 361 438 361 296.5 718.5 c 128,-1,2
 155 1076 155 1076 12 1437 c 1,3,-1
 216 1437 l 1,4,-1
 598 391 l 2,5,6
 621 328 621 328 641.5 264 c 128,-1,7
 662 200 662 200 678 144 c 1,8,9
 695 204 695 204 716 268 c 128,-1,10
 737 332 737 332 760 391 c 0,11,12
 859 652 859 652 959 914 c 128,-1,13
 1059 1176 1059 1176 1157 1437 c 1,14,-1
 1349 1437 l 1,15,16
 1206 1080 1206 1080 1061.5 718.5 c 128,-1,17
 917 357 917 357 774 0 c 1,18,-1
 581 0 l 1,0,1
EndSplineSet
EndChar

StartChar: W
Encoding: 87 87 60
Width: 1933
Flags: W
LayerCount: 2
Fore
SplineSet
417 0 m 1,0,1
 319 361 319 361 222 718.5 c 128,-1,2
 125 1076 125 1076 28 1437 c 1,3,-1
 220 1437 l 1,4,-1
 444 494 l 2,5,6
 462 419 462 419 477.5 345.5 c 128,-1,7
 493 272 493 272 506 199 c 1,8,-1
 512 199 l 1,9,10
 567 427 567 427 578 465 c 0,11,12
 648 707 648 707 718.5 951 c 128,-1,13
 789 1195 789 1195 858 1437 c 1,14,-1
 1087 1437 l 1,15,-1
 1297 709 l 2,16,17
 1337 571 1337 571 1365.5 445 c 128,-1,18
 1394 319 1394 319 1412 199 c 1,19,-1
 1418 199 l 1,20,21
 1432 268 1432 268 1450 345.5 c 128,-1,22
 1468 423 1468 423 1491 513 c 0,23,24
 1548 746 1548 746 1606 975 c 128,-1,25
 1664 1204 1664 1204 1721 1437 c 1,26,-1
 1910 1437 l 1,27,28
 1811 1084 1811 1084 1709 718.5 c 128,-1,29
 1607 353 1607 353 1508 0 c 1,30,-1
 1326 0 l 1,31,-1
 1016 1097 l 2,32,33
 996 1165 996 1165 985 1207.5 c 128,-1,34
 974 1250 974 1250 970 1266 c 1,35,-1
 964 1266 l 1,36,37
 953 1217 953 1217 942 1174 c 128,-1,38
 931 1131 931 1131 921 1097 c 0,39,40
 846 827 846 827 766 548.5 c 128,-1,41
 686 270 686 270 609 0 c 1,42,-1
 417 0 l 1,0,1
EndSplineSet
EndChar

StartChar: X
Encoding: 88 88 61
Width: 1366
Flags: W
LayerCount: 2
Fore
SplineSet
12 0 m 1,0,-1
 580 749 l 1,1,2
 455 922 455 922 329.5 1092.5 c 128,-1,3
 204 1263 204 1263 79 1437 c 1,4,-1
 306 1437 l 1,5,6
 371 1347 371 1347 438.5 1252.5 c 128,-1,7
 506 1158 506 1158 572 1068 c 0,8,9
 610 1015 610 1015 641 968 c 128,-1,10
 672 921 672 921 692 886 c 1,11,12
 721 931 721 931 750 973.5 c 128,-1,13
 779 1016 779 1016 810 1056 c 0,14,15
 883 1149 883 1149 958 1246.5 c 128,-1,16
 1033 1344 1033 1344 1105 1437 c 1,17,-1
 1312 1437 l 1,18,-1
 796 760 l 1,19,20
 936 568 936 568 1074 379.5 c 128,-1,21
 1212 191 1212 191 1352 0 c 1,22,-1
 1116 0 l 1,23,24
 1027 123 1027 123 931.5 256 c 128,-1,25
 836 389 836 389 747 513 c 0,26,27
 731 535 731 535 714.5 562 c 128,-1,28
 698 589 698 589 681 615 c 1,29,30
 657 576 657 576 638.5 546.5 c 128,-1,31
 620 517 620 517 609 501 c 0,32,33
 518 378 518 378 424.5 250.5 c 128,-1,34
 331 123 331 123 241 0 c 1,35,-1
 12 0 l 1,0,-1
EndSplineSet
EndChar

StartChar: Y
Encoding: 89 89 62
Width: 1366
Flags: W
LayerCount: 2
Fore
SplineSet
575 0 m 1,0,-1
 575 609 l 1,1,2
 432 815 432 815 292 1022 c 128,-1,3
 152 1229 152 1229 9 1437 c 1,4,-1
 240 1437 l 1,5,6
 311 1331 311 1331 384 1220 c 128,-1,7
 457 1109 457 1109 529 1004 c 1,8,9
 569 942 569 942 607.5 879 c 128,-1,10
 646 816 646 816 681 755 c 1,11,12
 713 811 713 811 755 877.5 c 128,-1,13
 797 944 797 944 844 1014 c 0,14,15
 915 1118 915 1118 986.5 1225.5 c 128,-1,16
 1058 1333 1058 1333 1128 1437 c 1,17,-1
 1349 1437 l 1,18,-1
 763 609 l 1,19,-1
 763 0 l 1,20,-1
 575 0 l 1,0,-1
EndSplineSet
EndChar

StartChar: Z
Encoding: 90 90 63
Width: 1251
Flags: W
LayerCount: 2
Fore
SplineSet
43 0 m 1,0,-1
 43 174 l 1,1,-1
 42 173 l 1,2,-1
 795 1097 l 2,3,4
 835 1147 835 1147 874 1190 c 128,-1,5
 913 1233 913 1233 951 1271 c 1,6,-1
 129 1271 l 1,7,-1
 129 1437 l 1,8,-1
 1175 1437 l 1,9,-1
 1175 1269 l 1,10,-1
 1176 1270 l 1,11,12
 975 1024 975 1024 764 770.5 c 128,-1,13
 553 517 553 517 351 271 c 1,14,-1
 259 166 l 1,15,-1
 1199 166 l 1,16,-1
 1199 0 l 1,17,-1
 43 0 l 1,0,-1
EndSplineSet
EndChar

StartChar: bracketleft
Encoding: 91 91 64
Width: 569
Flags: W
LayerCount: 2
Fore
SplineSet
142 -401 m 1,0,-1
 142 1439 l 1,1,-1
 534 1439 l 1,2,-1
 534 1296 l 1,3,-1
 317 1296 l 1,4,-1
 317 -258 l 1,5,-1
 534 -258 l 1,6,-1
 534 -401 l 1,7,-1
 142 -401 l 1,0,-1
EndSplineSet
Substitution2: "'rtla' Right to Left Alternates lookup 0 subtable" bracketright
EndChar

StartChar: backslash
Encoding: 92 92 65
Width: 569
Flags: W
LayerCount: 2
Fore
SplineSet
429 -25 m 1,0,1
 323 350 323 350 216.5 719.5 c 128,-1,2
 110 1089 110 1089 3 1463 c 1,3,-1
 142 1463 l 1,4,-1
 567 -25 l 1,5,-1
 429 -25 l 1,0,1
EndSplineSet
EndChar

StartChar: bracketright
Encoding: 93 93 66
Width: 569
Flags: W
LayerCount: 2
Fore
SplineSet
434 -401 m 1,0,-1
 42 -401 l 1,1,-1
 42 -258 l 1,2,-1
 260 -258 l 1,3,-1
 260 1296 l 1,4,-1
 42 1296 l 1,5,-1
 42 1439 l 1,6,-1
 434 1439 l 1,7,-1
 434 -401 l 1,0,-1
EndSplineSet
Substitution2: "'rtla' Right to Left Alternates lookup 0 subtable" bracketleft
EndChar

StartChar: asciicircum
Encoding: 94 94 67
Width: 961
Flags: W
LayerCount: 2
Fore
SplineSet
236 679 m 1,0,-1
 57 679 l 1,1,2
 143 870 143 870 234 1071 c 128,-1,3
 325 1272 325 1272 411 1463 c 1,4,-1
 550 1463 l 1,5,6
 639 1266 639 1266 728 1071 c 128,-1,7
 817 876 817 876 906 679 c 1,8,-1
 731 679 l 1,9,-1
 480 1272 l 1,10,-1
 236 679 l 1,0,-1
EndSplineSet
EndChar

StartChar: underscore
Encoding: 95 95 68
Width: 1139
Flags: W
LayerCount: 2
Fore
SplineSet
-29 -401 m 1,0,-1
 -29 -276 l 1,1,-1
 1162 -276 l 1,2,-1
 1162 -401 l 1,3,-1
 -29 -401 l 1,0,-1
EndSplineSet
EndChar

StartChar: grave
Encoding: 96 96 69
Width: 682
Flags: W
LayerCount: 2
Fore
SplineSet
461 1175 m 1,0,-1
 322 1175 l 1,1,2
 263 1243 263 1243 207.5 1310.5 c 128,-1,3
 152 1378 152 1378 94 1447 c 1,4,-1
 328 1447 l 1,5,-1
 461 1175 l 1,0,-1
EndSplineSet
EndChar

StartChar: a
Encoding: 97 97 70
Width: 1139
Flags: W
LayerCount: 2
Fore
SplineSet
828 128 m 1,0,1
 777 86 777 86 729.5 56.5 c 128,-1,2
 682 27 682 27 635 11 c 1,3,4
 542 -24 542 -24 438 -24 c 0,5,6
 263 -24 263 -24 170 59 c 1,7,8
 76 141 76 141 76 273 c 0,9,10
 76 332 76 332 96.5 381 c 128,-1,11
 117 430 117 430 152 468.5 c 128,-1,12
 187 507 187 507 233.5 533 c 128,-1,13
 280 559 280 559 333 571 c 1,14,15
 359 578 359 578 400.5 584.5 c 128,-1,16
 442 591 442 591 493 598 c 0,17,18
 600 611 600 611 683 626 c 128,-1,19
 766 641 766 641 818 661 c 1,20,21
 819 679 819 679 819 691 c 128,-1,22
 819 703 819 703 819 708 c 0,23,24
 819 814 819 814 767 861 c 1,25,26
 732 890 732 890 679 906 c 128,-1,27
 626 922 626 922 559 922 c 0,28,29
 497 922 497 922 448 909.5 c 128,-1,30
 399 897 399 897 368 877 c 1,31,32
 307 834 307 834 278 724 c 1,33,34
 235 730 235 730 193 735 c 128,-1,35
 151 740 151 740 107 746 c 1,36,37
 131 854 131 854 186.5 923 c 128,-1,38
 242 992 242 992 344 1027 c 0,39,40
 449 1064 449 1064 585 1064 c 256,41,42
 721 1064 721 1064 806 1033 c 128,-1,43
 891 1002 891 1002 930 955 c 0,44,45
 949 933 949 933 963.5 900.5 c 128,-1,46
 978 868 978 868 986 835 c 1,47,48
 990 812 990 812 992.5 770 c 128,-1,49
 995 728 995 728 995 672 c 2,50,-1
 995 436 l 2,51,52
 995 312 995 312 998 234.5 c 128,-1,53
 1001 157 1001 157 1006 123 c 0,54,55
 1011 91 1011 91 1022.5 59.5 c 128,-1,56
 1034 28 1034 28 1050 0 c 1,57,-1
 868 0 l 1,58,59
 855 25 855 25 846 59 c 128,-1,60
 837 93 837 93 833 126 c 1,61,-1
 828 128 l 1,0,1
818 526 m 1,62,63
 766 506 766 506 691.5 488.5 c 128,-1,64
 617 471 617 471 520 458 c 1,65,66
 405 441 405 441 361 422 c 0,67,68
 315 403 315 403 288 363 c 1,69,-1
 289 363 l 1,70,71
 263 325 263 325 263 278 c 0,72,73
 263 243 263 243 277 212 c 128,-1,74
 291 181 291 181 318.5 158.5 c 128,-1,75
 346 136 346 136 386.5 123.5 c 128,-1,76
 427 111 427 111 481 111 c 0,77,78
 534 111 534 111 581.5 122.5 c 128,-1,79
 629 134 629 134 668.5 156 c 128,-1,80
 708 178 708 178 739 209 c 128,-1,81
 770 240 770 240 789 279 c 0,82,83
 818 341 818 341 818 458 c 2,84,-1
 818 526 l 1,62,63
EndSplineSet
EndChar

StartChar: b
Encoding: 98 98 71
Width: 1139
Flags: W
LayerCount: 2
Fore
SplineSet
298 0 m 1,0,-1
 136 0 l 1,1,-1
 136 1439 l 1,2,-1
 311 1439 l 1,3,-1
 311 919 l 1,4,5
 429 1064 429 1064 606 1064 c 0,6,7
 705 1064 705 1064 791.5 1026 c 128,-1,8
 878 988 878 988 934 917 c 1,9,10
 991 847 991 847 1023 748.5 c 128,-1,11
 1055 650 1055 650 1055 536 c 0,12,13
 1055 267 1055 267 920 122 c 0,14,15
 784 -24 784 -24 597 -24 c 0,16,17
 503 -24 503 -24 428.5 16 c 128,-1,18
 354 56 354 56 298 137 c 1,19,-1
 298 0 l 1,0,-1
296 528 m 0,20,21
 296 341 296 341 348 256 c 1,22,23
 392 188 392 188 450.5 153 c 128,-1,24
 509 118 509 118 582 118 c 0,25,26
 703 118 703 118 789 220 c 0,27,28
 876 322 876 322 876 521 c 0,29,30
 876 725 876 725 792 824 c 0,31,32
 709 923 709 923 590 923 c 256,33,34
 471 923 471 923 383 820 c 0,35,36
 296 718 296 718 296 528 c 0,20,21
EndSplineSet
EndChar

StartChar: c
Encoding: 99 99 72
Width: 1024
Flags: W
LayerCount: 2
Fore
SplineSet
1005 356 m 1,0,1
 977 179 977 179 856 77 c 1,2,3
 738 -24 738 -24 564 -24 c 0,4,5
 346 -24 346 -24 214 115 c 256,6,7
 82 254 82 254 82 517 c 0,8,9
 82 601 82 601 96 675.5 c 128,-1,10
 110 750 110 750 138.5 812 c 128,-1,11
 167 874 167 874 210 921.5 c 128,-1,12
 253 969 253 969 311 1001 c 0,13,14
 429 1064 429 1064 565 1064 c 0,15,16
 650 1064 650 1064 720.5 1042 c 128,-1,17
 791 1020 791 1020 845 978 c 128,-1,18
 899 936 899 936 935.5 875 c 128,-1,19
 972 814 972 814 988 737 c 1,20,21
 944 730 944 730 902 724.5 c 128,-1,22
 860 719 860 719 817 713 c 1,23,24
 791 816 791 816 727.5 869.5 c 128,-1,25
 664 923 664 923 572 923 c 0,26,27
 503 923 503 923 448 898.5 c 128,-1,28
 393 874 393 874 348 825 c 0,29,30
 262 729 262 729 262 521 c 0,31,32
 262 311 262 311 345 215 c 0,33,34
 429 118 429 118 562 118 c 0,35,36
 670 118 670 118 742 182 c 128,-1,37
 814 246 814 246 833 378 c 1,38,-1
 1005 356 l 1,0,1
EndSplineSet
EndChar

StartChar: d
Encoding: 100 100 73
Width: 1139
Flags: W
LayerCount: 2
Fore
SplineSet
829 0 m 1,0,-1
 829 140 l 1,1,2
 724 -24 724 -24 528 -24 c 0,3,4
 401 -24 401 -24 295 45 c 0,5,6
 191 112 191 112 130 236 c 1,7,8
 72 359 72 359 72 519 c 0,9,10
 72 674 72 674 125 802 c 1,11,12
 180 929 180 929 284 997 c 1,13,14
 390 1064 390 1064 520 1064 c 0,15,16
 616 1064 616 1064 692 1023 c 128,-1,17
 768 982 768 982 817 915 c 1,18,-1
 817 1439 l 1,19,-1
 991 1439 l 1,20,-1
 991 0 l 1,21,-1
 829 0 l 1,0,-1
252 519 m 0,22,23
 252 319 252 319 339 219 c 0,24,25
 427 118 427 118 545 118 c 0,26,27
 665 118 665 118 748 214 c 0,28,29
 832 311 832 311 832 505 c 0,30,31
 832 719 832 719 747 820 c 0,32,33
 661 922 661 922 537 922 c 0,34,35
 416 922 416 922 333 824 c 0,36,37
 252 727 252 727 252 519 c 0,22,23
EndSplineSet
EndChar

StartChar: e
Encoding: 101 101 74
Width: 1139
Flags: W
LayerCount: 2
Fore
SplineSet
1047 310 m 1,0,1
 1002 150 1002 150 884.5 63 c 128,-1,2
 767 -24 767 -24 582 -24 c 0,3,4
 349 -24 349 -24 213 116 c 256,5,6
 77 256 77 256 77 512 c 0,7,8
 77 646 77 646 111.5 746.5 c 128,-1,9
 146 847 146 847 215 920 c 0,10,11
 351 1064 351 1064 572 1064 c 0,12,13
 785 1064 785 1064 919 923 c 0,14,15
 1054 780 1054 780 1054 522 c 0,16,17
 1054 515 1054 515 1054 504 c 128,-1,18
 1054 493 1054 493 1053 477 c 1,19,-1
 258 477 l 1,20,21
 268 303 268 303 358 211 c 0,22,23
 448 118 448 118 583 118 c 0,24,25
 683 118 683 118 754 170 c 128,-1,26
 825 222 825 222 867 332 c 1,27,-1
 1047 310 l 1,0,1
869 618 m 1,28,29
 857 752 857 752 800 819 c 0,30,31
 712 923 712 923 574 923 c 0,32,33
 511 923 511 923 459 902 c 128,-1,34
 407 881 407 881 362 840 c 0,35,36
 277 760 277 760 268 618 c 1,37,-1
 869 618 l 1,28,29
EndSplineSet
EndChar

StartChar: f
Encoding: 102 102 75
Width: 569
Flags: W
LayerCount: 2
Fore
SplineSet
181 0 m 1,0,-1
 181 907 l 1,1,-1
 21 907 l 1,2,-1
 21 1041 l 1,3,-1
 181 1041 l 1,4,-1
 181 1154 l 2,5,6
 181 1256 181 1256 200 1309 c 1,7,8
 213 1342 213 1342 236.5 1370 c 128,-1,9
 260 1398 260 1398 293.5 1419 c 128,-1,10
 327 1440 327 1440 371.5 1451.5 c 128,-1,11
 416 1463 416 1463 473 1463 c 0,12,13
 511 1463 511 1463 552 1459 c 128,-1,14
 593 1455 593 1455 639 1447 c 1,15,16
 632 1408 632 1408 626 1370.5 c 128,-1,17
 620 1333 620 1333 613 1296 c 1,18,19
 587 1301 587 1301 559.5 1303 c 128,-1,20
 532 1305 532 1305 508 1305 c 0,21,22
 426 1305 426 1305 390 1269 c 0,23,24
 355 1235 355 1235 355 1139 c 2,25,-1
 355 1041 l 1,26,-1
 562 1041 l 1,27,-1
 562 907 l 1,28,-1
 355 907 l 1,29,-1
 355 0 l 1,30,-1
 181 0 l 1,0,-1
EndSplineSet
EndChar

StartChar: g
Encoding: 103 103 76
Width: 1139
Flags: W
LayerCount: 2
Fore
SplineSet
274 -116 m 1,0,1
 284 -195 284 -195 336 -232 c 0,2,3
 404 -281 404 -281 522 -281 c 0,4,5
 649 -281 649 -281 718 -232 c 128,-1,6
 787 -183 787 -183 811 -93 c 0,7,8
 817 -68 817 -68 820.5 -19 c 128,-1,9
 824 30 824 30 824 106 c 2,10,-1
 824 142 l 1,11,12
 701 0 701 0 526 0 c 0,13,14
 308 0 308 0 188 155 c 1,15,16
 68 308 68 308 68 526 c 0,17,18
 68 600 68 600 81.5 669 c 128,-1,19
 95 738 95 738 123 801 c 0,20,21
 181 928 181 928 282 996 c 1,22,23
 334 1029 334 1029 396 1046.5 c 128,-1,24
 458 1064 458 1064 527 1064 c 0,25,26
 715 1064 715 1064 841 910 c 1,27,-1
 841 1041 l 1,28,-1
 1002 1041 l 1,29,-1
 1002 140 l 2,30,31
 1002 -104 1002 -104 951 -205 c 0,32,33
 899 -307 899 -307 792 -365 c 0,34,35
 683 -424 683 -424 523 -424 c 0,36,37
 334 -424 334 -424 217 -339 c 0,38,39
 159 -297 159 -297 130.5 -235.5 c 128,-1,40
 102 -174 102 -174 104 -90 c 1,41,-1
 274 -116 l 1,0,1
248 539 m 0,42,43
 248 333 248 333 332 238 c 0,44,45
 374 190 374 190 427 166.5 c 128,-1,46
 480 143 480 143 543 143 c 0,47,48
 670 143 670 143 754 237 c 0,49,50
 839 332 839 332 839 533 c 0,51,52
 839 628 839 628 816 700.5 c 128,-1,53
 793 773 793 773 751 823 c 1,54,55
 708 871 708 871 654.5 896.5 c 128,-1,56
 601 922 601 922 540 922 c 0,57,58
 419 922 419 922 333 824 c 0,59,60
 248 728 248 728 248 539 c 0,42,43
EndSplineSet
EndChar

StartChar: h
Encoding: 104 104 77
Width: 1139
Flags: W
LayerCount: 2
Fore
SplineSet
137 0 m 1,0,-1
 137 1439 l 1,1,-1
 312 1439 l 1,2,-1
 312 916 l 1,3,4
 443 1064 443 1064 634 1064 c 0,5,6
 752 1064 752 1064 838 1018.5 c 128,-1,7
 924 973 924 973 962 893 c 0,8,9
 1000 811 1000 811 1000 661 c 2,10,-1
 1000 0 l 1,11,-1
 825 0 l 1,12,-1
 825 661 l 2,13,14
 825 794 825 794 765.5 855 c 128,-1,15
 706 916 706 916 597 916 c 0,16,17
 516 916 516 916 444 874 c 1,18,-1
 445 874 l 1,19,20
 372 834 372 834 342 763 c 0,21,22
 312 694 312 694 312 569 c 2,23,-1
 312 0 l 1,24,-1
 137 0 l 1,0,-1
EndSplineSet
EndChar

StartChar: i
Encoding: 105 105 78
Width: 455
Flags: W
LayerCount: 2
Fore
SplineSet
139 1239 m 1,0,-1
 139 1439 l 1,1,-1
 314 1439 l 1,2,-1
 314 1239 l 1,3,-1
 139 1239 l 1,0,-1
139 0 m 1,4,-1
 139 1041 l 1,5,-1
 314 1041 l 1,6,-1
 314 0 l 1,7,-1
 139 0 l 1,4,-1
EndSplineSet
EndChar

StartChar: j
Encoding: 106 106 79
Width: 455
Flags: W
LayerCount: 2
Fore
SplineSet
137 1237 m 1,0,-1
 137 1439 l 1,1,-1
 312 1439 l 1,2,-1
 312 1237 l 1,3,-1
 137 1237 l 1,0,-1
-58 -260 m 1,4,5
 -33 -266 -33 -266 -12 -269 c 128,-1,6
 9 -272 9 -272 25 -272 c 0,7,8
 82 -272 82 -272 109 -235 c 0,9,10
 137 -196 137 -196 137 -55 c 2,11,-1
 137 1041 l 1,12,-1
 312 1041 l 1,13,-1
 312 -59 l 2,14,15
 312 -252 312 -252 261 -326 c 1,16,17
 197 -424 197 -424 47 -424 c 0,18,19
 12 -424 12 -424 -23 -420.5 c 128,-1,20
 -58 -417 -58 -417 -92 -407 c 1,21,-1
 -58 -260 l 1,4,5
EndSplineSet
EndChar

StartChar: k
Encoding: 107 107 80
Width: 1024
Flags: W
LayerCount: 2
Fore
SplineSet
138 0 m 1,0,-1
 138 1439 l 1,1,-1
 313 1439 l 1,2,-1
 313 612 l 1,3,4
 418 715 418 715 528.5 825.5 c 128,-1,5
 639 936 639 936 745 1041 c 1,6,-1
 973 1041 l 1,7,-1
 567 656 l 1,8,9
 680 491 680 491 791 328 c 128,-1,10
 902 165 902 165 1015 0 c 1,11,-1
 798 0 l 1,12,-1
 445 536 l 1,13,-1
 313 413 l 1,14,-1
 313 0 l 1,15,-1
 138 0 l 1,0,-1
EndSplineSet
EndChar

StartChar: l
Encoding: 108 108 81
Width: 455
Flags: W
LayerCount: 2
Fore
SplineSet
134 0 m 1,0,-1
 134 1439 l 1,1,-1
 309 1439 l 1,2,-1
 309 0 l 1,3,-1
 134 0 l 1,0,-1
EndSplineSet
EndChar

StartChar: m
Encoding: 109 109 82
Width: 1706
Flags: W
LayerCount: 2
Fore
SplineSet
137 0 m 1,0,-1
 137 1041 l 1,1,-1
 292 1041 l 1,2,-1
 292 886 l 1,3,4
 346 967 346 967 429.5 1015.5 c 128,-1,5
 513 1064 513 1064 619 1064 c 0,6,7
 736 1064 736 1064 811.5 1015 c 128,-1,8
 887 966 887 966 919 877 c 1,9,10
 1047 1064 1047 1064 1249 1064 c 0,11,12
 1407 1064 1407 1064 1491 979.5 c 128,-1,13
 1575 895 1575 895 1575 715 c 2,14,-1
 1575 0 l 1,15,-1
 1402 0 l 1,16,-1
 1402 657 l 2,17,18
 1402 763 1402 763 1384 810 c 0,19,20
 1367 856 1367 856 1319 886 c 0,21,22
 1296 900 1296 900 1268.5 907.5 c 128,-1,23
 1241 915 1241 915 1209 915 c 0,24,25
 1094 915 1094 915 1020 840 c 1,26,27
 945 766 945 766 945 605 c 2,28,-1
 945 0 l 1,29,-1
 770 0 l 1,30,-1
 770 677 l 2,31,32
 770 796 770 796 725.5 855.5 c 128,-1,33
 681 915 681 915 579 915 c 0,34,35
 500 915 500 915 435 875 c 0,36,37
 369 835 369 835 341 760 c 0,38,39
 312 683 312 683 312 540 c 2,40,-1
 312 0 l 1,41,-1
 137 0 l 1,0,-1
EndSplineSet
EndChar

StartChar: n
Encoding: 110 110 83
Width: 1139
Flags: W
LayerCount: 2
Fore
SplineSet
137 0 m 1,0,-1
 137 1041 l 1,1,-1
 294 1041 l 1,2,-1
 294 885 l 1,3,4
 415 1064 415 1064 636 1064 c 0,5,6
 731 1064 731 1064 812 1030 c 0,7,8
 892 997 892 997 932 943 c 0,9,10
 951 917 951 917 965.5 882 c 128,-1,11
 980 847 980 847 988 813 c 0,12,13
 993 788 993 788 995.5 745 c 128,-1,14
 998 702 998 702 998 640 c 2,15,-1
 998 0 l 1,16,-1
 823 0 l 1,17,-1
 823 633 l 2,18,19
 823 686 823 686 817.5 727.5 c 128,-1,20
 812 769 812 769 802 796 c 1,21,22
 791 821 791 821 771.5 843.5 c 128,-1,23
 752 866 752 866 726 882 c 256,24,25
 700 898 700 898 667 906.5 c 128,-1,26
 634 915 634 915 598 915 c 0,27,28
 483 915 483 915 396 842 c 1,29,30
 312 768 312 768 312 568 c 2,31,-1
 312 0 l 1,32,-1
 137 0 l 1,0,-1
EndSplineSet
EndChar

StartChar: o
Encoding: 111 111 84
Width: 1139
Flags: W
LayerCount: 2
Fore
SplineSet
70 520 m 0,0,1
 70 663 70 663 113 770.5 c 128,-1,2
 156 878 156 878 234 949 c 1,3,4
 302 1005 302 1005 386.5 1034.5 c 128,-1,5
 471 1064 471 1064 567 1064 c 0,6,7
 784 1064 784 1064 924 924 c 0,8,9
 1063 785 1063 785 1063 535 c 0,10,11
 1063 335 1063 335 1001 219 c 0,12,13
 939 101 939 101 823 40 c 1,14,15
 705 -24 705 -24 567 -24 c 0,16,17
 346 -24 346 -24 207 116 c 1,18,19
 70 256 70 256 70 520 c 0,0,1
567 118 m 0,20,21
 704 118 704 118 793 220 c 1,22,23
 883 320 883 320 883 526 c 0,24,25
 883 621 883 621 859 695.5 c 128,-1,26
 835 770 835 770 792 820 c 1,27,28
 747 870 747 870 690.5 896 c 128,-1,29
 634 922 634 922 567 922 c 0,30,31
 431 922 431 922 340 821 c 0,32,33
 250 721 250 721 250 520 c 0,34,35
 250 320 250 320 340 219 c 0,36,37
 431 118 431 118 567 118 c 0,20,21
EndSplineSet
EndChar

StartChar: p
Encoding: 112 112 85
Width: 1139
Flags: W
LayerCount: 2
Fore
SplineSet
137 -401 m 1,0,-1
 137 1041 l 1,1,-1
 296 1041 l 1,2,-1
 296 899 l 1,3,4
 356 982 356 982 430 1023 c 128,-1,5
 504 1064 504 1064 608 1064 c 0,6,7
 675 1064 675 1064 735 1046 c 128,-1,8
 795 1028 795 1028 845.5 994 c 128,-1,9
 896 960 896 960 936.5 911.5 c 128,-1,10
 977 863 977 863 1004 802 c 1,11,12
 1030 740 1030 740 1043.5 671 c 128,-1,13
 1057 602 1057 602 1057 528 c 0,14,15
 1057 369 1057 369 998 240 c 1,16,17
 937 112 937 112 828 44 c 1,18,19
 717 -24 717 -24 595 -24 c 0,20,21
 505 -24 505 -24 432.5 15 c 128,-1,22
 360 54 360 54 312 113 c 1,23,-1
 312 -401 l 1,24,-1
 137 -401 l 1,0,-1
583 118 m 0,25,26
 703 118 703 118 791 219 c 0,27,28
 878 320 878 320 878 529 c 0,29,30
 878 730 878 730 793 829 c 1,31,32
 708 930 708 930 591 930 c 0,33,34
 533 930 533 930 481 902.5 c 128,-1,35
 429 875 429 875 384 822 c 1,36,37
 341 769 341 769 318 691.5 c 128,-1,38
 295 614 295 614 295 515 c 0,39,40
 295 313 295 313 379 216 c 0,41,42
 465 118 465 118 583 118 c 0,25,26
EndSplineSet
EndChar

StartChar: q
Encoding: 113 113 86
Width: 1139
Flags: W
LayerCount: 2
Fore
SplineSet
817 -401 m 1,0,-1
 817 117 l 1,1,2
 769 52 769 52 695 15 c 0,3,4
 618 -24 618 -24 535 -24 c 0,5,6
 345 -24 345 -24 210 123 c 0,7,8
 74 271 74 271 74 530 c 0,9,10
 74 688 74 688 129 812 c 1,11,12
 187 938 187 938 290 1000 c 0,13,14
 395 1064 395 1064 521 1064 c 0,15,16
 619 1064 619 1064 697.5 1022.5 c 128,-1,17
 776 981 776 981 835 895 c 1,18,-1
 835 1041 l 1,19,-1
 992 1041 l 1,20,-1
 992 -401 l 1,21,-1
 817 -401 l 1,0,-1
254 523 m 0,22,23
 254 322 254 322 341 220 c 0,24,25
 427 118 427 118 550 118 c 0,26,27
 667 118 667 118 751 215 c 256,28,29
 835 312 835 312 835 508 c 0,30,31
 835 609 835 609 812 689 c 128,-1,32
 789 769 789 769 746 822 c 1,33,34
 702 874 702 874 650 901.5 c 128,-1,35
 598 929 598 929 538 929 c 0,36,37
 420 929 420 929 336 829 c 0,38,39
 254 731 254 731 254 523 c 0,22,23
EndSplineSet
EndChar

StartChar: r
Encoding: 114 114 87
Width: 682
Flags: W
LayerCount: 2
Fore
SplineSet
136 0 m 1,0,-1
 136 1041 l 1,1,-1
 292 1041 l 1,2,-1
 292 883 l 1,3,-1
 297 882 l 1,4,5
 358 993 358 993 412 1029 c 0,6,7
 464 1064 464 1064 526 1064 c 0,8,9
 571 1064 571 1064 615.5 1050.5 c 128,-1,10
 660 1037 660 1037 708 1009 c 1,11,-1
 648 849 l 1,12,13
 616 865 616 865 582.5 875 c 128,-1,14
 549 885 549 885 517 885 c 0,15,16
 456 885 456 885 408.5 850 c 128,-1,17
 361 815 361 815 340 753 c 1,18,19
 310 659 310 659 310 545 c 2,20,-1
 310 0 l 1,21,-1
 136 0 l 1,0,-1
EndSplineSet
EndChar

StartChar: s
Encoding: 115 115 88
Width: 1024
Flags: W
LayerCount: 2
Fore
SplineSet
238 335 m 1,0,1
 253 229 253 229 322.5 173.5 c 128,-1,2
 392 118 392 118 517 118 c 256,3,4
 642 118 642 118 704 168 c 1,5,6
 765 219 765 219 765 286 c 0,7,8
 765 348 765 348 711 382 c 0,9,10
 692 395 692 395 646 409.5 c 128,-1,11
 600 424 600 424 525 443 c 0,12,13
 326 492 326 492 249 527 c 0,14,15
 213 544 213 544 184 569.5 c 128,-1,16
 155 595 155 595 135 625 c 1,17,18
 95 690 95 690 95 765 c 0,19,20
 95 835 95 835 127.5 894 c 128,-1,21
 160 953 160 953 216 992 c 0,22,23
 237 1007 237 1007 266 1020 c 128,-1,24
 295 1033 295 1033 330 1043 c 128,-1,25
 365 1053 365 1053 404 1058.5 c 128,-1,26
 443 1064 443 1064 485 1064 c 0,27,28
 611 1064 611 1064 704.5 1029.5 c 128,-1,29
 798 995 798 995 843 934 c 0,30,31
 863 907 863 907 879 862.5 c 128,-1,32
 895 818 895 818 904 774 c 1,33,34
 861 768 861 768 819 763.5 c 128,-1,35
 777 759 777 759 734 753 c 1,36,37
 721 833 721 833 662.5 878 c 128,-1,38
 604 923 604 923 498 923 c 0,39,40
 372 923 372 923 318 882 c 256,41,42
 264 841 264 841 264 786 c 0,43,44
 264 752 264 752 287 723 c 0,45,46
 310 695 310 695 357 675 c 0,47,48
 371 670 371 670 411 659 c 128,-1,49
 451 648 451 648 517 629 c 1,50,51
 613 604 613 604 679.5 584 c 128,-1,52
 746 564 746 564 784 547 c 0,53,54
 822 531 822 531 851 508.5 c 128,-1,55
 880 486 880 486 902 456 c 0,56,57
 945 398 945 398 945 305 c 0,58,59
 945 217 945 217 891 139 c 1,60,61
 838 59 838 59 742 19 c 1,62,63
 692 -3 692 -3 636 -13.5 c 128,-1,64
 580 -24 580 -24 518 -24 c 0,65,66
 311 -24 311 -24 203 59.5 c 128,-1,67
 95 143 95 143 65 308 c 1,68,-1
 238 335 l 1,0,1
EndSplineSet
EndChar

StartChar: t
Encoding: 116 116 89
Width: 569
Flags: W
LayerCount: 2
Fore
SplineSet
553 1 m 1,0,1
 515 -7 515 -7 481.5 -10.5 c 128,-1,2
 448 -14 448 -14 419 -14 c 0,3,4
 322 -14 322 -14 268.5 15.5 c 128,-1,5
 215 45 215 45 193 95 c 0,6,7
 171 144 171 144 171 304 c 2,8,-1
 171 907 l 1,9,-1
 39 907 l 1,10,-1
 39 1041 l 1,11,-1
 171 1041 l 1,12,-1
 171 1301 l 1,13,14
 213 1326 213 1326 258 1351 c 128,-1,15
 303 1376 303 1376 345 1402 c 1,16,-1
 345 1041 l 1,17,-1
 526 1041 l 1,18,-1
 526 907 l 1,19,-1
 345 907 l 1,20,-1
 345 294 l 2,21,22
 345 218 345 218 354 196 c 1,23,24
 365 173 365 173 386 161 c 0,25,26
 408 148 408 148 450 148 c 0,27,28
 465 148 465 148 483.5 149.5 c 128,-1,29
 502 151 502 151 526 155 c 1,30,-1
 553 1 l 1,0,1
EndSplineSet
EndChar

StartChar: u
Encoding: 117 117 90
Width: 1139
Flags: W
LayerCount: 2
Fore
SplineSet
836 0 m 1,0,-1
 836 160 l 1,1,2
 707 -24 707 -24 495 -24 c 0,3,4
 450 -24 450 -24 405 -14.5 c 128,-1,5
 360 -5 360 -5 319 12 c 0,6,7
 281 28 281 28 250 51 c 128,-1,8
 219 74 219 74 199 99 c 1,9,10
 182 124 182 124 167.5 159 c 128,-1,11
 153 194 153 194 144 230 c 1,12,13
 133 284 133 284 133 396 c 2,14,-1
 133 1041 l 1,15,-1
 308 1041 l 1,16,-1
 308 464 l 2,17,18
 308 393 308 393 311 347 c 128,-1,19
 314 301 314 301 319 276 c 1,20,21
 336 206 336 206 392 165 c 128,-1,22
 448 124 448 124 531 124 c 0,23,24
 573 124 573 124 611 135 c 128,-1,25
 649 146 649 146 685 166 c 1,26,27
 720 187 720 187 746.5 215 c 128,-1,28
 773 243 773 243 787 277 c 0,29,30
 801 313 801 313 809 365 c 128,-1,31
 817 417 817 417 817 483 c 2,32,-1
 817 1041 l 1,33,-1
 992 1041 l 1,34,-1
 992 0 l 1,35,-1
 836 0 l 1,0,-1
EndSplineSet
EndChar

StartChar: v
Encoding: 118 118 91
Width: 1024
Flags: W
LayerCount: 2
Fore
SplineSet
434 0 m 1,0,-1
 29 1041 l 1,1,-1
 213 1041 l 1,2,-1
 442 417 l 2,3,4
 461 365 461 365 479 307.5 c 128,-1,5
 497 250 497 250 513 195 c 1,6,7
 525 236 525 236 543 291 c 128,-1,8
 561 346 561 346 583 405 c 0,9,10
 611 480 611 480 641 560.5 c 128,-1,11
 671 641 671 641 701.5 722.5 c 128,-1,12
 732 804 732 804 762 884.5 c 128,-1,13
 792 965 792 965 820 1041 c 1,14,-1
 999 1041 l 1,15,16
 899 781 899 781 797.5 520.5 c 128,-1,17
 696 260 696 260 596 0 c 1,18,-1
 434 0 l 1,0,-1
EndSplineSet
EndChar

StartChar: w
Encoding: 119 119 92
Width: 1479
Flags: W
LayerCount: 2
Fore
SplineSet
334 0 m 1,0,1
 252 262 252 262 171 520.5 c 128,-1,2
 90 779 90 779 9 1041 c 1,3,-1
 188 1041 l 1,4,5
 230 893 230 893 273 739.5 c 128,-1,6
 316 586 316 586 358 439 c 2,7,-1
 421 214 l 1,8,-1
 427 215 l 1,9,10
 428 219 428 219 432.5 235.5 c 128,-1,11
 437 252 437 252 443 277 c 2,12,-1
 482 431 l 1,13,-1
 482 430 l 1,14,15
 524 581 524 581 567 735 c 128,-1,16
 610 889 610 889 652 1041 c 1,17,-1
 832 1041 l 1,18,-1
 991 436 l 1,19,-1
 991 437 l 1,20,-1
 1048 226 l 1,21,-1
 1112 438 l 2,22,23
 1156 585 1156 585 1202.5 739 c 128,-1,24
 1249 893 1249 893 1294 1041 c 1,25,-1
 1463 1041 l 1,26,27
 1381 781 1381 781 1297 520.5 c 128,-1,28
 1213 260 1213 260 1131 0 c 1,29,-1
 949 0 l 1,30,31
 907 158 907 158 864.5 313 c 128,-1,32
 822 468 822 468 780 624 c 1,33,-1
 780 623 l 1,34,-1
 738 803 l 1,35,-1
 732 804 l 1,36,37
 679 604 679 604 624.5 402 c 128,-1,38
 570 200 570 200 517 0 c 1,39,-1
 334 0 l 1,0,1
EndSplineSet
EndChar

StartChar: x
Encoding: 120 120 93
Width: 1024
Flags: W
LayerCount: 2
Fore
SplineSet
18 0 m 1,0,-1
 407 541 l 1,1,-1
 47 1041 l 1,2,-1
 267 1041 l 1,3,-1
 430 797 l 2,4,5
 453 763 453 763 473 731 c 128,-1,6
 493 699 493 699 507 675 c 1,7,8
 529 708 529 708 550 738.5 c 128,-1,9
 571 769 571 769 590 795 c 0,10,11
 634 856 634 856 679.5 918 c 128,-1,12
 725 980 725 980 769 1041 c 1,13,-1
 980 1041 l 1,14,-1
 612 551 l 1,15,16
 712 413 712 413 810 275.5 c 128,-1,17
 908 138 908 138 1008 0 c 1,18,-1
 792 0 l 1,19,-1
 574 323 l 1,20,-1
 514 416 l 1,21,22
 445 314 445 314 373 208 c 128,-1,23
 301 102 301 102 232 0 c 1,24,-1
 18 0 l 1,0,-1
EndSplineSet
EndChar

StartChar: y
Encoding: 121 121 94
Width: 1024
Flags: W
LayerCount: 2
Fore
SplineSet
109 -241 m 1,0,1
 166 -256 166 -256 210 -256 c 0,2,3
 272 -256 272 -256 308 -236.5 c 128,-1,4
 344 -217 344 -217 368 -180 c 0,5,6
 376 -167 376 -167 390.5 -134 c 128,-1,7
 405 -101 405 -101 424 -48 c 0,8,9
 426 -43 426 -43 428.5 -36 c 128,-1,10
 431 -29 431 -29 434 -22 c 0,11,12
 436 -18 436 -18 437 -13.5 c 128,-1,13
 438 -9 438 -9 440 -4 c 1,14,15
 338 258 338 258 238 518.5 c 128,-1,16
 138 779 138 779 36 1041 c 1,17,-1
 224 1041 l 1,18,-1
 446 437 l 2,19,20
 467 380 467 380 486 319.5 c 128,-1,21
 505 259 505 259 523 194 c 1,22,-1
 529 195 l 1,23,24
 545 257 545 257 563 315.5 c 128,-1,25
 581 374 581 374 603 433 c 0,26,27
 659 582 659 582 717.5 737 c 128,-1,28
 776 892 776 892 831 1041 c 1,29,-1
 1005 1041 l 1,30,-1
 600 -19 l 1,31,32
 568 -106 568 -106 542.5 -164.5 c 128,-1,33
 517 -223 517 -223 499 -256 c 0,34,35
 451 -343 451 -343 390 -383.5 c 128,-1,36
 329 -424 329 -424 243 -424 c 0,37,38
 217 -424 217 -424 189.5 -419.5 c 128,-1,39
 162 -415 162 -415 130 -404 c 1,40,-1
 109 -241 l 1,0,1
EndSplineSet
EndChar

StartChar: z
Encoding: 122 122 95
Width: 1024
Flags: W
LayerCount: 2
Fore
SplineSet
42 0 m 1,0,-1
 42 142 l 1,1,-1
 41 141 l 1,2,-1
 723 907 l 1,3,4
 664 904 664 904 611.5 902.5 c 128,-1,5
 559 901 559 901 514 901 c 2,6,-1
 82 901 l 1,7,-1
 82 1041 l 1,8,-1
 948 1041 l 1,9,-1
 948 926 l 1,10,-1
 949 927 l 1,11,12
 806 763 806 763 660 595.5 c 128,-1,13
 514 428 514 428 371 264 c 1,14,-1
 257 140 l 1,15,16
 318 145 318 145 377 147 c 128,-1,17
 436 149 436 149 490 149 c 2,18,-1
 980 149 l 1,19,-1
 980 0 l 1,20,-1
 42 0 l 1,0,-1
EndSplineSet
EndChar

StartChar: braceleft
Encoding: 123 123 96
Width: 673
Flags: W
LayerCount: 2
Fore
SplineSet
142 780 m 1,0,1
 217 783 217 783 264.5 822.5 c 128,-1,2
 312 862 312 862 329 927 c 0,3,4
 337 961 337 961 341.5 1019 c 128,-1,5
 346 1077 346 1077 346 1156 c 0,6,7
 347 1235 347 1235 348.5 1289 c 128,-1,8
 350 1343 350 1343 352 1369 c 1,9,10
 359 1427 359 1427 374.5 1469 c 128,-1,11
 390 1511 390 1511 413 1541.5 c 128,-1,12
 436 1572 436 1572 466 1591 c 128,-1,13
 496 1610 496 1610 534 1623 c 1,14,15
 553 1627 553 1627 584.5 1629.5 c 128,-1,16
 616 1632 616 1632 655 1633 c 1,17,-1
 708 1633 l 1,18,-1
 708 1485 l 1,19,-1
 682 1485 l 2,20,21
 578 1485 578 1485 542 1447 c 1,22,23
 507 1408 507 1408 507 1283 c 0,24,25
 507 1156 507 1156 504.5 1076.5 c 128,-1,26
 502 997 502 997 497 962 c 1,27,28
 488 913 488 913 472.5 871 c 128,-1,29
 457 829 457 829 437 803 c 0,30,31
 416 776 416 776 381 750 c 128,-1,32
 346 724 346 724 298 703 c 1,33,34
 408 658 408 658 458 565 c 0,35,36
 507 474 507 474 507 267 c 0,37,38
 507 174 507 174 508 117.5 c 128,-1,39
 509 61 509 61 511 40 c 0,40,41
 519 -27 519 -27 551 -53 c 0,42,43
 584 -79 584 -79 682 -79 c 2,44,-1
 708 -79 l 1,45,-1
 708 -228 l 1,46,-1
 655 -228 l 2,47,48
 557 -228 557 -228 515 -213 c 0,49,50
 453 -190 453 -190 413 -140 c 128,-1,51
 373 -90 373 -90 359 -16 c 1,52,53
 353 23 353 23 350 85.5 c 128,-1,54
 347 148 347 148 346 235 c 1,55,56
 346 409 346 409 329 477 c 0,57,58
 312 544 312 544 264 584 c 0,59,60
 241 603 241 603 210.5 613.5 c 128,-1,61
 180 624 180 624 142 625 c 1,62,-1
 142 780 l 1,0,1
EndSplineSet
Substitution2: "'rtla' Right to Left Alternates lookup 0 subtable" braceright
EndChar

StartChar: bar
Encoding: 124 124 97
Width: 522
Flags: W
LayerCount: 2
Fore
SplineSet
188 -419 m 1,0,-1
 188 1444 l 1,1,-1
 338 1444 l 1,2,-1
 338 -419 l 1,3,-1
 188 -419 l 1,0,-1
EndSplineSet
EndChar

StartChar: braceright
Encoding: 125 125 98
Width: 747
Flags: W
LayerCount: 2
Fore
SplineSet
728 625 m 1,0,1
 654 622 654 622 605.5 582 c 128,-1,2
 557 542 557 542 540 477 c 0,3,4
 532 444 532 444 528 383 c 128,-1,5
 524 322 524 322 523 235 c 1,6,7
 523 147 523 147 520 85 c 128,-1,8
 517 23 517 23 510 -16 c 0,9,10
 498 -91 498 -91 458 -141 c 256,11,12
 418 -191 418 -191 354 -213 c 0,13,14
 312 -228 312 -228 215 -228 c 2,15,-1
 162 -228 l 1,16,-1
 162 -79 l 1,17,-1
 188 -79 l 2,18,19
 282 -79 282 -79 317 -53 c 1,20,21
 350 -26 350 -26 359 40 c 0,22,23
 361 61 361 61 362 117.5 c 128,-1,24
 363 174 363 174 363 267 c 0,25,26
 363 474 363 474 412 565 c 0,27,28
 461 657 461 657 571 703 c 1,29,30
 523 725 523 725 489 750 c 128,-1,31
 455 775 455 775 433 803 c 0,32,33
 413 829 413 829 397.5 870 c 128,-1,34
 382 911 382 911 373 962 c 1,35,36
 368 997 368 997 365.5 1076.5 c 128,-1,37
 363 1156 363 1156 363 1283 c 0,38,39
 363 1406 363 1406 327 1447 c 1,40,41
 291 1485 291 1485 188 1485 c 2,42,-1
 162 1485 l 1,43,-1
 162 1633 l 1,44,-1
 215 1633 l 1,45,46
 256 1632 256 1632 286 1630 c 128,-1,47
 316 1628 316 1628 335 1623 c 0,48,49
 373 1611 373 1611 404 1592 c 128,-1,50
 435 1573 435 1573 458 1543.5 c 128,-1,51
 481 1514 481 1514 496 1471.5 c 128,-1,52
 511 1429 511 1429 518 1369 c 0,53,54
 520 1344 520 1344 521.5 1291 c 128,-1,55
 523 1238 523 1238 523 1156 c 1,56,57
 524 1077 524 1077 528 1019 c 128,-1,58
 532 961 532 961 540 927 c 0,59,60
 557 862 557 862 605 822.5 c 128,-1,61
 653 783 653 783 728 780 c 1,62,-1
 728 625 l 1,0,1
EndSplineSet
Substitution2: "'rtla' Right to Left Alternates lookup 0 subtable" braceleft
EndChar

StartChar: asciitilde
Encoding: 126 126 99
Width: 1178
Flags: W
LayerCount: 2
Fore
SplineSet
88 736 m 1,0,-1
 87 735 l 1,1,2
 191 850 191 850 360 852 c 0,3,4
 418 852 418 852 483 834 c 0,5,6
 515 825 515 825 563 808 c 128,-1,7
 611 791 611 791 670 767 c 0,8,9
 703 754 703 754 729.5 745 c 128,-1,10
 756 736 756 736 773 731 c 0,11,12
 790 727 790 727 807 725 c 128,-1,13
 824 723 824 723 842 723 c 0,14,15
 906 723 906 723 973 758 c 128,-1,16
 1040 793 1040 793 1095 851 c 1,17,-1
 1095 653 l 1,18,19
 1033 596 1033 596 968 569 c 128,-1,20
 903 542 903 542 824 542 c 0,21,22
 769 542 769 542 711 556 c 0,23,24
 683 563 683 563 639.5 579 c 128,-1,25
 596 595 596 595 539 620 c 1,26,27
 481 647 481 647 432 659.5 c 128,-1,28
 383 672 383 672 343 672 c 0,29,30
 278 672 278 672 223 644 c 256,31,32
 168 616 168 616 88 543 c 1,33,-1
 88 736 l 1,0,-1
EndSplineSet
EndChar

StartChar: copyright
Encoding: 169 169 101
Width: 1711
Flags: W
LayerCount: 2
Fore
SplineSet
1693 722 m 0,0,1
 1693 531 1693 531 1593 354 c 0,2,3
 1543 265 1543 265 1474 197 c 128,-1,4
 1405 129 1405 129 1315 79 c 1,5,6
 1135 -18 1135 -18 939 -18 c 256,7,8
 743 -18 743 -18 563 79 c 1,9,10
 385 178 385 178 285 354 c 0,11,12
 185 531 185 531 185 722 c 0,13,14
 185 914 185 914 286 1093 c 0,15,16
 388 1272 388 1272 568 1366 c 0,17,18
 659 1414 659 1414 751.5 1438.5 c 128,-1,19
 844 1463 844 1463 939 1463 c 0,20,21
 1035 1463 1035 1463 1127 1438.5 c 128,-1,22
 1219 1414 1219 1414 1311 1366 c 0,23,24
 1492 1272 1492 1272 1592 1093 c 0,25,26
 1693 914 1693 914 1693 722 c 0,0,1
939 1353 m 0,27,28
 861 1353 861 1353 781.5 1331 c 128,-1,29
 702 1309 702 1309 627 1270 c 1,30,31
 552 1228 552 1228 492 1169 c 128,-1,32
 432 1110 432 1110 389 1036 c 1,33,34
 304 884 304 884 304 718 c 0,35,36
 304 555 304 555 387 404 c 1,37,38
 472 254 472 254 624 169 c 0,39,40
 775 84 775 84 939 84 c 256,41,42
 1103 84 1103 84 1255 169 c 0,43,44
 1408 254 1408 254 1491 404 c 0,45,46
 1574 555 1574 555 1574 718 c 0,47,48
 1574 800 1574 800 1552 880 c 128,-1,49
 1530 960 1530 960 1489 1036 c 1,50,51
 1447 1108 1447 1108 1386.5 1168.5 c 128,-1,52
 1326 1229 1326 1229 1251 1270 c 1,53,54
 1178 1308 1178 1308 1097 1330.5 c 128,-1,55
 1016 1353 1016 1353 939 1353 c 0,27,28
1303 566 m 1,56,57
 1288 509 1288 509 1254.5 459 c 128,-1,58
 1221 409 1221 409 1175 371 c 1,59,60
 1127 336 1127 336 1068 317.5 c 128,-1,61
 1009 299 1009 299 940 299 c 0,62,63
 766 299 766 299 655 411 c 1,64,65
 601 467 601 467 573.5 543 c 128,-1,66
 546 619 546 619 546 720 c 1,67,68
 544 818 544 818 573.5 896 c 128,-1,69
 603 974 603 974 657 1028 c 128,-1,70
 711 1082 711 1082 785 1110 c 128,-1,71
 859 1138 859 1138 948 1137 c 1,72,73
 1079 1137 1079 1137 1166.5 1075.5 c 128,-1,74
 1254 1014 1254 1014 1287 909 c 1,75,76
 1258 902 1258 902 1229.5 895 c 128,-1,77
 1201 888 1201 888 1173 881 c 1,78,79
 1143 955 1143 955 1084 993 c 128,-1,80
 1025 1031 1025 1031 944 1031 c 0,81,82
 826 1031 826 1031 752 950 c 0,83,84
 714 908 714 908 695 850.5 c 128,-1,85
 676 793 676 793 676 717 c 0,86,87
 676 567 676 567 748 488 c 0,88,89
 819 411 819 411 933 411 c 0,90,91
 1027 411 1027 411 1094 462 c 0,92,93
 1128 488 1128 488 1150.5 521.5 c 128,-1,94
 1173 555 1173 555 1184 599 c 1,95,-1
 1303 566 l 1,56,57
EndSplineSet
EndChar

StartChar: uni00AD
Encoding: 173 173 102
Width: 682
Flags: W
LayerCount: 2
Fore
SplineSet
68 433 m 1,0,-1
 68 607 l 1,1,-1
 617 607 l 1,2,-1
 617 433 l 1,3,-1
 68 433 l 1,0,-1
EndSplineSet
EndChar

StartChar: registered
Encoding: 174 174 103
Width: 1509
Flags: W
LayerCount: 2
Fore
SplineSet
1513 722 m 0,0,1
 1513 531 1513 531 1413 354 c 0,2,3
 1363 265 1363 265 1294 197 c 128,-1,4
 1225 129 1225 129 1135 79 c 1,5,6
 955 -18 955 -18 759 -18 c 256,7,8
 563 -18 563 -18 383 79 c 1,9,10
 205 178 205 178 105 354 c 0,11,12
 5 531 5 531 5 722 c 0,13,14
 5 914 5 914 106 1093 c 0,15,16
 208 1272 208 1272 388 1366 c 0,17,18
 479 1414 479 1414 571.5 1438.5 c 128,-1,19
 664 1463 664 1463 759 1463 c 0,20,21
 855 1463 855 1463 947 1438.5 c 128,-1,22
 1039 1414 1039 1414 1131 1366 c 0,23,24
 1312 1272 1312 1272 1412 1093 c 0,25,26
 1513 914 1513 914 1513 722 c 0,0,1
759 1344 m 0,27,28
 681 1344 681 1344 601.5 1323 c 128,-1,29
 522 1302 522 1302 447 1263 c 1,30,31
 372 1222 372 1222 312 1164.5 c 128,-1,32
 252 1107 252 1107 209 1033 c 0,33,34
 124 885 124 885 124 722 c 0,35,36
 124 562 124 562 207 414 c 1,37,38
 292 268 292 268 444 183 c 1,39,40
 595 101 595 101 759 101 c 256,41,42
 923 101 923 101 1075 183 c 1,43,44
 1228 268 1228 268 1311 414 c 0,45,46
 1394 562 1394 562 1394 722 c 0,47,48
 1394 802 1394 802 1372 881 c 128,-1,49
 1350 960 1350 960 1309 1033 c 1,50,51
 1267 1105 1267 1105 1206.5 1164 c 128,-1,52
 1146 1223 1146 1223 1071 1263 c 0,53,54
 998 1301 998 1301 917 1322.5 c 128,-1,55
 836 1344 836 1344 759 1344 c 0,27,28
430 314 m 1,56,-1
 430 1108 l 1,57,-1
 707 1108 l 2,58,59
 848 1108 848 1108 914 1086 c 0,60,61
 978 1064 978 1064 1015 1010 c 0,62,63
 1033 984 1033 984 1043 954.5 c 128,-1,64
 1053 925 1053 925 1053 894 c 0,65,66
 1053 808 1053 808 989 743 c 1,67,68
 927 678 927 678 822 671 c 1,69,-1
 821 667 l 1,70,71
 867 648 867 648 890 625 c 1,72,73
 913 604 913 604 943.5 562.5 c 128,-1,74
 974 521 974 521 1009 468 c 0,75,76
 1035 429 1035 429 1058.5 390.5 c 128,-1,77
 1082 352 1082 352 1107 314 c 1,78,-1
 953 314 l 1,79,-1
 882 439 l 2,80,81
 797 588 797 588 743 625 c 1,82,83
 725 639 725 639 698 646.5 c 128,-1,84
 671 654 671 654 636 654 c 2,85,-1
 556 654 l 1,86,-1
 556 314 l 1,87,-1
 430 314 l 1,56,-1
556 760 m 1,88,-1
 718 760 l 2,89,90
 834 760 834 760 876 793 c 1,91,92
 896 810 896 810 907.5 833 c 128,-1,93
 919 856 919 856 919 883 c 0,94,95
 919 920 919 920 898.5 948 c 128,-1,96
 878 976 878 976 841 991 c 0,97,98
 805 1005 805 1005 708 1005 c 2,99,-1
 556 1005 l 1,100,-1
 556 760 l 1,88,-1
EndSplineSet
EndChar

StartChar: degree
Encoding: 176 176 104
Width: 819
Flags: W
LayerCount: 2
Fore
SplineSet
131 1193 m 0,0,1
 131 1305 131 1305 211 1384 c 0,2,3
 292 1463 292 1463 406 1463 c 0,4,5
 521 1463 521 1463 602 1384 c 0,6,7
 682 1305 682 1305 682 1193 c 0,8,9
 682 1079 682 1079 600 1000 c 1,10,11
 520 921 520 921 406 921 c 0,12,13
 293 921 293 921 211 1000 c 0,14,15
 131 1078 131 1078 131 1193 c 0,0,1
407 1024 m 0,16,17
 477 1024 477 1024 527 1073 c 0,18,19
 578 1123 578 1123 578 1193 c 0,20,21
 578 1260 578 1260 527 1310 c 256,22,23
 476 1360 476 1360 407 1360 c 0,24,25
 335 1360 335 1360 284 1310 c 0,26,27
 234 1261 234 1261 234 1193 c 0,28,29
 234 1122 234 1122 284 1073 c 256,30,31
 334 1024 334 1024 407 1024 c 0,16,17
EndSplineSet
EndChar

StartChar: plusminus
Encoding: 177 177 105
Width: 1124
Flags: W
LayerCount: 2
Fore
SplineSet
481 256 m 1,0,-1
 481 653 l 1,1,-1
 80 653 l 1,2,-1
 80 813 l 1,3,-1
 481 813 l 1,4,-1
 481 1206 l 1,5,-1
 645 1206 l 1,6,-1
 645 813 l 1,7,-1
 1046 813 l 1,8,-1
 1046 653 l 1,9,-1
 645 653 l 1,10,-1
 645 256 l 1,11,-1
 481 256 l 1,0,-1
1046 0 m 1,12,-1
 80 0 l 1,13,-1
 80 162 l 1,14,-1
 1046 162 l 1,15,-1
 1046 0 l 1,12,-1
EndSplineSet
EndChar

StartChar: uni00B2
Encoding: 178 178 106
Width: 682
Flags: W
LayerCount: 2
Fore
SplineSet
27 721 m 1,0,1
 30 750 30 750 42 776.5 c 128,-1,2
 54 803 54 803 74 830 c 0,3,4
 137 914 137 914 281 1016 c 0,5,6
 423 1117 423 1117 453 1150 c 0,7,8
 491 1191 491 1191 491 1234 c 0,9,10
 491 1282 491 1282 455.5 1313 c 128,-1,11
 420 1344 420 1344 350 1344 c 0,12,13
 283 1344 283 1344 248 1320 c 1,14,15
 216 1296 216 1296 194 1232 c 1,16,17
 157 1236 157 1236 122 1240 c 128,-1,18
 87 1244 87 1244 50 1248 c 1,19,20
 80 1354 80 1354 150.5 1405 c 128,-1,21
 221 1456 221 1456 353 1456 c 0,22,23
 501 1456 501 1456 573 1398 c 0,24,25
 643 1341 643 1341 643 1258 c 0,26,27
 643 1217 643 1217 627.5 1177.5 c 128,-1,28
 612 1138 612 1138 585 1103 c 1,29,30
 562 1077 562 1077 511 1035 c 128,-1,31
 460 993 460 993 379 936 c 1,32,33
 339 906 339 906 308 882 c 128,-1,34
 277 858 277 858 257 836 c 1,35,-1
 647 836 l 1,36,-1
 647 721 l 1,37,-1
 27 721 l 1,0,1
EndSplineSet
EndChar

StartChar: uni00B3
Encoding: 179 179 107
Width: 682
Flags: W
LayerCount: 2
Fore
SplineSet
176 925 m 1,0,1
 186 898 186 898 200 876.5 c 128,-1,2
 214 855 214 855 229 844 c 0,3,4
 272 814 272 814 334 814 c 0,5,6
 404 814 404 814 450 854 c 0,7,8
 494 891 494 891 494 948 c 0,9,10
 494 998 494 998 457 1028 c 128,-1,11
 420 1058 420 1058 332 1058 c 0,12,13
 328 1058 328 1058 321 1058 c 128,-1,14
 314 1058 314 1058 308 1057 c 0,15,16
 306 1057 306 1057 303 1056.5 c 128,-1,17
 300 1056 300 1056 298 1056 c 0,18,19
 292 1055 292 1055 287.5 1055 c 128,-1,20
 283 1055 283 1055 279 1055 c 1,21,22
 284 1081 284 1081 290 1106.5 c 128,-1,23
 296 1132 296 1132 301 1158 c 1,24,25
 383 1158 383 1158 420.5 1188 c 128,-1,26
 458 1218 458 1218 458 1261 c 0,27,28
 458 1299 458 1299 427.5 1325 c 128,-1,29
 397 1351 397 1351 336 1351 c 0,30,31
 307 1351 307 1351 285 1345.5 c 128,-1,32
 263 1340 263 1340 245.5 1328 c 128,-1,33
 228 1316 228 1316 215 1297 c 128,-1,34
 202 1278 202 1278 190 1251 c 1,35,36
 156 1256 156 1256 122 1261.5 c 128,-1,37
 88 1267 88 1267 54 1272 c 1,38,39
 94 1372 94 1372 155 1414 c 0,40,41
 217 1456 217 1456 337 1456 c 0,42,43
 480 1456 480 1456 544 1403 c 1,44,45
 610 1351 610 1351 610 1274 c 0,46,47
 610 1221 610 1221 574 1178.5 c 128,-1,48
 538 1136 538 1136 472 1118 c 1,49,-1
 472 1114 l 1,50,51
 562 1093 562 1093 603.5 1044.5 c 128,-1,52
 645 996 645 996 645 929 c 0,53,54
 645 837 645 837 566 771 c 0,55,56
 486 704 486 704 343 704 c 0,57,58
 203 704 203 704 130 757 c 128,-1,59
 57 810 57 810 35 910 c 1,60,-1
 176 925 l 1,0,1
EndSplineSet
EndChar

StartChar: acute
Encoding: 180 180 108
Width: 682
Flags: W
LayerCount: 2
Fore
SplineSet
226 1175 m 1,0,1
 258 1243 258 1243 292 1310.5 c 128,-1,2
 326 1378 326 1378 359 1447 c 1,3,-1
 588 1447 l 1,4,5
 534 1378 534 1378 479.5 1310.5 c 128,-1,6
 425 1243 425 1243 371 1175 c 1,7,-1
 226 1175 l 1,0,1
EndSplineSet
EndChar

StartChar: uni00B5
Encoding: 181 181 109
Width: 1180
Flags: W
LayerCount: 2
Fore
SplineSet
1018 1041 m 1,0,-1
 1018 0 l 1,1,-1
 862 0 l 1,2,-1
 862 132 l 1,3,4
 803 45 803 45 754 16 c 1,5,-1
 755 16 l 1,6,7
 684 -25 684 -25 592 -25 c 0,8,9
 552 -25 552 -25 515 -16.5 c 128,-1,10
 478 -8 478 -8 446 8 c 0,11,12
 421 21 421 21 393.5 47 c 128,-1,13
 366 73 366 73 335 110 c 1,14,-1
 335 -401 l 1,15,-1
 163 -401 l 1,16,-1
 163 1041 l 1,17,-1
 335 1041 l 1,18,-1
 335 600 l 2,19,20
 335 360 335 360 361 286 c 0,21,22
 386 217 386 217 447 173 c 0,23,24
 505 132 505 132 584 132 c 0,25,26
 665 132 665 132 730 175 c 0,27,28
 794 218 794 218 820 287 c 0,29,30
 846 358 846 358 846 597 c 2,31,-1
 846 1041 l 1,32,-1
 1018 1041 l 1,0,-1
EndSplineSet
EndChar

StartChar: paragraph
Encoding: 182 182 110
Width: 1155
Flags: W
LayerCount: 2
Fore
SplineSet
525 -401 m 1,0,-1
 525 517 l 1,1,2
 442 521 442 521 375 549 c 128,-1,3
 308 577 308 577 259 623 c 1,4,5
 213 671 213 671 188 735 c 128,-1,6
 163 799 163 799 163 872 c 0,7,8
 163 1043 163 1043 269 1142 c 1,9,10
 379 1242 379 1242 585 1242 c 2,11,-1
 1149 1242 l 1,12,-1
 1149 1094 l 1,13,-1
 1020 1094 l 1,14,-1
 1020 -401 l 1,15,-1
 873 -401 l 1,16,-1
 873 1094 l 1,17,-1
 668 1094 l 1,18,-1
 668 -401 l 1,19,-1
 525 -401 l 1,0,-1
EndSplineSet
EndChar

StartChar: periodcentered
Encoding: 183 183 111
Width: 682
Flags: W
LayerCount: 2
Fore
SplineSet
241 626 m 1,0,-1
 241 824 l 1,1,-1
 441 824 l 1,2,-1
 441 626 l 1,3,-1
 241 626 l 1,0,-1
EndSplineSet
EndChar

StartChar: cedilla
Encoding: 184 184 112
Width: 682
Flags: W
LayerCount: 2
Fore
SplineSet
271 19 m 1,0,-1
 399 19 l 1,1,-1
 366 -86 l 1,2,3
 409 -91 409 -91 441 -105 c 128,-1,4
 473 -119 473 -119 494.5 -138 c 128,-1,5
 516 -157 516 -157 527 -181 c 128,-1,6
 538 -205 538 -205 538 -229 c 0,7,8
 538 -302 538 -302 467 -357 c 1,9,10
 396 -415 396 -415 251 -415 c 0,11,12
 211 -415 211 -415 176 -412.5 c 128,-1,13
 141 -410 141 -410 110 -404 c 1,14,15
 112 -374 112 -374 115.5 -347 c 128,-1,16
 119 -320 119 -320 121 -291 c 1,17,18
 153 -293 153 -293 175 -294 c 128,-1,19
 197 -295 197 -295 212 -295 c 0,20,21
 309 -295 309 -295 347 -270 c 1,22,23
 377 -249 377 -249 377 -220 c 1,24,25
 375 -207 375 -207 370 -195 c 128,-1,26
 365 -183 365 -183 349.5 -174 c 128,-1,27
 334 -165 334 -165 304 -159 c 128,-1,28
 274 -153 274 -153 220 -152 c 1,29,-1
 271 19 l 1,0,-1
EndSplineSet
EndChar

StartChar: uni00B9
Encoding: 185 185 113
Width: 594
Flags: W
LayerCount: 2
Fore
SplineSet
335 721 m 1,0,-1
 335 1270 l 1,1,2
 229 1189 229 1189 110 1156 c 1,3,-1
 110 1273 l 1,4,5
 141 1283 141 1283 175.5 1300.5 c 128,-1,6
 210 1318 210 1318 247 1344 c 1,7,8
 283 1368 283 1368 315 1396.5 c 128,-1,9
 347 1425 347 1425 370 1456 c 1,10,-1
 474 1456 l 1,11,-1
 474 721 l 1,12,-1
 335 721 l 1,0,-1
EndSplineSet
EndChar

StartChar: ordmasculine
Encoding: 186 186 114
Width: 748
Flags: W
LayerCount: 2
Fore
SplineSet
700 1095 m 256,0,1
 700 923 700 923 609 825 c 1,2,3
 517 728 517 728 375 728 c 0,4,5
 230 728 230 728 139 823 c 0,6,7
 47 919 47 919 47 1091 c 0,8,9
 47 1267 47 1267 138 1365 c 256,10,11
 229 1463 229 1463 374 1463 c 0,12,13
 517 1463 517 1463 609 1365 c 0,14,15
 700 1267 700 1267 700 1095 c 256,0,1
374 1336 m 0,16,17
 332 1336 332 1336 298 1322 c 128,-1,18
 264 1308 264 1308 240 1279 c 128,-1,19
 216 1250 216 1250 203 1204 c 128,-1,20
 190 1158 190 1158 190 1095 c 0,21,22
 190 1033 190 1033 203.5 987.5 c 128,-1,23
 217 942 217 942 241.5 912 c 128,-1,24
 266 882 266 882 299.5 868 c 128,-1,25
 333 854 333 854 374 854 c 256,26,27
 415 854 415 854 448.5 868 c 128,-1,28
 482 882 482 882 506 912 c 128,-1,29
 530 942 530 942 543.5 988.5 c 128,-1,30
 557 1035 557 1035 557 1100 c 0,31,32
 557 1160 557 1160 543.5 1205 c 128,-1,33
 530 1250 530 1250 505.5 1278.5 c 128,-1,34
 481 1307 481 1307 447.5 1321.5 c 128,-1,35
 414 1336 414 1336 374 1336 c 0,16,17
EndSplineSet
EndChar

StartChar: guillemotright
Encoding: 187 187 115
Width: 1017
Flags: W
LayerCount: 2
Fore
SplineSet
797 517 m 1,0,1
 732 630 732 630 666.5 741 c 128,-1,2
 601 852 601 852 536 964 c 1,3,-1
 678 964 l 1,4,5
 756 855 756 855 837.5 741 c 128,-1,6
 919 627 919 627 997 517 c 1,7,8
 919 408 919 408 837.5 294 c 128,-1,9
 756 180 756 180 678 71 c 1,10,-1
 537 71 l 1,11,-1
 797 517 l 1,0,1
408 517 m 1,12,13
 342 630 342 630 276 741 c 128,-1,14
 210 852 210 852 144 964 c 1,15,-1
 290 964 l 1,16,17
 365 856 365 856 446.5 741 c 128,-1,18
 528 626 528 626 603 517 c 1,19,20
 528 409 528 409 446.5 294 c 128,-1,21
 365 179 365 179 290 71 c 1,22,-1
 144 71 l 1,23,-1
 408 517 l 1,12,13
EndSplineSet
EndChar

StartChar: onequarter
Encoding: 188 188 116
Width: 1708
Flags: W
LayerCount: 2
Fore
SplineSet
255 -56 m 1,0,1
 387 124 387 124 526.5 317 c 128,-1,2
 666 510 666 510 807 704 c 128,-1,3
 948 898 948 898 1087.5 1090 c 128,-1,4
 1227 1282 1227 1282 1358 1463 c 1,5,-1
 1510 1463 l 1,6,7
 1379 1282 1379 1282 1239.5 1090 c 128,-1,8
 1100 898 1100 898 959 704 c 128,-1,9
 818 510 818 510 678.5 317 c 128,-1,10
 539 124 539 124 408 -56 c 1,11,-1
 255 -56 l 1,0,1
334 721 m 1,12,-1
 334 1270 l 1,13,14
 228 1189 228 1189 109 1156 c 1,15,-1
 109 1273 l 1,16,17
 140 1283 140 1283 174.5 1300.5 c 128,-1,18
 209 1318 209 1318 246 1344 c 0,19,20
 281 1368 281 1368 313.5 1396.5 c 128,-1,21
 346 1425 346 1425 369 1456 c 1,22,-1
 473 1456 l 1,23,-1
 473 721 l 1,24,-1
 334 721 l 1,12,-1
1437 -30 m 1,25,-1
 1437 121 l 1,26,-1
 1052 121 l 1,27,-1
 1052 240 l 1,28,-1
 1051 239 l 1,29,30
 1150 352 1150 352 1254 472 c 128,-1,31
 1358 592 1358 592 1457 705 c 1,32,-1
 1575 705 l 1,33,-1
 1575 223 l 1,34,-1
 1680 223 l 1,35,-1
 1680 121 l 1,36,-1
 1575 121 l 1,37,-1
 1575 -30 l 1,38,-1
 1437 -30 l 1,25,-1
1437 223 m 1,39,-1
 1437 491 l 1,40,-1
 1198 223 l 1,41,-1
 1437 223 l 1,39,-1
EndSplineSet
EndChar

StartChar: onehalf
Encoding: 189 189 117
Width: 1708
Flags: W
LayerCount: 2
Fore
SplineSet
231 -56 m 1,0,1
 363 124 363 124 502.5 317 c 128,-1,2
 642 510 642 510 783 704 c 128,-1,3
 924 898 924 898 1063 1090 c 128,-1,4
 1202 1282 1202 1282 1333 1463 c 1,5,-1
 1486 1463 l 1,6,7
 1355 1282 1355 1282 1215.5 1090 c 128,-1,8
 1076 898 1076 898 935 704 c 128,-1,9
 794 510 794 510 654.5 317 c 128,-1,10
 515 124 515 124 384 -56 c 1,11,-1
 231 -56 l 1,0,1
334 721 m 1,12,-1
 334 1270 l 1,13,14
 228 1189 228 1189 109 1156 c 1,15,-1
 109 1273 l 1,16,17
 140 1283 140 1283 174.5 1300.5 c 128,-1,18
 209 1318 209 1318 246 1344 c 0,19,20
 281 1368 281 1368 313.5 1396.5 c 128,-1,21
 346 1425 346 1425 369 1456 c 1,22,-1
 473 1456 l 1,23,-1
 473 721 l 1,24,-1
 334 721 l 1,12,-1
1054 -30 m 1,25,26
 1057 -2 1057 -2 1069 24 c 128,-1,27
 1081 50 1081 50 1101 77 c 0,28,29
 1161 161 1161 161 1308 265 c 0,30,31
 1380 315 1380 315 1422.5 348.5 c 128,-1,32
 1465 382 1465 382 1480 399 c 0,33,34
 1498 419 1498 419 1508 440.5 c 128,-1,35
 1518 462 1518 462 1518 482 c 0,36,37
 1518 530 1518 530 1483 560.5 c 128,-1,38
 1448 591 1448 591 1377 591 c 0,39,40
 1310 591 1310 591 1275 567 c 0,41,42
 1259 557 1259 557 1245.5 534.5 c 128,-1,43
 1232 512 1232 512 1221 480 c 1,44,45
 1184 484 1184 484 1149 487.5 c 128,-1,46
 1114 491 1114 491 1076 495 c 1,47,48
 1091 548 1091 548 1116 587.5 c 128,-1,49
 1141 627 1141 627 1178 653 c 128,-1,50
 1215 679 1215 679 1265 692 c 128,-1,51
 1315 705 1315 705 1380 705 c 0,52,53
 1528 705 1528 705 1599 646 c 1,54,55
 1670 590 1670 590 1670 507 c 0,56,57
 1670 466 1670 466 1654.5 426.5 c 128,-1,58
 1639 387 1639 387 1611 351 c 1,59,60
 1588 325 1588 325 1537.5 282.5 c 128,-1,61
 1487 240 1487 240 1407 183 c 0,62,63
 1328 127 1328 127 1284 84 c 1,64,-1
 1674 84 l 1,65,-1
 1674 -30 l 1,66,-1
 1054 -30 l 1,25,26
EndSplineSet
EndChar

StartChar: threequarters
Encoding: 190 190 118
Width: 1708
Flags: W
LayerCount: 2
Fore
SplineSet
255 -56 m 1,0,1
 387 124 387 124 526.5 317 c 128,-1,2
 666 510 666 510 807 704 c 128,-1,3
 948 898 948 898 1087.5 1090 c 128,-1,4
 1227 1282 1227 1282 1358 1463 c 1,5,-1
 1510 1463 l 1,6,7
 1379 1282 1379 1282 1239.5 1090 c 128,-1,8
 1100 898 1100 898 959 704 c 128,-1,9
 818 510 818 510 678.5 317 c 128,-1,10
 539 124 539 124 408 -56 c 1,11,-1
 255 -56 l 1,0,1
175 925 m 1,12,13
 185 898 185 898 199 876.5 c 128,-1,14
 213 855 213 855 228 844 c 0,15,16
 271 814 271 814 333 814 c 0,17,18
 403 814 403 814 449 854 c 0,19,20
 493 891 493 891 493 948 c 0,21,22
 493 998 493 998 456.5 1028 c 128,-1,23
 420 1058 420 1058 334 1058 c 1,24,25
 289 1055 289 1055 278 1055 c 1,26,27
 283 1081 283 1081 289 1106.5 c 128,-1,28
 295 1132 295 1132 301 1158 c 1,29,30
 383 1158 383 1158 420 1188 c 128,-1,31
 457 1218 457 1218 457 1261 c 0,32,33
 457 1299 457 1299 426.5 1325 c 128,-1,34
 396 1351 396 1351 335 1351 c 0,35,36
 306 1351 306 1351 284 1345.5 c 128,-1,37
 262 1340 262 1340 244.5 1328 c 128,-1,38
 227 1316 227 1316 214 1297 c 128,-1,39
 201 1278 201 1278 189 1251 c 1,40,41
 155 1256 155 1256 121 1261.5 c 128,-1,42
 87 1267 87 1267 53 1272 c 1,43,44
 93 1372 93 1372 154 1414 c 0,45,46
 216 1456 216 1456 336 1456 c 0,47,48
 479 1456 479 1456 543 1403 c 1,49,50
 609 1351 609 1351 609 1274 c 0,51,52
 609 1221 609 1221 573 1178.5 c 128,-1,53
 537 1136 537 1136 471 1118 c 1,54,-1
 471 1114 l 1,55,56
 561 1093 561 1093 602.5 1044.5 c 128,-1,57
 644 996 644 996 644 929 c 0,58,59
 644 837 644 837 566 771 c 1,60,61
 485 704 485 704 342 704 c 0,62,63
 202 704 202 704 129 757 c 128,-1,64
 56 810 56 810 35 910 c 1,65,-1
 175 925 l 1,12,13
1436 -30 m 1,66,-1
 1436 121 l 1,67,-1
 1052 121 l 1,68,-1
 1052 240 l 1,69,-1
 1051 239 l 1,70,71
 1149 352 1149 352 1253.5 472 c 128,-1,72
 1358 592 1358 592 1456 705 c 1,73,-1
 1575 705 l 1,74,-1
 1575 223 l 1,75,-1
 1680 223 l 1,76,-1
 1680 121 l 1,77,-1
 1575 121 l 1,78,-1
 1575 -30 l 1,79,-1
 1436 -30 l 1,66,-1
1436 223 m 1,80,-1
 1436 491 l 1,81,-1
 1198 223 l 1,82,-1
 1436 223 l 1,80,-1
EndSplineSet
EndChar

StartChar: hi_om
Encoding: 2384 2384 119
Width: 1907
Flags: W
LayerCount: 2
Fore
SplineSet
304 455 m 1,0,1
 323 393 323 393 364 325 c 0,2,3
 396 272 396 272 472 203 c 1,4,5
 512 165 512 165 572 137 c 0,6,7
 620 114 620 114 711 104 c 1,8,9
 866 104 866 104 938 191 c 1,10,11
 995 262 995 262 995 345 c 0,12,13
 995 508 995 508 861 581 c 1,14,15
 793 614 793 614 703 614 c 0,16,17
 655 614 655 614 600 603 c 0,18,19
 589 601 589 601 578 598 c 128,-1,20
 567 595 567 595 556 593 c 1,21,22
 555 635 555 635 553.5 675.5 c 128,-1,23
 552 716 552 716 551 759 c 1,24,-1
 602 743 l 1,25,26
 644 732 644 732 715 732 c 0,27,28
 842 732 842 732 897 798 c 1,29,30
 947 864 947 864 947 942 c 0,31,32
 947 1016 947 1016 891 1068 c 1,33,34
 837 1109 837 1109 742 1110 c 1,35,36
 635 1114 635 1114 564 1061 c 1,37,38
 499 1004 499 1004 489 899 c 0,39,40
 488 888 488 888 486.5 876.5 c 128,-1,41
 485 865 485 865 484 855 c 1,42,43
 439 861 439 861 394 865.5 c 128,-1,44
 349 870 349 870 304 876 c 1,45,46
 306 887 306 887 309.5 897.5 c 128,-1,47
 313 908 313 908 315 918 c 0,48,49
 333 985 333 985 368 1038 c 128,-1,50
 403 1091 403 1091 455.5 1127.5 c 128,-1,51
 508 1164 508 1164 579.5 1184.5 c 128,-1,52
 651 1205 651 1205 742 1206 c 1,53,54
 825 1208 825 1208 894 1190 c 128,-1,55
 963 1172 963 1172 1016 1134 c 0,56,57
 1069 1095 1069 1095 1098 1045 c 128,-1,58
 1127 995 1127 995 1127 939 c 0,59,60
 1127 875 1127 875 1106.5 824 c 128,-1,61
 1086 773 1086 773 1049 738 c 1,62,63
 999 696 999 696 926 671 c 1,64,65
 971 658 971 658 1001 640 c 1,66,67
 1078 607 1078 607 1127 521 c 1,68,69
 1174 441 1174 441 1174 371 c 0,70,71
 1174 200 1174 200 1063 102 c 1,72,-1
 1063 103 l 1,73,74
 949 6 949 6 711 6 c 0,75,76
 626 6 626 6 555 26 c 128,-1,77
 484 46 484 46 430 83 c 1,78,79
 338 155 338 155 276 239 c 128,-1,80
 214 323 214 323 185 419 c 1,81,-1
 304 455 l 1,0,1
1369 360 m 1,82,83
 1415 320 1415 320 1517 320 c 0,84,85
 1555 320 1555 320 1589.5 337.5 c 128,-1,86
 1624 355 1624 355 1651 386 c 0,87,88
 1709 455 1709 455 1709 544 c 0,89,90
 1709 639 1709 639 1653 705 c 0,91,92
 1626 736 1626 736 1591 753 c 128,-1,93
 1556 770 1556 770 1517 770 c 0,94,95
 1454 770 1454 770 1399 753 c 128,-1,96
 1344 736 1344 736 1302 706 c 0,97,98
 1232 655 1232 655 1163 655 c 0,99,100
 1157 655 1157 655 1151 655.5 c 128,-1,101
 1145 656 1145 656 1139 657 c 1,102,-1
 1139 735 l 1,103,104
 1261 737 1261 737 1360 845 c 1,105,-1
 1360 844 l 1,106,107
 1417 879 1417 879 1470.5 897.5 c 128,-1,108
 1524 916 1524 916 1577 916 c 0,109,110
 1591 916 1591 916 1604.5 914.5 c 128,-1,111
 1618 913 1618 913 1632 911 c 1,112,-1
 1631 911 l 1,113,114
 1669 903 1669 903 1708.5 881 c 128,-1,115
 1748 859 1748 859 1786 822 c 1,116,117
 1823 788 1823 788 1847 727.5 c 128,-1,118
 1871 667 1871 667 1882 592 c 1,119,120
 1881 519 1881 519 1865.5 459 c 128,-1,121
 1850 399 1850 399 1818.5 353 c 128,-1,122
 1787 307 1787 307 1740.5 276 c 128,-1,123
 1694 245 1694 245 1631 232 c 1,124,125
 1547 234 1547 234 1474.5 254 c 128,-1,126
 1402 274 1402 274 1351 314 c 1,127,-1
 1369 360 l 1,82,83
966 1570 m 1,128,129
 1011 1569 1011 1569 1053.5 1567.5 c 128,-1,130
 1096 1566 1096 1566 1141 1565 c 1,131,-1
 1136 1523 l 1,132,-1
 1136 1490 l 2,133,134
 1136 1393 1136 1393 1173 1344 c 1,135,136
 1213 1295 1213 1295 1326 1295 c 1,137,138
 1489 1300 1489 1300 1489 1490 c 2,139,-1
 1489 1523 l 1,140,141
 1488 1534 1488 1534 1486.5 1544 c 128,-1,142
 1485 1554 1485 1554 1484 1565 c 1,143,144
 1529 1566 1529 1566 1572 1567.5 c 128,-1,145
 1615 1569 1615 1569 1660 1570 c 1,146,-1
 1660 1526 l 1,147,148
 1659 1492 1659 1492 1653.5 1457.5 c 128,-1,149
 1648 1423 1648 1423 1636 1390 c 128,-1,150
 1624 1357 1624 1357 1604.5 1327.5 c 128,-1,151
 1585 1298 1585 1298 1557 1272 c 1,152,153
 1518 1244 1518 1244 1454.5 1222.5 c 128,-1,154
 1391 1201 1391 1201 1313 1199 c 0,155,156
 1277 1199 1277 1199 1240 1204 c 128,-1,157
 1203 1209 1203 1209 1167.5 1221 c 128,-1,158
 1132 1233 1132 1233 1100 1251 c 128,-1,159
 1068 1269 1068 1269 1041 1295 c 1,160,161
 1010 1331 1010 1331 988.5 1391 c 128,-1,162
 967 1451 967 1451 966 1526 c 1,163,-1
 966 1570 l 1,128,129
1314 1463 m 256,164,165
 1295 1463 1295 1463 1278 1470.5 c 128,-1,166
 1261 1478 1261 1478 1248.5 1490 c 128,-1,167
 1236 1502 1236 1502 1228.5 1519 c 128,-1,168
 1221 1536 1221 1536 1221 1555 c 0,169,170
 1221 1596 1221 1596 1248.5 1622.5 c 128,-1,171
 1276 1649 1276 1649 1314 1649 c 0,172,173
 1333 1649 1333 1649 1350 1641.5 c 128,-1,174
 1367 1634 1367 1634 1380 1621.5 c 128,-1,175
 1393 1609 1393 1609 1400.5 1592 c 128,-1,176
 1408 1575 1408 1575 1408 1555 c 0,177,178
 1408 1536 1408 1536 1400.5 1519 c 128,-1,179
 1393 1502 1393 1502 1380 1490 c 128,-1,180
 1367 1478 1367 1478 1350 1470.5 c 128,-1,181
 1333 1463 1333 1463 1314 1463 c 256,164,165
EndSplineSet
EndChar

StartChar: uni0964
Encoding: 2404 2404 120
Width: 393
Flags: W
LayerCount: 2
Fore
SplineSet
338 -40 m 1,0,-1
 187 -40 l 1,1,-1
 187 1247 l 1,2,-1
 338 1247 l 1,3,-1
 338 -40 l 1,0,-1
EndSplineSet
EndChar

StartChar: uni0965
Encoding: 2405 2405 121
Width: 855
Flags: W
LayerCount: 2
Fore
SplineSet
800 -40 m 1,0,-1
 652 -40 l 1,1,-1
 652 1247 l 1,2,-1
 800 1247 l 1,3,-1
 800 -40 l 1,0,-1
336 -40 m 1,4,-1
 187 -40 l 1,5,-1
 187 1247 l 1,6,-1
 336 1247 l 1,7,-1
 336 -40 l 1,4,-1
EndSplineSet
EndChar

StartChar: ml_anusvara
Encoding: 3330 3330 122
Width: 1014
Flags: W
LayerCount: 2
Fore
SplineSet
587 861 m 0,0,1
 672 861 672 861 747 827.5 c 128,-1,2
 822 794 822 794 883 737 c 1,3,4
 938 674 938 674 967.5 592 c 128,-1,5
 997 510 997 510 997 414 c 0,6,7
 997 220 997 220 882 108 c 0,8,9
 767 -3 767 -3 586 -3 c 256,10,11
 405 -3 405 -3 287 108 c 1,12,13
 170 220 170 220 170 418 c 256,14,15
 170 616 170 616 289 739 c 1,16,17
 411 861 411 861 587 861 c 0,0,1
829 419 m 0,18,19
 829 562 829 562 774 656 c 0,20,21
 719 751 719 751 587 751 c 0,22,23
 460 751 460 751 392 650 c 1,24,25
 337 551 337 551 337 419 c 0,26,27
 337 108 337 108 587 108 c 0,28,29
 829 108 829 108 829 419 c 0,18,19
EndSplineSet
EndChar

StartChar: ml_visarga
Encoding: 3331 3331 123
Width: 734
Flags: W
LayerCount: 2
Fore
SplineSet
246 1072 m 1,0,1
 330 1154 330 1154 451 1154 c 0,2,3
 574 1154 574 1154 646 1070 c 1,4,5
 717 985 717 985 717 866 c 256,6,7
 717 747 717 747 646 669 c 256,8,9
 575 591 575 591 452 591 c 256,10,11
 329 591 329 591 249 664 c 0,12,13
 170 737 170 737 170 865 c 0,14,15
 170 994 170 994 246 1072 c 1,0,1
653 469 m 1,16,17
 717 395 717 395 717 273 c 0,18,19
 717 215 717 215 698.5 165.5 c 128,-1,20
 680 116 680 116 645 75 c 1,21,22
 608 39 608 39 559.5 19 c 128,-1,23
 511 -1 511 -1 453 -1 c 0,24,25
 334 -1 334 -1 251 72 c 1,26,27
 170 146 170 146 170 275 c 0,28,29
 170 406 170 406 246 480 c 0,30,31
 328 560 328 560 453 560 c 256,32,33
 578 560 578 560 653 469 c 1,16,17
454 708 m 0,34,35
 559 708 559 708 559 872 c 0,36,37
 559 1037 559 1037 444 1037 c 256,38,39
 329 1037 329 1037 329 872 c 0,40,41
 329 708 329 708 454 708 c 0,34,35
454 116 m 0,42,43
 559 116 559 116 559 279 c 0,44,45
 559 444 559 444 444 444 c 256,46,47
 329 444 329 444 329 279 c 0,48,49
 329 116 329 116 454 116 c 0,42,43
EndSplineSet
EndChar

StartChar: ml_a
Encoding: 3333 3333 125
Width: 2743
Flags: W
LayerCount: 2
Fore
SplineSet
1117 95 m 0,0,1
 1198 95 1198 95 1243.5 145 c 128,-1,2
 1289 195 1289 195 1289 280 c 0,3,4
 1289 364 1289 364 1243.5 414.5 c 128,-1,5
 1198 465 1198 465 1118 465 c 0,6,7
 1111 465 1111 465 1027 458 c 1,8,-1
 972 449 l 1,9,-1
 976 604 l 1,10,-1
 1031 595 l 2,11,12
 1080 586 1080 586 1108 586 c 0,13,14
 1182 586 1182 586 1226 633.5 c 128,-1,15
 1270 681 1270 681 1270 762 c 0,16,17
 1270 841 1270 841 1219.5 905.5 c 128,-1,18
 1169 970 1169 970 1095 984 c 1,19,20
 976 937 976 937 914.5 808 c 128,-1,21
 853 679 853 679 853 519.5 c 128,-1,22
 853 360 853 360 909 241 c 0,23,24
 979 95 979 95 1117 95 c 0,0,1
2472 186 m 0,25,26
 2517 263 2517 263 2517 375 c 256,27,28
 2517 487 2517 487 2467.5 554 c 128,-1,29
 2418 621 2418 621 2320 621 c 0,30,31
 2221 621 2221 621 2169.5 548.5 c 128,-1,32
 2118 476 2118 476 2118 364 c 0,33,34
 2118 251 2118 251 2162 180 c 0,35,36
 2213 98 2213 98 2317 98 c 0,37,38
 2420 98 2420 98 2472 186 c 0,25,26
853 1045 m 1,40,-1
 814 1045 l 2,41,42
 628 1045 628 1045 477 902 c 1,43,44
 352 762 352 762 352 549 c 0,45,46
 352 258 352 258 552 111 c 1,47,-1
 593 84 l 1,48,-1
 509 -30 l 1,49,-1
 469 -7 l 1,50,51
 170 179 170 179 170 563 c 1,52,53
 187 886 187 886 456 1063 c 1,54,55
 609 1152 609 1152 810 1152 c 0,56,57
 855 1152 855 1152 896 1148 c 1,58,59
 994 1142 994 1142 1053.5 1122 c 128,-1,60
 1113 1102 1113 1102 1118 1100 c 1,61,62
 1219 1142 1219 1142 1348 1142 c 0,63,64
 1594 1142 1594 1142 1729 991 c 1,65,66
 1894 1147 1894 1147 2155 1147 c 0,67,68
 2414 1147 2414 1147 2570 976 c 128,-1,69
 2726 805 2726 805 2726 566 c 0,70,71
 2726 324 2726 324 2636 174 c 1,72,73
 2525 -16 2525 -16 2307 -16 c 0,74,75
 2143 -16 2143 -16 2040.5 91.5 c 128,-1,76
 1938 199 1938 199 1938 360 c 128,-1,77
 1938 521 1938 521 2035.5 628 c 128,-1,78
 2133 735 2133 735 2307 735 c 0,79,80
 2448 735 2448 735 2554 637 c 1,81,82
 2544 793 2544 793 2439 907 c 1,83,84
 2325 1035 2325 1035 2149 1035 c 2,85,-1
 2137 1035 l 2,86,87
 2051 1035 2051 1035 1963.5 989.5 c 128,-1,88
 1876 944 1876 944 1841 871.5 c 128,-1,89
 1806 799 1806 799 1806 692 c 2,90,-1
 1806 4 l 1,91,-1
 1641 4 l 1,92,-1
 1641 699 l 2,93,94
 1641 807 1641 807 1607.5 875.5 c 128,-1,95
 1574 944 1574 944 1489 988 c 0,96,97
 1408 1031 1408 1031 1315 1031 c 0,98,99
 1298 1031 1298 1031 1283 1030 c 1,100,101
 1444 938 1444 938 1444 758 c 0,102,103
 1444 668 1444 668 1402.5 612 c 128,-1,104
 1361 556 1361 556 1317 529 c 1,105,106
 1367 502 1367 502 1410.5 444.5 c 128,-1,107
 1454 387 1454 387 1454 294 c 0,108,109
 1454 154 1454 154 1355 71.5 c 128,-1,110
 1256 -11 1256 -11 1117 -11 c 0,111,112
 893 -11 893 -11 771 165 c 1,113,114
 667 312 667 312 667 535 c 0,115,116
 667 886 667 886 928 1035 c 1,117,39
 893 1043 893 1043 853 1045 c 1,40,-1
EndSplineSet
EndChar

StartChar: ml_aa
Encoding: 3334 3334 126
Width: 3146
Flags: W
LayerCount: 2
Fore
SplineSet
2317 108 m 0,0,1
 2434 108 2434 108 2489 224 c 1,2,3
 2546 338 2546 338 2546 509 c 0,4,5
 2546 681 2546 681 2514 769 c 1,6,7
 2329 757 2329 757 2233 626 c 1,8,9
 2154 501 2154 501 2154 353 c 0,10,11
 2154 301 2154 301 2164 259 c 128,-1,12
 2174 217 2174 217 2194 184 c 1,13,14
 2249 108 2249 108 2317 108 c 0,0,1
1117 95 m 0,15,16
 1198 95 1198 95 1243.5 145 c 128,-1,17
 1289 195 1289 195 1289 280 c 0,18,19
 1289 364 1289 364 1243.5 414.5 c 128,-1,20
 1198 465 1198 465 1118 465 c 0,21,22
 1111 465 1111 465 1027 458 c 1,23,-1
 972 449 l 1,24,-1
 976 604 l 1,25,-1
 1031 595 l 2,26,27
 1080 586 1080 586 1108 586 c 0,28,29
 1182 586 1182 586 1226 633.5 c 128,-1,30
 1270 681 1270 681 1270 762 c 0,31,32
 1270 841 1270 841 1219.5 905.5 c 128,-1,33
 1169 970 1169 970 1095 984 c 1,34,35
 976 937 976 937 914.5 808 c 128,-1,36
 853 679 853 679 853 519 c 0,37,38
 853 360 853 360 909 241 c 0,39,40
 979 95 979 95 1117 95 c 0,15,16
2635 889 m 1,41,42
 2744 884 2744 884 2832 843 c 0,43,44
 2925 800 2925 800 2992 727 c 1,45,46
 3057 645 3057 645 3093 545 c 128,-1,47
 3129 445 3129 445 3129 334 c 0,48,49
 3129 38 3129 38 2947 -146 c 1,50,51
 2771 -319 2771 -319 2504 -319 c 0,52,53
 2418 -319 2418 -319 2327 -298 c 128,-1,54
 2236 -277 2236 -277 2135 -222 c 1,55,-1
 2233 -117 l 1,56,57
 2371 -202 2371 -202 2513 -202 c 0,58,59
 2605 -202 2605 -202 2686.5 -168.5 c 128,-1,60
 2768 -135 2768 -135 2828 -60 c 1,61,62
 2890 13 2890 13 2923 114.5 c 128,-1,63
 2956 216 2956 216 2958 331 c 0,64,65
 2959 338 2959 338 2959 348 c 0,66,67
 2959 357 2959 357 2959 364 c 0,68,69
 2959 425 2959 425 2944.5 484 c 128,-1,70
 2930 543 2930 543 2902 596 c 0,71,72
 2836 719 2836 719 2703 755 c 1,73,74
 2716 715 2716 715 2723 657.5 c 128,-1,75
 2730 600 2730 600 2730 522 c 0,76,77
 2730 302 2730 302 2625 159 c 1,78,79
 2508 -10 2508 -10 2317 -10 c 0,80,81
 2187 -10 2187 -10 2086 80 c 1,82,83
 1987 172 1987 172 1985 363 c 0,84,85
 1985 366 1985 366 1985 369 c 0,86,87
 1985 462 1985 462 2017 547 c 0,88,89
 2050 633 2050 633 2115 708 c 1,90,91
 2179 772 2179 772 2262.5 812 c 128,-1,92
 2346 852 2346 852 2446 865 c 1,93,-1
 2468 869 l 1,94,95
 2451 894 2451 894 2439 907 c 0,96,97
 2325 1035 2325 1035 2149 1035 c 2,98,-1
 2137 1035 l 2,99,100
 2051 1035 2051 1035 1963.5 989.5 c 128,-1,101
 1876 944 1876 944 1841 871.5 c 128,-1,102
 1806 799 1806 799 1806 692 c 2,103,-1
 1806 4 l 1,104,-1
 1641 4 l 1,105,-1
 1641 699 l 2,106,107
 1641 807 1641 807 1607.5 875.5 c 128,-1,108
 1574 944 1574 944 1489 988 c 0,109,110
 1408 1031 1408 1031 1315 1031 c 0,111,112
 1298 1031 1298 1031 1283 1030 c 1,113,114
 1444 938 1444 938 1444 758 c 0,115,116
 1444 668 1444 668 1402.5 612 c 128,-1,117
 1361 556 1361 556 1317 529 c 1,118,119
 1367 502 1367 502 1410.5 444.5 c 128,-1,120
 1454 387 1454 387 1454 294 c 0,121,122
 1454 154 1454 154 1355 71.5 c 128,-1,123
 1256 -11 1256 -11 1117 -11 c 0,124,125
 893 -11 893 -11 771 165 c 1,126,127
 667 312 667 312 667 535 c 0,128,129
 667 886 667 886 928 1035 c 1,130,131
 893 1043 893 1043 853 1045 c 1,132,-1
 814 1045 l 2,133,134
 628 1045 628 1045 477 902 c 1,135,136
 352 762 352 762 352 549 c 0,137,138
 352 258 352 258 552 111 c 1,139,-1
 593 84 l 1,140,-1
 509 -30 l 1,141,-1
 469 -7 l 1,142,143
 170 179 170 179 170 563 c 1,144,145
 187 886 187 886 456 1063 c 1,146,147
 609 1152 609 1152 810 1152 c 0,148,149
 855 1152 855 1152 896 1148 c 1,150,151
 994 1142 994 1142 1053.5 1122 c 128,-1,152
 1113 1102 1113 1102 1118 1100 c 1,153,154
 1219 1142 1219 1142 1348 1142 c 0,155,156
 1594 1142 1594 1142 1729 991 c 1,157,158
 1894 1147 1894 1147 2155 1147 c 0,159,160
 2414 1147 2414 1147 2570 976 c 0,161,162
 2607 935 2607 935 2635 889 c 1,41,42
EndSplineSet
EndChar

StartChar: ml_i
Encoding: 3335 3335 127
Width: 1978
Flags: W
LayerCount: 2
Fore
SplineSet
749 516 m 0,0,1
 749 727 749 727 578 727 c 0,2,3
 496 727 496 727 441 682 c 256,4,5
 386 637 386 637 386 573 c 0,6,7
 386 466 386 466 439 398 c 1,8,9
 484 334 484 334 569 334 c 0,10,11
 655 334 655 334 702 397 c 0,12,13
 749 459 749 459 749 516 c 0,0,1
361 1007 m 1,14,15
 503 1143 503 1143 740 1143 c 0,16,17
 1028 1143 1028 1143 1159 956 c 1,18,19
 1298 1143 1298 1143 1496 1143 c 2,20,-1
 1516 1143 l 2,21,22
 1736 1143 1736 1143 1865 999 c 1,23,24
 1997 848 1997 848 1997 612 c 0,25,26
 1997 375 1997 375 1838 221 c 128,-1,27
 1679 67 1679 67 1396 67 c 2,28,-1
 549 67 l 2,29,30
 483 67 483 67 426 30.5 c 128,-1,31
 369 -6 369 -6 369 -72 c 256,32,33
 369 -138 369 -138 421.5 -170 c 128,-1,34
 474 -202 474 -202 546 -202 c 2,35,-1
 1955 -202 l 1,36,-1
 1955 -348 l 1,37,-1
 523 -348 l 2,38,39
 390 -348 390 -348 302 -272.5 c 128,-1,40
 214 -197 214 -197 214 -71 c 0,41,42
 214 57 214 57 302 126.5 c 128,-1,43
 390 196 390 196 523 196 c 2,44,-1
 1371 196 l 2,45,46
 1570 196 1570 196 1695 300 c 0,47,48
 1821 406 1821 406 1821 619 c 2,49,-1
 1821 626 l 1,50,51
 1822 641 1822 641 1822 655 c 0,52,53
 1822 781 1822 781 1761 892 c 0,54,55
 1694 1016 1694 1016 1528 1019 c 1,56,57
 1361 1006 1361 1006 1298 919 c 128,-1,58
 1235 832 1235 832 1235 718 c 2,59,-1
 1235 289 l 1,60,-1
 1063 289 l 1,61,-1
 1063 718 l 2,62,63
 1063 841 1063 841 992.5 929 c 128,-1,64
 922 1017 922 1017 756 1025 c 1,65,66
 569 1017 569 1017 490 942 c 1,67,68
 436 882 436 882 427 811 c 1,69,70
 490 843 490 843 578 843 c 0,71,72
 745 843 745 843 838 754 c 1,73,74
 931 663 931 663 931 530 c 0,75,76
 931 394 931 394 828 305 c 1,77,-1
 828 306 l 1,78,79
 718 217 718 217 569 217 c 0,80,81
 419 217 419 217 318 301 c 1,82,-1
 318 300 l 1,83,84
 206 399 206 399 206 587 c 1,85,86
 202 700 202 700 236 798 c 1,87,88
 271 904 271 904 361 1007 c 1,14,15
EndSplineSet
EndChar

StartChar: ml_u
Encoding: 3337 3337 129
Width: 1475
Flags: W
LayerCount: 2
Fore
SplineSet
546 339 m 0,0,1
 702 339 702 339 702 544 c 0,2,3
 702 748 702 748 542 748 c 0,4,5
 462 748 462 748 411 693 c 256,6,7
 360 638 360 638 360 582 c 0,8,9
 360 339 360 339 546 339 c 0,0,1
1269 505 m 0,10,11
 1277 550 1277 550 1277 600 c 0,12,13
 1277 654 1277 654 1268 699.5 c 128,-1,14
 1259 745 1259 745 1242 783 c 128,-1,15
 1225 821 1225 821 1199.5 853.5 c 128,-1,16
 1174 886 1174 886 1142 915 c 1,17,18
 1000 1031 1000 1031 788 1031 c 1,19,20
 480 1017 480 1017 397 834 c 1,21,22
 467 865 467 865 544 865 c 0,23,24
 699 865 699 865 798 760 c 1,25,26
 886 665 886 665 886 531 c 256,27,28
 886 397 886 397 796 314 c 1,29,30
 702 223 702 223 549 223 c 0,31,32
 473 223 473 223 408 245 c 128,-1,33
 343 267 343 267 291 308 c 1,34,35
 231 358 231 358 200.5 430 c 128,-1,36
 170 502 170 502 170 594 c 0,37,38
 170 713 170 713 208 813.5 c 128,-1,39
 246 914 246 914 315 991 c 1,40,41
 394 1069 394 1069 513 1109.5 c 128,-1,42
 632 1150 632 1150 788 1150 c 0,43,44
 1050 1150 1050 1150 1235 1032 c 1,45,46
 1456 880 1456 880 1458 570 c 1,47,48
 1447 296 1447 296 1266 152 c 1,49,50
 1126 34 1126 34 747 28 c 1,51,-1
 571 28 l 1,52,53
 339 24 339 24 357 -84 c 1,54,55
 360 -202 360 -202 562 -202 c 2,56,-1
 1427 -202 l 1,57,-1
 1427 -346 l 1,58,-1
 598 -346 l 2,59,60
 196 -346 196 -346 194 -90 c 1,61,62
 196 103 196 103 387 144 c 0,63,64
 472 163 472 163 654 167 c 1,65,-1
 759 167 l 2,66,67
 1209 167 1209 167 1269 505 c 0,10,11
EndSplineSet
EndChar

StartChar: ml_ru
Encoding: 3339 3339 131
Width: 1479
Flags: W
LayerCount: 2
Fore
SplineSet
1127 -144 m 1,0,1
 1282 -71 1282 -71 1280 37 c 1,2,3
 1280 144 1280 144 1137 216 c 1,4,5
 1080 242 1080 242 1014 255.5 c 128,-1,6
 948 269 948 269 861 270 c 1,7,-1
 757 270 l 2,8,9
 684 270 684 270 616 255 c 128,-1,10
 548 240 548 240 495 216 c 1,11,12
 426 180 426 180 389 136.5 c 128,-1,13
 352 93 352 93 351 39 c 1,14,15
 351 -69 351 -69 508 -144 c 1,16,17
 574 -174 574 -174 648 -190 c 128,-1,18
 722 -206 722 -206 828 -207 c 1,19,20
 913 -206 913 -206 986.5 -190 c 128,-1,21
 1060 -174 1060 -174 1127 -144 c 1,0,1
596 886 m 0,22,23
 596 1032 596 1032 493 1032 c 0,24,25
 468 1032 468 1032 449 1020.5 c 128,-1,26
 430 1009 430 1009 416.5 989.5 c 128,-1,27
 403 970 403 970 396 944.5 c 128,-1,28
 389 919 389 919 389 888 c 0,29,30
 389 830 389 830 417 790 c 1,31,32
 445 748 445 748 494 748 c 0,33,34
 544 748 544 748 570 788 c 0,35,36
 596 827 596 827 596 886 c 0,22,23
1035 886 m 0,37,38
 1035 826 1035 826 1062.5 787 c 128,-1,39
 1090 748 1090 748 1138 748 c 0,40,41
 1185 748 1185 748 1214 790 c 0,42,43
 1228 809 1228 809 1235.5 835 c 128,-1,44
 1243 861 1243 861 1243 888 c 0,45,46
 1243 947 1243 947 1217 988 c 1,47,48
 1191 1032 1191 1032 1141 1032 c 0,49,50
 1035 1032 1035 1032 1035 886 c 0,37,38
1236 323 m 1,51,52
 1319 286 1319 286 1387 210 c 0,53,54
 1458 132 1458 132 1458 34 c 0,55,56
 1458 -164 1458 -164 1222 -263 c 0,57,58
 1061 -330 1061 -330 829 -330 c 0,59,60
 697 -330 697 -330 595.5 -311.5 c 128,-1,61
 494 -293 494 -293 413 -260 c 1,62,63
 297 -209 297 -209 236 -135 c 128,-1,64
 175 -61 175 -61 175 34 c 0,65,66
 175 84 175 84 192.5 127.5 c 128,-1,67
 210 171 210 171 245 210 c 0,68,69
 318 290 318 290 399 326 c 1,70,71
 354 349 354 349 313.5 387.5 c 128,-1,72
 273 426 273 426 239 482 c 0,73,74
 170 592 170 592 170 753 c 0,75,76
 170 915 170 915 259 1029 c 0,77,78
 347 1143 347 1143 496 1143 c 0,79,80
 553 1143 553 1143 599 1126 c 128,-1,81
 645 1109 645 1109 681 1077 c 1,82,83
 753 1010 753 1010 753 894 c 0,84,85
 753 779 753 779 680 708 c 0,86,87
 609 638 609 638 509 638 c 0,88,89
 412 638 412 638 356 690 c 0,90,91
 352 693 352 693 347 700 c 128,-1,92
 342 707 342 707 334 715 c 1,93,94
 377 377 377 377 826 380 c 1,95,96
 1258 380 1258 380 1299 725 c 1,97,98
 1290 712 1290 712 1283 704 c 128,-1,99
 1276 696 1276 696 1271 690 c 1,100,101
 1217 649 1217 649 1169.5 644.5 c 128,-1,102
 1122 640 1122 640 1120 640 c 0,103,104
 1023 640 1023 640 951 709 c 0,105,106
 879 777 879 777 879 893 c 0,107,108
 879 1007 879 1007 952 1077 c 1,109,110
 1025 1143 1025 1143 1136 1143 c 0,111,112
 1285 1143 1285 1143 1374 1029 c 0,113,114
 1462 915 1462 915 1462 753 c 0,115,116
 1462 593 1462 593 1393 482 c 1,117,118
 1326 372 1326 372 1236 328 c 1,119,-1
 1236 323 l 1,51,52
EndSplineSet
EndChar

StartChar: ml_li
Encoding: 3340 3340 132
Width: 2255
Flags: W
LayerCount: 2
Fore
SplineSet
364 384 m 0,0,1
 364 248 364 248 422 166 c 1,2,3
 479 82 479 82 583 82 c 256,4,5
 687 82 687 82 744 159 c 1,6,7
 801 234 801 234 801 358 c 0,8,9
 801 493 801 493 744 566 c 0,10,11
 687 640 687 640 584 640 c 0,12,13
 480 640 480 640 423 565 c 1,14,15
 364 492 364 492 364 384 c 0,0,1
1986 566 m 0,16,17
 1928 640 1928 640 1825 640 c 256,18,19
 1722 640 1722 640 1664 567 c 0,20,21
 1608 495 1608 495 1608 361 c 0,22,23
 1608 240 1608 240 1664 166 c 0,24,25
 1722 90 1722 90 1826 90 c 0,26,27
 1929 90 1929 90 1987 172 c 0,28,29
 2044 254 2044 254 2044 387 c 0,30,31
 2044 493 2044 493 1986 566 c 0,16,17
1396 964 m 1,33,34
 1297 888 1297 888 1297 796 c 2,35,-1
 1297 10 l 1,36,-1
 1114 10 l 1,37,-1
 1115 799 l 2,38,39
 1115 891 1115 891 1013 966 c 1,40,41
 914 1041 914 1041 772 1036 c 1,42,43
 569 1035 569 1035 455 916 c 0,44,45
 342 797 342 797 347 637 c 1,46,47
 387 678 387 678 413 694 c 0,48,49
 456 722 456 722 504 736 c 128,-1,50
 552 750 552 750 607 750 c 0,51,52
 757 750 757 750 862 646 c 0,53,54
 967 541 967 541 967 377 c 0,55,56
 967 188 967 188 869 76 c 1,57,58
 771 -33 771 -33 596 -33 c 0,59,60
 378 -33 378 -33 262 145 c 0,61,62
 170 287 170 287 170 523 c 2,63,-1
 170 552 l 2,64,65
 170 825 170 825 334 985 c 0,66,67
 499 1146 499 1146 777 1151 c 1,68,69
 859 1150 859 1150 913.5 1138 c 128,-1,70
 968 1126 968 1126 1015 1109 c 1,71,72
 1085 1076 1085 1076 1134 1037.5 c 128,-1,73
 1183 999 1183 999 1213 956 c 1,74,75
 1355 1154 1355 1154 1632 1151 c 1,76,77
 1910 1146 1910 1146 2075 985 c 0,78,79
 2238 825 2238 825 2238 552 c 2,80,-1
 2238 523 l 2,81,82
 2238 287 2238 287 2147 145 c 1,83,84
 2031 -33 2031 -33 1812 -33 c 0,85,86
 1638 -33 1638 -33 1539 76 c 1,87,88
 1442 188 1442 188 1442 377 c 0,89,90
 1442 541 1442 541 1546 646 c 1,91,92
 1651 750 1651 750 1802 750 c 0,93,94
 1856 750 1856 750 1904.5 736 c 128,-1,95
 1953 722 1953 722 1996 694 c 0,96,97
 2021 678 2021 678 2061 637 c 1,98,99
 2067 797 2067 797 1954 916 c 0,100,101
 1840 1035 1840 1035 1637 1036 c 1,102,32
 1490 1031 1490 1031 1396 964 c 1,33,34
EndSplineSet
EndChar

StartChar: ml_e
Encoding: 3342 3342 134
Width: 2546
Flags: W
LayerCount: 2
Fore
SplineSet
1783 2 m 1,0,-1
 1374 2 l 1,1,2
 1386 -134 1386 -134 1429 -223 c 0,3,4
 1493 -356 1493 -356 1642 -356 c 0,5,6
 1788 -356 1788 -356 1788 -139 c 0,7,8
 1788 -99 1788 -99 1786 -63 c 0,9,10
 1783 -9 1783 -9 1783 2 c 1,0,-1
2514 9 m 0,12,13
 2501 -100 2501 -100 2471 -186 c 0,14,15
 2454 -232 2454 -232 2428 -278.5 c 128,-1,16
 2402 -325 2402 -325 2371 -366 c 1,17,18
 2329 -414 2329 -414 2284 -446.5 c 128,-1,19
 2239 -479 2239 -479 2211 -492 c 1,20,-1
 2129 -397 l 1,21,22
 2211 -366 2211 -366 2268.5 -239 c 128,-1,23
 2326 -112 2326 -112 2337 113 c 0,24,25
 2339 164 2339 164 2341 341 c 1,26,27
 2341 640 2341 640 2247 817 c 1,28,29
 2127 1029 2127 1029 1861 1029 c 1,30,31
 1621 1028 1621 1028 1493.5 858.5 c 128,-1,32
 1366 689 1366 689 1366 241 c 2,33,-1
 1366 113 l 1,34,-1
 1784 113 l 1,35,-1
 1785 918 l 1,36,-1
 1960 916 l 1,37,-1
 1961 7 l 2,38,39
 1961 -216 1961 -216 1927 -302 c 0,40,41
 1864 -466 1864 -466 1626 -466 c 0,42,43
 1409 -466 1409 -466 1295 -301 c 1,44,45
 1214 -179 1214 -179 1189 0 c 1,46,-1
 641 0 l 1,47,-1
 613 87 l 1,48,-1
 635 100 l 1,49,50
 782 177 782 177 779 369 c 1,51,52
 779 485 779 485 724.5 554 c 128,-1,53
 670 623 670 623 568 628 c 1,54,55
 461 628 461 628 405 558 c 128,-1,56
 349 488 349 488 349 375 c 0,57,58
 349 166 349 166 489 100 c 1,59,-1
 521 89 l 1,60,-1
 478 -11 l 1,61,-1
 430 5 l 1,62,63
 307 48 307 48 238.5 132.5 c 128,-1,64
 170 217 170 217 170 381 c 0,65,66
 170 543 170 543 283.5 641.5 c 128,-1,67
 397 740 397 740 569 740 c 256,68,69
 741 740 741 740 851 641.5 c 128,-1,70
 961 543 961 543 961 382 c 0,71,72
 961 220 961 220 855 111 c 1,73,-1
 1175 111 l 1,74,-1
 1175 113 l 1,75,76
 1174 198 1174 198 1173 263 c 1,77,78
 1173 638 1173 638 1320 868 c 0,79,80
 1500 1150 1500 1150 1858 1150 c 0,81,82
 2215 1150 2215 1150 2386 901 c 0,83,84
 2529 694 2529 694 2529 342 c 1,85,11
 2527 113 2527 113 2514 9 c 0,12,13
EndSplineSet
EndChar

StartChar: ml_ee
Encoding: 3343 3343 135
Width: 2527
Flags: W
LayerCount: 2
Fore
SplineSet
1744 2 m 1,0,-1
 1374 2 l 1,1,2
 1386 -134 1386 -134 1429 -223 c 0,3,4
 1493 -356 1493 -356 1622 -356 c 0,5,6
 1749 -356 1749 -356 1749 -139 c 0,7,8
 1749 -99 1749 -99 1747 -63 c 0,9,10
 1744 -9 1744 -9 1744 2 c 1,0,-1
2468 658 m 1,11,12
 2468 582 2468 582 2439.5 516.5 c 128,-1,13
 2411 451 2411 451 2356 392 c 1,14,15
 2317 355 2317 355 2308 349 c 1,16,17
 2511 247 2511 247 2511 -59 c 0,18,19
 2511 -234 2511 -234 2411 -349 c 1,20,21
 2313 -467 2313 -467 2124 -471 c 1,22,23
 2061 -466 2061 -466 2013 -445 c 1,24,-1
 2013 -333 l 1,25,26
 2076 -347 2076 -347 2123 -348 c 0,27,28
 2216 -351 2216 -351 2272 -262 c 1,29,30
 2326 -163 2326 -163 2326 -59 c 0,31,32
 2326 206 2326 206 2152 267 c 1,33,34
 2141 269 2141 269 2128.5 270.5 c 128,-1,35
 2116 272 2116 272 2101 272 c 0,36,37
 2070 272 2070 272 2031 266 c 0,38,39
 2026 265 2026 265 2020.5 264 c 128,-1,40
 2015 263 2015 263 2010 261 c 1,41,-1
 2010 427 l 1,42,43
 2018 425 2018 425 2025 423 c 128,-1,44
 2032 421 2032 421 2040 419 c 0,45,46
 2072 411 2072 411 2101 411 c 0,47,48
 2129 411 2129 411 2153 419 c 1,49,50
 2284 479 2284 479 2284 660 c 0,51,52
 2284 739 2284 739 2247 817 c 1,53,54
 2127 1029 2127 1029 1861 1029 c 1,55,56
 1621 1028 1621 1028 1493.5 858.5 c 128,-1,57
 1366 689 1366 689 1366 241 c 2,58,-1
 1366 113 l 1,59,-1
 1745 113 l 1,60,-1
 1746 918 l 1,61,-1
 1921 916 l 1,62,-1
 1922 7 l 2,63,64
 1922 -216 1922 -216 1888 -302 c 0,65,66
 1825 -466 1825 -466 1607 -466 c 0,67,68
 1409 -466 1409 -466 1295 -301 c 1,69,70
 1214 -179 1214 -179 1189 0 c 1,71,-1
 641 0 l 1,72,-1
 613 87 l 1,73,-1
 635 100 l 1,74,75
 782 177 782 177 779 369 c 1,76,77
 779 485 779 485 724.5 554 c 128,-1,78
 670 623 670 623 568 628 c 1,79,80
 461 628 461 628 405 558 c 128,-1,81
 349 488 349 488 349 375 c 0,82,83
 349 166 349 166 489 100 c 1,84,-1
 521 89 l 1,85,-1
 478 -11 l 1,86,-1
 430 5 l 1,87,88
 307 48 307 48 238.5 132.5 c 128,-1,89
 170 217 170 217 170 381 c 0,90,91
 170 543 170 543 283.5 641.5 c 128,-1,92
 397 740 397 740 569 740 c 256,93,94
 741 740 741 740 851 641.5 c 128,-1,95
 961 543 961 543 961 382 c 0,96,97
 961 220 961 220 855 111 c 1,98,-1
 1175 111 l 1,99,-1
 1175 113 l 1,100,101
 1174 198 1174 198 1173 263 c 1,102,103
 1173 638 1173 638 1320 868 c 0,104,105
 1500 1150 1500 1150 1858 1150 c 0,106,107
 2207 1150 2207 1150 2392 908 c 1,108,109
 2463 820 2463 820 2468 658 c 1,11,12
EndSplineSet
EndChar

StartChar: ml_o
Encoding: 3346 3346 138
Width: 1485
Flags: W
LayerCount: 2
Fore
SplineSet
773 339 m 0,0,1
 773 430 773 430 731 501 c 0,2,3
 688 572 688 572 590 580 c 0,4,5
 493 588 493 588 424 534 c 1,6,7
 353 481 353 481 347 419 c 1,8,9
 349 320 349 320 388 250 c 0,10,11
 466 113 466 113 591 113 c 0,12,13
 773 113 773 113 773 339 c 0,0,1
350 625 m 1,14,15
 450 702 450 702 593 702 c 0,16,17
 737 702 737 702 841 608 c 1,18,19
 944 512 944 512 944 343 c 0,20,21
 944 183 944 183 854 86 c 1,22,23
 752 -14 752 -14 596 -14 c 0,24,25
 486 -14 486 -14 400.5 39 c 128,-1,26
 315 92 315 92 257 193 c 1,27,28
 218 264 218 264 196 349.5 c 128,-1,29
 174 435 174 435 172 517 c 1,30,-1
 170 548 l 1,31,32
 170 607 170 607 176 658 c 1,33,34
 193 751 193 751 235.5 831 c 128,-1,35
 278 911 278 911 339 972 c 1,36,37
 430 1059 430 1059 554.5 1106.5 c 128,-1,38
 679 1154 679 1154 828 1154 c 0,39,40
 860 1154 860 1154 892 1153 c 128,-1,41
 924 1152 924 1152 958 1148 c 128,-1,42
 992 1144 992 1144 1029 1136 c 128,-1,43
 1066 1128 1066 1128 1109 1117 c 1,44,45
 1190 1092 1190 1092 1273 1039 c 1,46,47
 1439 927 1439 927 1439 750 c 0,48,49
 1439 713 1439 713 1429 681 c 128,-1,50
 1419 649 1419 649 1400 619 c 1,51,52
 1361 563 1361 563 1330 546 c 1,53,54
 1468 464 1468 464 1468 299 c 0,55,56
 1468 223 1468 223 1428 161.5 c 128,-1,57
 1388 100 1388 100 1314 57 c 1,58,59
 1251 22 1251 22 1182 3.5 c 128,-1,60
 1113 -15 1113 -15 1038 -15 c 1,61,62
 1026 15 1026 15 1014.5 43 c 128,-1,63
 1003 71 1003 71 991 99 c 1,64,65
 1127 99 1127 99 1214 157 c 1,66,67
 1296 220 1296 220 1296 310 c 0,68,69
 1296 407 1296 407 1249 451 c 1,70,71
 1213 480 1213 480 1133 480 c 0,72,73
 1122 480 1122 480 1101 479 c 128,-1,74
 1080 478 1080 478 1049 476 c 1,75,-1
 1049 610 l 1,76,77
 1058 610 1058 610 1070 609.5 c 128,-1,78
 1082 609 1082 609 1090 609 c 0,79,80
 1105 608 1105 608 1116 608 c 128,-1,81
 1127 608 1127 608 1134 608 c 0,82,83
 1145 608 1145 608 1157.5 609.5 c 128,-1,84
 1170 611 1170 611 1183 615 c 0,85,86
 1211 622 1211 622 1238 659 c 256,87,88
 1265 696 1265 696 1265 762 c 0,89,90
 1265 838 1265 838 1187 920 c 1,91,92
 1054 1043 1054 1043 825 1044 c 1,93,94
 705 1041 705 1041 610.5 999.5 c 128,-1,95
 516 958 516 958 451 884 c 1,96,97
 399 823 399 823 372 757.5 c 128,-1,98
 345 692 345 692 346 627 c 1,99,-1
 350 625 l 1,14,15
EndSplineSet
EndChar

StartChar: ml_ka
Encoding: 3349 3349 141
Width: 1942
Flags: W
LayerCount: 2
Fore
SplineSet
690 265 m 1,1,2
 654 336 654 336 631.5 412 c 128,-1,3
 609 488 609 488 605 552 c 1,4,-1
 532 552 l 2,5,6
 449 552 449 552 391 481 c 1,7,8
 344 415 344 415 344 338 c 0,9,10
 344 128 344 128 520 128 c 1,11,0
 592 133 592 133 690 265 c 1,1,2
600 670 m 1,12,13
 611 847 611 847 692 965 c 1,14,15
 814 1147 814 1147 1049 1156 c 1,16,17
 1274 1145 1274 1145 1389 974 c 0,18,19
 1474 846 1474 846 1485 670 c 1,20,-1
 1538 670 l 2,21,22
 1604 670 1604 670 1678 651 c 1,23,24
 1750 634 1750 634 1801 596 c 1,25,26
 1848 565 1848 565 1886.5 496 c 128,-1,27
 1925 427 1925 427 1925 340 c 0,28,29
 1925 258 1925 258 1886 192 c 128,-1,30
 1847 126 1847 126 1777 80 c 1,31,32
 1723 49 1723 49 1664 32 c 128,-1,33
 1605 15 1605 15 1546 15 c 0,34,35
 1521 15 1521 15 1498 18.5 c 128,-1,36
 1475 22 1475 22 1450 31 c 1,37,-1
 1425 150 l 1,38,39
 1456 141 1456 141 1483.5 137.5 c 128,-1,40
 1511 134 1511 134 1533 134 c 0,41,42
 1558 134 1558 134 1573 138 c 0,43,44
 1602 145 1602 145 1624.5 156 c 128,-1,45
 1647 167 1647 167 1666 179 c 1,46,47
 1743 240 1743 240 1743 333 c 0,48,49
 1743 427 1743 427 1690 492 c 1,50,51
 1638 548 1638 548 1538 552 c 1,52,-1
 1488 552 l 1,53,54
 1485 449 1485 449 1450.5 352.5 c 128,-1,55
 1416 256 1416 256 1357 175 c 1,56,57
 1290 92 1290 92 1213 49 c 128,-1,58
 1136 6 1136 6 1052 6 c 0,59,60
 881 6 881 6 752 163 c 1,61,62
 723 108 723 108 651 56 c 1,63,64
 582 14 582 14 520 9 c 1,65,66
 454 9 454 9 393 31 c 128,-1,67
 332 53 332 53 277 96 c 1,68,69
 227 139 227 139 198.5 197.5 c 128,-1,70
 170 256 170 256 170 324 c 0,71,72
 170 466 170 466 270 562 c 0,73,74
 381 670 381 670 538 670 c 2,75,-1
 600 670 l 1,12,13
781 663 m 1,76,-1
 1304 663 l 1,77,78
 1300 785 1300 785 1278 860 c 1,79,80
 1253 941 1253 941 1193.5 986.5 c 128,-1,81
 1134 1032 1134 1032 1058 1032 c 0,82,83
 785 1031 785 1031 781 663 c 1,76,-1
787 545 m 1,84,85
 793 374 793 374 860 245 c 1,86,87
 897 187 897 187 944 151 c 128,-1,88
 991 115 991 115 1046 115 c 0,89,90
 1157 115 1157 115 1230 245 c 1,91,92
 1299 375 1299 375 1305 545 c 1,93,-1
 787 545 l 1,84,85
EndSplineSet
EndChar

StartChar: ml_kha
Encoding: 3350 3350 142
Width: 1955
Flags: W
LayerCount: 2
Fore
SplineSet
584 643 m 0,0,1
 480 643 480 643 423 566 c 1,2,3
 363 491 363 491 363 383 c 0,4,5
 363 274 363 274 422 190 c 1,6,7
 479 105 479 105 583 105 c 256,8,9
 687 105 687 105 744 183 c 0,10,11
 801 260 801 260 801 375 c 0,12,13
 801 493 801 493 744 567 c 1,14,15
 687 643 687 643 584 643 c 0,0,1
1216 972 m 1,16,17
 1391 793 1391 793 1391 532 c 0,18,19
 1391 477 1391 477 1377 418 c 128,-1,20
 1363 359 1363 359 1336 298 c 1,21,22
 1310 242 1310 242 1279.5 196 c 128,-1,23
 1249 150 1249 150 1218 122 c 1,24,-1
 1748 122 l 1,25,-1
 1748 1154 l 1,26,-1
 1929 1154 l 1,27,-1
 1929 4 l 1,28,-1
 1056 4 l 1,29,30
 1040 23 1040 23 1025.5 41 c 128,-1,31
 1011 59 1011 59 995 78 c 1,32,33
 1099 174 1099 174 1154 287.5 c 128,-1,34
 1209 401 1209 401 1209 532 c 0,35,36
 1209 724 1209 724 1103 874 c 1,37,38
 985 1028 985 1028 783 1039 c 1,39,40
 568 1037 568 1037 455 920 c 1,41,42
 340 798 340 798 342 635 c 1,43,44
 379 677 379 677 413 696 c 1,45,46
 456 725 456 725 504 739 c 128,-1,47
 552 753 552 753 606 753 c 0,48,49
 757 753 757 753 861 649 c 0,50,51
 967 543 967 543 967 379 c 0,52,53
 967 297 967 297 942.5 230 c 128,-1,54
 918 163 918 163 868 106 c 0,55,56
 770 -5 770 -5 595 -5 c 0,57,58
 376 -5 376 -5 262 175 c 1,59,60
 170 316 170 316 170 525 c 2,61,-1
 170 554 l 2,62,63
 170 829 170 829 337 992 c 1,64,65
 495 1155 495 1155 791 1158 c 1,66,67
 1054 1151 1054 1151 1216 972 c 1,16,17
EndSplineSet
EndChar

StartChar: ml_ga
Encoding: 3351 3351 143
Width: 1811
Flags: W
LayerCount: 2
Fore
SplineSet
347 542 m 1,0,1
 338 385 338 385 424 235 c 1,2,3
 496 105 496 105 640 105 c 0,4,5
 892 105 892 105 892 543 c 0,6,7
 892 1153 892 1153 1323 1153 c 0,8,9
 1429 1153 1429 1153 1519 1103.5 c 128,-1,10
 1609 1054 1609 1054 1680 966 c 1,11,12
 1728 896 1728 896 1757.5 814 c 128,-1,13
 1787 732 1787 732 1794 648 c 1,14,-1
 1794 602 l 1,15,16
 1795 171 1795 171 1441 -18 c 1,17,-1
 1405 -34 l 1,18,-1
 1336 91 l 1,19,-1
 1376 106 l 1,20,21
 1603 217 1603 217 1616 541 c 1,22,23
 1635 782 1635 782 1552 891 c 1,24,25
 1471 1033 1471 1033 1322 1033 c 0,26,27
 1251 1033 1251 1033 1199 996 c 128,-1,28
 1147 959 1147 959 1119 893 c 1,29,30
 1097 837 1097 837 1085.5 748.5 c 128,-1,31
 1074 660 1074 660 1074 543 c 0,32,33
 1074 317 1074 317 972 163 c 1,34,-1
 973 163 l 1,35,36
 847 -15 847 -15 638 -15 c 0,37,38
 428 -15 428 -15 299 156 c 1,39,40
 176 306 176 306 170 527 c 1,41,-1
 171 527 l 1,42,-1
 171 528 l 1,43,44
 170 959 170 959 524 1147 c 1,45,-1
 560 1164 l 1,46,-1
 628 1039 l 1,47,-1
 588 1024 l 1,48,49
 362 912 362 912 347 542 c 1,0,1
EndSplineSet
EndChar

StartChar: ml_gha
Encoding: 3352 3352 144
Width: 2810
Flags: W
LayerCount: 2
Fore
SplineSet
1941 482 m 1,0,-1
 1941 673 l 1,1,2
 1939 740 1939 740 1938 779.5 c 128,-1,3
 1937 819 1937 819 1936 829 c 0,4,5
 1931 865 1931 865 1917 896 c 128,-1,6
 1903 927 1903 927 1879 951 c 0,7,8
 1842 987 1842 987 1791 1007.5 c 128,-1,9
 1740 1028 1740 1028 1680 1028 c 0,10,11
 1554 1028 1554 1028 1489 954 c 1,12,13
 1425 879 1425 879 1425 704 c 2,14,-1
 1425 482 l 1,15,-1
 1941 482 l 1,0,-1
1245 484 m 1,16,-1
 1245 691 l 2,17,18
 1245 912 1245 912 1323 1004 c 1,19,20
 1446 1152 1446 1152 1673 1151 c 0,21,22
 1788 1150 1788 1150 1875.5 1113 c 128,-1,23
 1963 1076 1963 1076 2025 1004 c 1,24,25
 2066 953 2066 953 2086.5 869.5 c 128,-1,26
 2107 786 2107 786 2107 673 c 2,27,-1
 2107 367 l 1,28,-1
 1425 367 l 1,29,-1
 1425 113 l 1,30,-1
 2605 113 l 1,31,-1
 2602 1145 l 1,32,-1
 2784 1145 l 1,33,-1
 2785 -4 l 1,34,-1
 1240 -4 l 1,35,-1
 1240 373 l 1,36,-1
 641 373 l 1,37,-1
 613 459 l 1,38,-1
 635 473 l 1,39,40
 782 550 782 550 779 742 c 1,41,42
 779 857 779 857 724.5 926.5 c 128,-1,43
 670 996 670 996 568 1001 c 1,44,45
 461 1001 461 1001 405 930.5 c 128,-1,46
 349 860 349 860 349 748 c 0,47,48
 349 538 349 538 489 473 c 1,49,-1
 521 461 l 1,50,-1
 478 362 l 1,51,-1
 430 377 l 1,52,53
 307 420 307 420 238.5 505.5 c 128,-1,54
 170 591 170 591 170 754 c 0,55,56
 170 916 170 916 283.5 1014.5 c 128,-1,57
 397 1113 397 1113 569 1113 c 256,58,59
 741 1113 741 1113 851 1014.5 c 128,-1,60
 961 916 961 916 961 755 c 256,61,62
 961 594 961 594 855 484 c 1,63,-1
 1245 484 l 1,16,-1
EndSplineSet
EndChar

StartChar: ml_nga
Encoding: 3353 3353 145
Width: 2107
Flags: W
LayerCount: 2
Fore
SplineSet
584 640 m 256,0,1
 480 640 480 640 423 563 c 1,2,3
 363 490 363 490 363 372 c 0,4,5
 363 317 363 317 377 269.5 c 128,-1,6
 391 222 391 222 422 179 c 1,7,8
 479 95 479 95 584 95 c 0,9,10
 688 95 688 95 744 173 c 1,11,12
 801 250 801 250 801 364 c 0,13,14
 801 491 801 491 744 564 c 1,15,16
 688 640 688 640 584 640 c 256,0,1
774 1152 m 1,17,18
 839 1150 839 1150 895.5 1137.5 c 128,-1,19
 952 1125 952 1125 1002 1101.5 c 128,-1,20
 1052 1078 1052 1078 1095.5 1041.5 c 128,-1,21
 1139 1005 1139 1005 1179 957 c 1,22,23
 1218 1013 1218 1013 1272.5 1052 c 128,-1,24
 1327 1091 1327 1091 1399 1115 c 0,25,26
 1507 1150 1507 1150 1619 1150 c 0,27,28
 1726 1150 1726 1150 1810 1127 c 128,-1,29
 1894 1104 1894 1104 1957 1058 c 1,30,31
 2081 970 2081 970 2081 809 c 0,32,33
 2081 650 2081 650 1953 558 c 1,34,35
 2014 528 2014 528 2052 468.5 c 128,-1,36
 2090 409 2090 409 2090 318 c 0,37,38
 2090 143 2090 143 1941 53 c 1,39,40
 1831 -15 1831 -15 1686 -15 c 0,41,42
 1549 -15 1549 -15 1411 65 c 1,43,-1
 1502 160 l 1,44,45
 1539 127 1539 127 1577 114.5 c 128,-1,46
 1615 102 1615 102 1674 102 c 0,47,48
 1792 102 1792 102 1857 172 c 0,49,50
 1915 234 1915 234 1915 300 c 0,51,52
 1915 333 1915 333 1899.5 366.5 c 128,-1,53
 1884 400 1884 400 1856 430 c 0,54,55
 1827 461 1827 461 1787.5 478 c 128,-1,56
 1748 495 1748 495 1699 495 c 2,57,-1
 1540 495 l 1,58,-1
 1540 628 l 1,59,-1
 1699 628 l 2,60,61
 1745 628 1745 628 1780 643 c 128,-1,62
 1815 658 1815 658 1844 689 c 0,63,64
 1899 748 1899 748 1899 821 c 0,65,66
 1899 892 1899 892 1845 953 c 1,67,68
 1810 991 1810 991 1755.5 1012 c 128,-1,69
 1701 1033 1701 1033 1628 1033 c 0,70,71
 1481 1033 1481 1033 1376 962 c 1,72,73
 1327 927 1327 927 1300 884 c 128,-1,74
 1273 841 1273 841 1273 792 c 0,75,76
 1273 594 1273 594 1272.5 397.5 c 128,-1,77
 1272 201 1272 201 1272 3 c 1,78,-1
 1090 3 l 1,79,-1
 1089 785 l 2,80,81
 1089 835 1089 835 1066 879.5 c 128,-1,82
 1043 924 1043 924 1002 959 c 1,83,84
 918 1027 918 1027 757 1034 c 1,85,86
 571 1028 571 1028 456 915 c 1,87,88
 340 795 340 795 344 638 c 1,89,90
 359 659 359 659 413 693 c 0,91,92
 457 721 457 721 504.5 735 c 128,-1,93
 552 749 552 749 607 749 c 0,94,95
 757 749 757 749 861 646 c 1,96,97
 967 539 967 539 967 368 c 0,98,99
 967 286 967 286 942.5 219 c 128,-1,100
 918 152 918 152 868 96 c 0,101,102
 770 -15 770 -15 596 -15 c 0,103,104
 377 -15 377 -15 263 165 c 1,105,106
 170 306 170 306 170 522 c 2,107,-1
 170 552 l 2,108,109
 170 825 170 825 331 982 c 1,110,111
 494 1138 494 1138 774 1152 c 1,17,18
EndSplineSet
EndChar

StartChar: ml_ca
Encoding: 3354 3354 146
Width: 1858
Flags: W
LayerCount: 2
Fore
SplineSet
1833 5 m 1,0,-1
 170 5 l 1,1,-1
 170 120 l 1,2,-1
 779 120 l 1,3,4
 938 177 938 177 938 395 c 0,5,6
 938 487 938 487 886 559 c 1,7,8
 859 594 859 594 819.5 613 c 128,-1,9
 780 632 780 632 729 632 c 0,10,11
 624 632 624 632 576 567 c 256,12,13
 528 502 528 502 528 413 c 256,14,15
 528 324 528 324 586 249 c 1,16,17
 560 235 560 235 535.5 222 c 128,-1,18
 511 209 511 209 485 195 c 1,19,20
 425 231 425 231 392.5 287 c 128,-1,21
 360 343 360 343 360 417 c 0,22,23
 360 496 360 496 393 560.5 c 128,-1,24
 426 625 426 625 488 672 c 1,25,26
 544 708 544 708 605 728.5 c 128,-1,27
 666 749 666 749 727 749 c 0,28,29
 888 749 888 749 1001 654 c 1,30,-1
 1001 655 l 1,31,32
 1119 551 1119 551 1119 392 c 256,33,34
 1119 233 1119 233 980 120 c 1,35,-1
 1652 120 l 1,36,-1
 1652 1136 l 1,37,-1
 1833 1136 l 1,38,-1
 1833 5 l 1,0,-1
EndSplineSet
EndChar

StartChar: ml_cha
Encoding: 3355 3355 147
Width: 2671
Flags: W
LayerCount: 2
Fore
SplineSet
2022 375 m 0,0,1
 2022 261 2022 261 2078 183 c 0,2,3
 2107 144 2107 144 2147 124.5 c 128,-1,4
 2187 105 2187 105 2239 105 c 0,5,6
 2344 105 2344 105 2402 190 c 1,7,8
 2460 273 2460 273 2460 383 c 0,9,10
 2460 492 2460 492 2401 566 c 1,11,12
 2343 643 2343 643 2238 643 c 0,13,14
 2137 643 2137 643 2078 567 c 1,15,16
 2022 492 2022 492 2022 375 c 0,0,1
2071 1037 m 0,17,18
 1820 1039 1820 1039 1690 869 c 1,19,20
 1638 793 1638 793 1612 709 c 128,-1,21
 1586 625 1586 625 1586 529 c 0,22,23
 1586 399 1586 399 1640.5 286 c 128,-1,24
 1695 173 1695 173 1794 91 c 1,25,-1
 1740 4 l 1,26,-1
 170 4 l 1,27,-1
 170 120 l 1,28,-1
 779 120 l 1,29,30
 938 177 938 177 938 393 c 0,31,32
 938 484 938 484 886 556 c 0,33,34
 860 591 860 591 820 610 c 128,-1,35
 780 629 780 629 729 629 c 0,36,37
 626 629 626 629 577 563 c 0,38,39
 528 498 528 498 528 410 c 0,40,41
 528 365 528 365 542 325.5 c 128,-1,42
 556 286 556 286 587 248 c 1,43,44
 561 234 561 234 536 221 c 128,-1,45
 511 208 511 208 485 194 c 1,46,47
 425 230 425 230 392.5 285.5 c 128,-1,48
 360 341 360 341 360 415 c 0,49,50
 360 493 360 493 393 557.5 c 128,-1,51
 426 622 426 622 488 669 c 1,52,53
 544 704 544 704 605 724.5 c 128,-1,54
 666 745 666 745 727 745 c 0,55,56
 889 745 889 745 1001 650 c 1,57,-1
 1001 651 l 1,58,59
 1120 547 1120 547 1120 390 c 0,60,61
 1120 232 1120 232 980 120 c 1,62,-1
 1067 120 l 1,63,-1
 1575 121 l 1,64,65
 1546 148 1546 148 1516 193 c 128,-1,66
 1486 238 1486 238 1457 297 c 1,67,68
 1404 418 1404 418 1404 529 c 0,69,70
 1404 662 1404 662 1447 770.5 c 128,-1,71
 1490 879 1490 879 1578 968 c 0,72,73
 1757 1147 1757 1147 2049 1152 c 1,74,75
 2183 1145 2183 1145 2295 1103 c 128,-1,76
 2407 1061 2407 1061 2486 987 c 1,77,78
 2654 824 2654 824 2654 552 c 2,79,-1
 2654 522 l 2,80,81
 2654 418 2654 418 2631 332 c 128,-1,82
 2608 246 2608 246 2561 174 c 0,83,84
 2447 -5 2447 -5 2227 -5 c 0,85,86
 2053 -5 2053 -5 1955 105 c 1,87,88
 1906 162 1906 162 1881.5 228.5 c 128,-1,89
 1857 295 1857 295 1857 377 c 0,90,91
 1857 539 1857 539 1961 646 c 1,92,93
 2065 749 2065 749 2217 749 c 1,94,95
 2331 752 2331 752 2411 708 c 1,96,97
 2464 681 2464 681 2486 662 c 1,98,99
 2482 795 2482 795 2368 915 c 0,100,101
 2310 975 2310 975 2235.5 1006 c 128,-1,102
 2161 1037 2161 1037 2071 1037 c 0,17,18
EndSplineSet
EndChar

StartChar: ml_ja
Encoding: 3356 3356 148
Width: 1910
Flags: W
LayerCount: 2
Fore
SplineSet
1052 323 m 1,0,-1
 546 323 l 2,1,2
 458 323 458 323 411 284 c 128,-1,3
 364 245 364 245 364 184 c 0,4,5
 364 45 364 45 541 45 c 0,6,7
 741 45 741 45 951 135 c 1,8,9
 1088 204 1088 204 1352 328 c 1,10,11
 1230 322 1230 322 1052 323 c 1,0,-1
490 574 m 0,12,13
 613 574 613 574 613 718 c 0,14,15
 613 779 613 779 582.5 811.5 c 128,-1,16
 552 844 552 844 493 844 c 0,17,18
 431 844 431 844 401.5 809.5 c 128,-1,19
 372 775 372 775 372 721 c 0,20,21
 372 650 372 650 400 612 c 128,-1,22
 428 574 428 574 490 574 c 0,12,13
1735 167 m 0,23,24
 1735 278 1735 278 1612 278 c 0,25,26
 1505 278 1505 278 1340 180 c 1,27,28
 1387 39 1387 39 1562 39 c 0,29,30
 1735 39 1735 39 1735 167 c 0,23,24
1039 1007 m 1,32,33
 1190 1155 1190 1155 1413 1155 c 1,34,35
 1615 1157 1615 1157 1758.5 1044.5 c 128,-1,36
 1902 932 1902 932 1902 757 c 0,37,38
 1902 492 1902 492 1664 393 c 1,39,40
 1758 383 1758 383 1816 330 c 0,41,42
 1887 264 1887 264 1887 150 c 256,43,44
 1887 36 1887 36 1795 -31 c 128,-1,45
 1703 -98 1703 -98 1567 -98 c 0,46,47
 1429 -98 1429 -98 1326 -38.5 c 128,-1,48
 1223 21 1223 21 1181 118 c 1,49,50
 972 13 972 13 892 -12 c 1,51,52
 716 -81 716 -81 530 -81 c 0,53,54
 369 -81 369 -81 276.5 -18 c 128,-1,55
 184 45 184 45 184 168 c 0,56,57
 184 290 184 290 285 360 c 0,58,59
 333 393 333 393 388 409 c 1,60,61
 466 429 466 429 568 429 c 2,62,-1
 1077 429 l 2,63,64
 1379 429 1379 429 1505 475 c 0,65,66
 1698 544 1698 544 1698 751 c 0,67,68
 1698 883 1698 883 1624 958 c 128,-1,69
 1550 1033 1550 1033 1410 1035 c 1,70,71
 1282 1033 1282 1033 1204.5 963.5 c 128,-1,72
 1127 894 1127 894 1127 779 c 2,73,-1
 1127 492 l 1,74,-1
 953 492 l 1,75,-1
 953 721 l 2,76,77
 953 841 953 841 928 888 c 1,78,79
 861 1032 861 1032 645 1035 c 1,80,81
 553 1042 553 1042 492 1023 c 1,82,83
 392 986 392 986 348 894 c 1,84,-1
 350 896 l 1,85,86
 413 938 413 938 518 938 c 0,87,88
 567 938 567 938 613.5 924 c 128,-1,89
 660 910 660 910 692 884 c 1,90,91
 764 821 764 821 771 733 c 1,92,93
 773 610 773 610 696 543 c 1,94,95
 622 472 622 472 480 472 c 1,96,97
 342 474 342 474 259 564 c 0,98,99
 178 653 178 653 179 785 c 1,100,101
 179 958 179 958 299 1054 c 1,102,103
 355 1104 355 1104 436.5 1128.5 c 128,-1,104
 518 1153 518 1153 635 1153 c 0,105,106
 678 1153 678 1153 718 1146 c 1,107,31
 928 1122 928 1122 1039 1007 c 1,32,33
EndSplineSet
EndChar

StartChar: ml_jha
Encoding: 3357 3357 149
Width: 3239
Flags: W
LayerCount: 2
Fore
SplineSet
1033 122 m 0,0,1
 1135 122 1135 122 1190 226 c 256,2,3
 1245 330 1245 330 1245 481 c 0,4,5
 1245 800 1245 800 1041 954 c 1,6,7
 988 915 988 915 945.5 861 c 128,-1,8
 903 807 903 807 874 739 c 1,9,10
 822 610 822 610 822 470 c 0,11,12
 822 329 822 329 873 229 c 1,13,14
 930 122 930 122 1033 122 c 0,0,1
2781 2 m 1,15,16
 2560 8 2560 8 2434 185 c 1,17,18
 2271 2 2271 2 2074 2 c 0,19,20
 1944 2 1944 2 1850.5 45.5 c 128,-1,21
 1757 89 1757 89 1701 173 c 1,22,23
 1665 237 1665 237 1645 329 c 128,-1,24
 1625 421 1625 421 1625 537 c 0,25,26
 1625 559 1625 559 1625.5 580 c 128,-1,27
 1626 601 1626 601 1627 619 c 1,28,-1
 1627 675 l 2,29,30
 1627 1039 1627 1039 1343 1039 c 0,31,32
 1261 1039 1261 1039 1167 1004 c 1,33,34
 1190 989 1190 989 1214 966.5 c 128,-1,35
 1238 944 1238 944 1263 913 c 1,36,37
 1285 883 1285 883 1308.5 846 c 128,-1,38
 1332 809 1332 809 1352 772 c 1,39,40
 1386 702 1386 702 1404 626.5 c 128,-1,41
 1422 551 1422 551 1422 471 c 0,42,43
 1422 463 1422 463 1421.5 455.5 c 128,-1,44
 1421 448 1421 448 1421 440 c 0,45,46
 1414 262 1414 262 1298 134 c 1,47,48
 1179 6 1179 6 1027 6 c 0,49,50
 873 6 873 6 756 145 c 0,51,52
 640 284 640 284 640 457 c 0,53,54
 640 542 640 542 663 627 c 128,-1,55
 686 712 686 712 728 790 c 1,56,57
 751 826 751 826 774.5 858.5 c 128,-1,58
 798 891 798 891 823 921 c 1,59,60
 874 977 874 977 916 1006 c 1,61,62
 852 1038 852 1038 765 1038 c 0,63,64
 684 1038 684 1038 613 1002 c 128,-1,65
 542 966 542 966 488 903 c 0,66,67
 436 842 436 842 407 764.5 c 128,-1,68
 378 687 378 687 374 594 c 1,69,70
 386 227 386 227 612 118 c 1,71,-1
 652 102 l 1,72,-1
 584 -21 l 1,73,-1
 548 -4 l 1,74,75
 194 181 194 181 197 634 c 1,76,77
 203 738 203 738 250.5 837 c 128,-1,78
 298 936 298 936 374 1004 c 0,79,80
 458 1078 458 1078 554.5 1117 c 128,-1,81
 651 1156 651 1156 758 1156 c 0,82,83
 828 1156 828 1156 896.5 1138 c 128,-1,84
 965 1120 965 1120 1034 1083 c 1,85,86
 1119 1118 1119 1118 1195 1135.5 c 128,-1,87
 1271 1153 1271 1153 1340 1153 c 0,88,89
 1811 1153 1811 1153 1811 680 c 0,90,91
 1811 672 1811 672 1810.5 659.5 c 128,-1,92
 1810 647 1810 647 1810 639 c 0,93,94
 1809 612 1809 612 1808.5 572 c 128,-1,95
 1808 532 1808 532 1808 475 c 0,96,97
 1808 362 1808 362 1828 288 c 1,98,99
 1850 215 1850 215 1913 167 c 0,100,101
 1977 119 1977 119 2072 119 c 0,102,103
 2120 119 2120 119 2165.5 142 c 128,-1,104
 2211 165 2211 165 2253 208 c 1,105,106
 2292 250 2292 250 2316 290.5 c 128,-1,107
 2340 331 2340 331 2340 364 c 2,108,-1
 2340 1156 l 1,109,-1
 2523 1156 l 1,110,-1
 2523 362 l 2,111,112
 2523 341 2523 341 2540 308 c 128,-1,113
 2557 275 2557 275 2588 232 c 1,114,115
 2630 177 2630 177 2682 148 c 0,116,117
 2727 122 2727 122 2779 120 c 1,118,119
 2924 120 2924 120 3005 253 c 1,120,121
 3082 396 3082 396 3073 551 c 1,122,123
 3057 916 3057 916 2831 1026 c 1,124,-1
 2791 1041 l 1,125,-1
 2859 1164 l 1,126,-1
 2895 1147 l 1,127,128
 3249 962 3249 962 3248 536 c 1,129,-1
 3248 535 l 1,130,-1
 3249 535 l 1,131,132
 3244 317 3244 317 3121 169 c 1,133,134
 2996 8 2996 8 2781 2 c 1,15,16
EndSplineSet
EndChar

StartChar: ml_nya
Encoding: 3358 3358 150
Width: 2885
Flags: W
LayerCount: 2
Fore
SplineSet
364 381 m 0,0,1
 364 244 364 244 422 161 c 1,2,3
 479 76 479 76 583 76 c 256,4,5
 687 76 687 76 744 154 c 1,6,7
 801 230 801 230 801 355 c 0,8,9
 801 492 801 492 744 565 c 1,10,11
 687 640 687 640 584 640 c 0,12,13
 480 640 480 640 423 564 c 1,14,15
 364 490 364 490 364 381 c 0,0,1
1929 97 m 0,16,17
 2018 97 2018 97 2079 206 c 0,18,19
 2141 318 2141 318 2145 451 c 1,20,21
 2145 582 2145 582 2091 712 c 1,22,23
 2039 841 2039 841 1931 924 c 1,24,-1
 1927 924 l 1,25,26
 1816 830 1816 830 1767 712 c 0,27,28
 1714 582 1714 582 1714 451 c 1,29,30
 1718 318 1718 318 1780 206 c 0,31,32
 1841 97 1841 97 1929 97 c 0,16,17
1568 1032 m 1,33,34
 1471 1016 1471 1016 1396 964 c 1,35,36
 1297 888 1297 888 1297 796 c 2,37,-1
 1297 10 l 1,38,-1
 1114 10 l 1,39,-1
 1115 799 l 2,40,41
 1115 891 1115 891 1013 966 c 1,42,43
 914 1041 914 1041 772 1036 c 1,44,45
 569 1035 569 1035 455 916 c 0,46,47
 342 797 342 797 347 637 c 1,48,49
 387 678 387 678 413 694 c 0,50,51
 456 722 456 722 504 736 c 128,-1,52
 552 750 552 750 607 750 c 0,53,54
 757 750 757 750 862 646 c 0,55,56
 967 541 967 541 967 377 c 0,57,58
 967 188 967 188 869 76 c 1,59,60
 771 -33 771 -33 596 -33 c 0,61,62
 378 -33 378 -33 262 145 c 0,63,64
 170 287 170 287 170 523 c 2,65,-1
 170 552 l 2,66,67
 170 825 170 825 334 985 c 0,68,69
 499 1146 499 1146 777 1151 c 1,70,71
 859 1150 859 1150 913.5 1138 c 128,-1,72
 968 1126 968 1126 1015 1109 c 1,73,74
 1085 1076 1085 1076 1134 1037.5 c 128,-1,75
 1183 999 1183 999 1213 956 c 1,76,77
 1355 1154 1355 1154 1621 1147 c 1,78,79
 1809 1132 1809 1132 1931 1062 c 1,80,81
 2083 1143 2083 1143 2281 1143 c 0,82,83
 2356 1143 2356 1143 2434 1118.5 c 128,-1,84
 2512 1094 2512 1094 2591 1049 c 0,85,86
 2613 1036 2613 1036 2637 1019 c 128,-1,87
 2661 1002 2661 1002 2680 985 c 1,88,-1
 2680 986 l 1,89,90
 2762 911 2762 911 2808 820.5 c 128,-1,91
 2854 730 2854 730 2866 625 c 0,92,93
 2867 613 2867 613 2868 589 c 1,94,95
 2860 160 2860 160 2515 -22 c 1,96,-1
 2479 -39 l 1,97,-1
 2411 86 l 1,98,-1
 2451 101 l 1,99,100
 2671 210 2671 210 2690 520 c 1,101,102
 2688 555 2688 555 2684 609 c 0,103,104
 2670 765 2670 765 2570 886 c 1,105,106
 2451 1025 2451 1025 2281 1025 c 0,107,108
 2141 1025 2141 1025 2063 985 c 1,109,110
 2326 757 2326 757 2326 459 c 1,111,112
 2307 251 2307 251 2201 120 c 1,113,114
 2079 -20 2079 -20 1925 -20 c 0,115,116
 1780 -20 1780 -20 1657 120 c 1,117,118
 1552 251 1552 251 1532 459 c 1,119,120
 1532 752 1532 752 1797 985 c 1,121,122
 1699 1036 1699 1036 1568 1032 c 1,33,34
EndSplineSet
EndChar

StartChar: ml_tta
Encoding: 3359 3359 151
Width: 1158
Flags: W
LayerCount: 2
Fore
SplineSet
1141 326 m 0,0,1
 1141 234 1141 234 1098.5 165 c 128,-1,2
 1056 96 1056 96 977 53 c 1,3,4
 913 22 913 22 835 4.5 c 128,-1,5
 757 -13 757 -13 668 -13 c 0,6,7
 611 -13 611 -13 555.5 -4 c 128,-1,8
 500 5 500 5 446 21 c 0,9,10
 395 37 395 37 352 54.5 c 128,-1,11
 309 72 309 72 281 90 c 0,12,13
 253 107 253 107 224 133 c 128,-1,14
 195 159 195 159 170 188 c 1,15,16
 196 217 196 217 223 244 c 128,-1,17
 250 271 250 271 276 299 c 1,18,19
 332 212 332 212 451 154 c 1,20,21
 506 130 506 130 560 117.5 c 128,-1,22
 614 105 614 105 668 105 c 0,23,24
 983 105 983 105 983 326 c 0,25,26
 983 391 983 391 914 444 c 1,27,28
 828 504 828 504 679 504 c 0,29,30
 202 504 202 504 202 793 c 0,31,32
 202 887 202 887 244 960.5 c 128,-1,33
 286 1034 286 1034 366 1084 c 1,34,35
 418 1114 418 1114 491.5 1131.5 c 128,-1,36
 565 1149 565 1149 654 1151 c 1,37,38
 798 1145 798 1145 917 1092.5 c 128,-1,39
 1036 1040 1036 1040 1121 940 c 1,40,41
 1090 917 1090 917 1058.5 893 c 128,-1,42
 1027 869 1027 869 997 844 c 1,43,44
 871 1017 871 1017 656 1017 c 0,45,46
 519 1017 519 1017 438 949 c 1,47,48
 359 888 359 888 359 793 c 0,49,50
 359 621 359 621 679 621 c 0,51,52
 1141 621 1141 621 1141 326 c 0,0,1
EndSplineSet
EndChar

StartChar: ml_ttha
Encoding: 3360 3360 152
Width: 1367
Flags: W
LayerCount: 2
Fore
SplineSet
1180 975 m 1,0,1
 1350 804 1350 804 1350 552 c 0,2,3
 1350 426 1350 426 1305 323.5 c 128,-1,4
 1260 221 1260 221 1169 142 c 0,5,6
 1079 64 1079 64 977 24.5 c 128,-1,7
 875 -15 875 -15 761 -15 c 0,8,9
 531 -15 531 -15 351 145 c 0,10,11
 170 306 170 306 170 552 c 0,12,13
 170 799 170 799 348 973 c 1,14,15
 527 1146 527 1146 769 1146 c 0,16,17
 1012 1146 1012 1146 1180 975 c 1,0,1
773 1029 m 0,18,19
 566 1029 566 1029 451 879 c 1,20,21
 351 733 351 733 351 556 c 0,22,23
 351 377 351 377 463 242 c 1,24,25
 583 104 583 104 764 104 c 0,26,27
 940 104 940 104 1059 240 c 1,28,29
 1170 372 1170 372 1170 554 c 256,30,31
 1170 736 1170 736 1061 884 c 0,32,33
 953 1029 953 1029 773 1029 c 0,18,19
EndSplineSet
EndChar

StartChar: ml_dda
Encoding: 3361 3361 153
Width: 2574
Flags: W
LayerCount: 2
Fore
SplineSet
2556 557 m 1,0,1
 2554 445 2554 445 2525 350 c 0,2,3
 2494 249 2494 249 2434 171 c 1,4,5
 2363 87 2363 87 2272 44 c 128,-1,6
 2181 1 2181 1 2069 1 c 0,7,8
 1877 1 1877 1 1755 201 c 1,9,10
 1632 2 1632 2 1408 2 c 0,11,12
 955 2 955 2 955 588 c 0,13,14
 955 803 955 803 894 921 c 1,15,16
 822 1039 822 1039 662 1039 c 1,17,18
 504 1021 504 1021 433 900 c 1,19,20
 354 775 354 775 354 570 c 1,21,22
 349 215 349 215 649 79 c 1,23,-1
 583 -38 l 1,24,-1
 549 -24 l 1,25,26
 370 51 370 51 269 213 c 0,27,28
 170 373 170 373 170 570 c 0,29,30
 170 840 170 840 313 994 c 0,31,32
 461 1152 461 1152 708 1151 c 1,33,34
 1137 1133 1137 1133 1137 588 c 0,35,36
 1137 356 1137 356 1180 253 c 1,37,38
 1241 122 1241 122 1411 122 c 0,39,40
 1513 122 1513 122 1588 194 c 0,41,42
 1662 264 1662 264 1662 338 c 2,43,-1
 1662 1143 l 1,44,-1
 1845 1143 l 1,45,-1
 1846 349 l 1,46,47
 1854 267 1854 267 1903 216 c 1,48,49
 1959 122 1959 122 2067 122 c 0,50,51
 2228 122 2228 122 2301 249 c 0,52,53
 2337 312 2337 312 2356 392 c 1,54,55
 2372 465 2372 465 2374 557 c 1,56,-1
 2373 557 l 1,57,58
 2378 913 2378 913 2079 1047 c 1,59,-1
 2145 1165 l 1,60,-1
 2178 1151 l 1,61,62
 2357 1077 2357 1077 2458 915 c 1,63,64
 2557 754 2557 754 2557 557 c 1,65,-1
 2556 557 l 1,0,1
EndSplineSet
EndChar

StartChar: ml_ddha
Encoding: 3362 3362 154
Width: 2795
Flags: W
LayerCount: 2
Fore
SplineSet
2583 775 m 0,0,1
 2583 828 2583 828 2568 877 c 128,-1,2
 2553 926 2553 926 2524 966 c 0,3,4
 2496 1006 2496 1006 2455 1028 c 128,-1,5
 2414 1050 2414 1050 2361 1050 c 0,6,7
 2257 1050 2257 1050 2200 973 c 1,8,9
 2144 894 2144 894 2144 781 c 0,10,11
 2144 670 2144 670 2200 593 c 0,12,13
 2255 519 2255 519 2360 519 c 0,14,15
 2466 519 2466 519 2523 593 c 1,16,17
 2583 668 2583 668 2583 775 c 0,0,1
2194 109 m 1,18,19
 2379 118 2379 118 2494 237 c 0,20,21
 2607 354 2607 354 2611 506 c 1,22,23
 2486 403 2486 403 2347 403 c 2,24,-1
 2342 403 l 2,25,26
 2194 403 2194 403 2085 507 c 1,27,28
 1981 611 1981 611 1981 774 c 0,29,30
 1981 936 1981 936 2079 1047 c 1,31,32
 2177 1160 2177 1160 2353 1160 c 0,33,34
 2459 1160 2459 1160 2544 1111.5 c 128,-1,35
 2629 1063 2629 1063 2687 981 c 1,36,37
 2731 909 2731 909 2754.5 820 c 128,-1,38
 2778 731 2778 731 2778 629 c 2,39,-1
 2778 601 l 2,40,41
 2778 325 2778 325 2609 161 c 1,42,43
 2442 -4 2442 -4 2156 -4 c 1,44,45
 1877 1 1877 1 1755 201 c 1,46,47
 1632 2 1632 2 1408 2 c 0,48,49
 955 2 955 2 955 588 c 0,50,51
 955 803 955 803 894 921 c 1,52,53
 822 1039 822 1039 662 1039 c 1,54,55
 504 1021 504 1021 433 900 c 1,56,57
 354 775 354 775 354 570 c 2,58,-1
 354 558 l 2,59,60
 354 213 354 213 649 79 c 1,61,-1
 583 -38 l 1,62,-1
 549 -24 l 1,63,64
 370 51 370 51 269 213 c 0,65,66
 170 373 170 373 170 570 c 0,67,68
 170 840 170 840 313 994 c 0,69,70
 460 1151 460 1151 705 1151 c 2,71,-1
 708 1151 l 1,72,73
 1137 1133 1137 1133 1137 588 c 0,74,75
 1137 356 1137 356 1180 253 c 1,76,77
 1241 122 1241 122 1411 122 c 0,78,79
 1513 122 1513 122 1588 194 c 0,80,81
 1662 264 1662 264 1662 338 c 2,82,-1
 1662 1143 l 1,83,-1
 1845 1143 l 1,84,-1
 1846 349 l 2,85,86
 1846 270 1846 270 1916 195 c 1,87,88
 2021 109 2021 109 2181 109 c 2,89,-1
 2194 109 l 1,18,19
EndSplineSet
EndChar

StartChar: ml_nna
Encoding: 3363 3363 155
Width: 2835
Flags: W
LayerCount: 2
Fore
SplineSet
364 361 m 0,0,1
 364 253 364 253 422 169 c 0,2,3
 479 85 479 85 584 85 c 0,4,5
 688 85 688 85 745 163 c 1,6,7
 802 239 802 239 802 354 c 0,8,9
 802 490 802 490 745 562 c 1,10,11
 688 637 688 637 584 637 c 0,12,13
 483 637 483 637 423 561 c 1,14,15
 364 488 364 488 364 361 c 0,0,1
2586 885 m 1,17,18
 2552 952 2552 952 2493 991.5 c 128,-1,19
 2434 1031 2434 1031 2323 1031 c 0,20,21
 2184 1031 2184 1031 2110 942 c 0,22,23
 2037 854 2037 854 2037 732 c 2,24,-1
 2037 5 l 1,25,-1
 1852 5 l 1,26,-1
 1852 732 l 2,27,28
 1852 854 1852 854 1795 937 c 1,29,30
 1737 1029 1737 1029 1608 1031 c 0,31,32
 1486 1033 1486 1033 1413 966 c 1,33,34
 1319 886 1319 886 1319 780 c 2,35,-1
 1319 5 l 1,36,-1
 1135 5 l 1,37,-1
 1135 811 l 2,38,39
 1135 876 1135 876 1051 947 c 0,40,41
 967 1019 967 1019 810 1033 c 1,42,43
 570 1031 570 1031 456 912 c 0,44,45
 341 792 341 792 353 640 c 1,46,47
 375 667 375 667 414 691 c 0,48,49
 501 746 501 746 608 746 c 0,50,51
 757 746 757 746 862 643 c 1,52,53
 967 538 967 538 967 358 c 0,54,55
 967 197 967 197 869 85 c 1,56,57
 771 -24 771 -24 597 -24 c 0,58,59
 379 -24 379 -24 263 154 c 0,60,61
 170 295 170 295 170 519 c 2,62,-1
 170 550 l 2,63,64
 170 823 170 823 338 983 c 0,65,66
 424 1064 424 1064 542.5 1105.5 c 128,-1,67
 661 1147 661 1147 800 1149 c 1,68,69
 943 1142 943 1142 1042.5 1096.5 c 128,-1,70
 1142 1051 1142 1051 1225 956 c 1,71,72
 1371 1148 1371 1148 1596 1146 c 0,73,74
 1828 1144 1828 1144 1944 965 c 1,75,76
 2071 1146 2071 1146 2332 1146 c 0,77,78
 2603 1146 2603 1146 2732 945 c 1,79,80
 2819 807 2819 807 2819 571 c 0,81,82
 2819 375 2819 375 2719 217 c 1,83,84
 2619 57 2619 57 2406 -31 c 1,85,-1
 2340 85 l 1,86,87
 2639 218 2639 218 2644 587 c 1,88,16
 2637 770 2637 770 2586 885 c 1,17,18
EndSplineSet
EndChar

StartChar: ml_ta
Encoding: 3364 3364 156
Width: 2062
Flags: W
LayerCount: 2
Fore
SplineSet
1106 101 m 256,0,1
 1195 101 1195 101 1255 211 c 1,2,3
 1318 323 1318 323 1322 455 c 1,4,5
 1322 587 1322 587 1268 717 c 0,6,7
 1215 846 1215 846 1108 928 c 1,8,-1
 1104 928 l 1,9,10
 993 835 993 835 944 717 c 0,11,12
 891 587 891 587 891 455 c 1,13,14
 895 323 895 323 957 211 c 0,15,16
 1017 101 1017 101 1106 101 c 256,0,1
1102 -16 m 0,17,18
 957 -16 957 -16 834 124 c 1,19,20
 729 256 729 256 709 464 c 1,21,22
 703 767 703 767 974 990 c 1,23,24
 884 1029 884 1029 749 1030 c 1,25,26
 571 1009 571 1009 468 888 c 1,27,28
 378 777 378 777 354 610 c 0,29,30
 350 581 350 581 348 530 c 1,31,32
 367 217 367 217 587 106 c 1,33,-1
 627 91 l 1,34,-1
 559 -35 l 1,35,-1
 523 -19 l 1,36,37
 179 167 179 167 170 590 c 0,38,39
 170 603 170 603 173 626 c 0,40,41
 186 735 186 735 230 824 c 0,42,43
 276 916 276 916 358 991 c 1,44,-1
 358 990 l 1,45,46
 507 1132 507 1132 757 1150 c 1,47,48
 971 1147 971 1147 1108 1067 c 1,49,50
 1260 1148 1260 1148 1458 1148 c 0,51,52
 1532 1148 1532 1148 1610 1127 c 0,53,54
 1746 1089 1746 1089 1857 991 c 1,55,56
 1939 916 1939 916 1985 825 c 1,57,58
 2035 729 2035 729 2042 630 c 0,59,60
 2043 618 2043 618 2045 594 c 1,61,62
 2037 165 2037 165 1692 -18 c 1,63,-1
 1656 -34 l 1,64,-1
 1588 91 l 1,65,-1
 1628 106 l 1,66,67
 1846 215 1846 215 1866 536 c 1,68,69
 1865 587 1865 587 1862 610 c 0,70,71
 1847 767 1847 767 1747 889 c 1,72,73
 1628 1030 1628 1030 1458 1030 c 0,74,75
 1318 1030 1318 1030 1240 990 c 1,76,77
 1513 768 1513 768 1503 464 c 1,78,79
 1484 256 1484 256 1378 124 c 1,80,81
 1255 -16 1255 -16 1102 -16 c 0,17,18
EndSplineSet
EndChar

StartChar: ml_tha
Encoding: 3365 3365 157
Width: 1824
Flags: W
LayerCount: 2
Fore
SplineSet
1622 138 m 1,0,-1
 1622 730 l 2,1,2
 1622 858 1622 858 1554 944 c 256,3,4
 1486 1030 1486 1030 1328 1030 c 0,5,6
 1171 1030 1171 1030 1093 943 c 0,7,8
 1015 855 1015 855 1015 730 c 2,9,-1
 1015 138 l 1,10,-1
 1622 138 l 1,0,-1
170 3 m 1,11,-1
 170 1155 l 1,12,-1
 354 1155 l 1,13,-1
 354 123 l 1,14,-1
 829 122 l 1,15,-1
 829 730 l 2,16,17
 829 926 829 926 965 1044 c 0,18,19
 1100 1162 1100 1162 1316 1162 c 0,20,21
 1454 1162 1454 1162 1554.5 1110 c 128,-1,22
 1655 1058 1655 1058 1714 965 c 1,23,24
 1754 890 1754 890 1776.5 806.5 c 128,-1,25
 1799 723 1799 723 1799 638 c 0,26,27
 1798 478 1798 478 1797 322 c 128,-1,28
 1796 166 1796 166 1795 6 c 1,29,-1
 170 3 l 1,11,-1
EndSplineSet
EndChar

StartChar: ml_da
Encoding: 3366 3366 158
Width: 1408
Flags: W
LayerCount: 2
Fore
SplineSet
782 1150 m 1,0,1
 1052 1150 1052 1150 1182 1069 c 1,2,3
 1364 966 1364 966 1364 800 c 2,4,-1
 1364 795 l 2,5,6
 1364 636 1364 636 1247 570 c 1,7,8
 1274 552 1274 552 1299 528 c 128,-1,9
 1324 504 1324 504 1346 472 c 0,10,11
 1391 409 1391 409 1391 315 c 0,12,13
 1391 137 1391 137 1253 56 c 1,14,15
 1145 -10 1145 -10 974 -10 c 0,16,17
 889 -10 889 -10 822 0 c 0,18,19
 803 3 803 3 780 7 c 1,20,-1
 778 161 l 1,21,22
 814 135 814 135 870 117.5 c 128,-1,23
 926 100 926 100 954 100 c 0,24,25
 1012 100 1012 100 1058.5 111.5 c 128,-1,26
 1105 123 1105 123 1141 148 c 1,27,28
 1215 195 1215 195 1215 304 c 0,29,30
 1215 403 1215 403 1148 450 c 1,31,32
 1114 471 1114 471 1054 483 c 128,-1,33
 994 495 994 495 911 495 c 2,34,-1
 804 495 l 1,35,-1
 804 643 l 1,36,-1
 920 642 l 1,37,38
 993 643 993 643 1044 651.5 c 128,-1,39
 1095 660 1095 660 1126.5 678.5 c 128,-1,40
 1158 697 1158 697 1172 725 c 128,-1,41
 1186 753 1186 753 1186 793 c 0,42,43
 1186 918 1186 918 1084 982 c 1,44,45
 1011 1033 1011 1033 782 1035 c 1,46,47
 589 1032 589 1032 473 895 c 1,48,49
 350 754 350 754 347 559 c 1,50,-1
 347 552 l 2,51,52
 347 256 347 256 465 59 c 1,53,-1
 329 -42 l 1,54,55
 170 201 170 201 170 563 c 0,56,57
 170 816 170 816 341 980 c 1,58,59
 508 1142 508 1142 782 1150 c 1,0,1
EndSplineSet
EndChar

StartChar: ml_na
Encoding: 3368 3368 160
Width: 2064
Flags: W
LayerCount: 2
Fore
SplineSet
1194 801 m 1,0,1
 1189 758 1189 758 1189 695 c 2,2,-1
 1188 4 l 1,3,-1
 1027 4 l 1,4,-1
 1027 695 l 2,5,6
 1027 758 1027 758 1022 800.5 c 128,-1,7
 1017 843 1017 843 1008 866 c 0,8,9
 942 1019 942 1019 730 1034 c 1,10,11
 555 1010 555 1010 457 890 c 1,12,13
 368 778 368 778 347 615 c 1,14,15
 342 568 342 568 342 527 c 1,16,17
 359 217 359 217 572 108 c 1,18,-1
 623 83 l 1,19,-1
 567 -36 l 1,20,-1
 509 -15 l 1,21,22
 179 168 179 168 170 586 c 1,23,24
 171 615 171 615 173 632 c 0,25,26
 184 737 184 737 228 827.5 c 128,-1,27
 272 918 272 918 351 992 c 1,28,-1
 351 991 l 1,29,30
 370 1008 370 1008 393 1024.5 c 128,-1,31
 416 1041 416 1041 437 1055 c 1,32,33
 513 1101 513 1101 588 1125 c 128,-1,34
 663 1149 663 1149 738 1149 c 0,35,36
 955 1149 955 1149 1109 1000 c 1,37,38
 1262 1154 1262 1154 1480 1154 c 0,39,40
 1554 1154 1554 1154 1629 1130 c 128,-1,41
 1704 1106 1704 1106 1780 1060 c 1,42,43
 1802 1045 1802 1045 1824.5 1029 c 128,-1,44
 1847 1013 1847 1013 1866 996 c 1,45,-1
 1866 997 l 1,46,47
 1945 923 1945 923 1989 833 c 0,48,49
 2035 739 2035 739 2044 627 c 0,50,51
 2045 615 2045 615 2047 591 c 1,52,53
 2039 173 2039 173 1708 -10 c 1,54,-1
 1663 -31 l 1,55,-1
 1597 88 l 1,56,-1
 1646 113 l 2,57,58
 1858 221 1858 221 1876 532 c 1,59,60
 1876 581 1876 581 1872 609 c 0,61,62
 1848 785 1848 785 1761 895 c 1,63,64
 1662 1029 1662 1029 1469 1039 c 1,65,66
 1297 1039 1297 1039 1210 871 c 1,67,68
 1206 847 1206 847 1196 806 c 0,69,70
 1195 802 1195 802 1195 799 c 1,71,-1
 1194 801 l 1,0,1
EndSplineSet
EndChar

StartChar: ml_nnna
Encoding: 3369 3369 161
Width: 2244
Flags: W
LayerCount: 2
Fore
SplineSet
364 384 m 0,0,1
 364 248 364 248 422 166 c 1,2,3
 479 82 479 82 583 82 c 256,4,5
 687 82 687 82 744 159 c 1,6,7
 801 234 801 234 801 358 c 0,8,9
 801 493 801 493 744 566 c 0,10,11
 687 640 687 640 584 640 c 0,12,13
 480 640 480 640 423 565 c 1,14,15
 364 492 364 492 364 384 c 0,0,1
1627 1037 m 1,16,17
 1492 1032 1492 1032 1396 964 c 1,18,19
 1297 888 1297 888 1297 796 c 2,20,-1
 1297 10 l 1,21,-1
 1114 10 l 1,22,-1
 1115 799 l 2,23,24
 1115 891 1115 891 1013 966 c 1,25,26
 914 1041 914 1041 772 1036 c 1,27,28
 569 1035 569 1035 455 916 c 0,29,30
 342 797 342 797 347 637 c 1,31,32
 387 678 387 678 413 694 c 0,33,34
 456 722 456 722 504 736 c 128,-1,35
 552 750 552 750 607 750 c 0,36,37
 757 750 757 750 862 646 c 0,38,39
 967 541 967 541 967 377 c 0,40,41
 967 188 967 188 869 76 c 1,42,43
 771 -33 771 -33 596 -33 c 0,44,45
 378 -33 378 -33 262 145 c 0,46,47
 170 287 170 287 170 523 c 2,48,-1
 170 552 l 2,49,50
 170 825 170 825 334 985 c 0,51,52
 499 1146 499 1146 777 1151 c 1,53,54
 859 1150 859 1150 913.5 1138 c 128,-1,55
 968 1126 968 1126 1015 1109 c 1,56,57
 1085 1076 1085 1076 1134 1037.5 c 128,-1,58
 1183 999 1183 999 1213 956 c 1,59,60
 1355 1154 1355 1154 1626 1154 c 1,61,62
 1714 1152 1714 1152 1792 1128 c 128,-1,63
 1870 1104 1870 1104 1949 1058 c 1,64,65
 1971 1044 1971 1044 1995 1027.5 c 128,-1,66
 2019 1011 2019 1011 2039 995 c 1,67,-1
 2039 996 l 1,68,69
 2120 922 2120 922 2166 831 c 128,-1,70
 2212 740 2212 740 2224 626 c 0,71,72
 2225 614 2225 614 2227 571 c 1,73,74
 2218 153 2218 153 1874 -28 c 1,75,-1
 1838 -46 l 1,76,-1
 1769 79 l 1,77,-1
 1809 94 l 1,78,79
 2030 202 2030 202 2048 511 c 1,80,81
 2046 547 2046 547 2042 610 c 1,82,83
 2028 773 2028 773 1928 894 c 1,84,85
 1826 1026 1826 1026 1627 1037 c 1,16,17
EndSplineSet
EndChar

StartChar: ml_pa
Encoding: 3370 3370 162
Width: 1925
Flags: W
LayerCount: 2
Fore
SplineSet
860 121 m 1,0,-1
 1712 121 l 1,1,-1
 1712 1147 l 1,2,-1
 1894 1147 l 1,3,-1
 1894 3 l 1,4,-1
 641 4 l 1,5,-1
 613 91 l 1,6,-1
 635 104 l 1,7,8
 782 180 782 180 779 373 c 1,9,10
 779 489 779 489 724.5 558 c 128,-1,11
 670 627 670 627 568 632 c 1,12,13
 461 632 461 632 405 562 c 128,-1,14
 349 492 349 492 349 379 c 0,15,16
 349 169 349 169 489 104 c 1,17,-1
 521 93 l 1,18,-1
 478 -7 l 1,19,-1
 430 9 l 1,20,21
 307 52 307 52 238.5 136.5 c 128,-1,22
 170 221 170 221 170 385 c 0,23,24
 170 547 170 547 283.5 645.5 c 128,-1,25
 397 744 397 744 569 744 c 256,26,27
 741 744 741 744 851 645.5 c 128,-1,28
 961 547 961 547 961 386 c 0,29,30
 961 229 961 229 860 121 c 1,0,-1
EndSplineSet
EndChar

StartChar: ml_pha
Encoding: 3371 3371 163
Width: 2484
Flags: W
LayerCount: 2
Fore
SplineSet
2279 140 m 1,0,-1
 2279 733 l 2,1,2
 2279 794 2279 794 2259 849 c 128,-1,3
 2239 904 2239 904 2205 946 c 1,4,5
 2168 987 2168 987 2107.5 1009.5 c 128,-1,6
 2047 1032 2047 1032 1964 1032 c 0,7,8
 1799 1032 1799 1032 1714 945 c 1,9,10
 1673 901 1673 901 1652 848.5 c 128,-1,11
 1631 796 1631 796 1631 733 c 2,12,-1
 1631 140 l 1,13,-1
 2279 140 l 1,0,-1
1446 122 m 1,14,-1
 1446 730 l 2,15,16
 1446 926 1446 926 1587 1043 c 0,17,18
 1729 1162 1729 1162 1955 1162 c 0,19,20
 2100 1162 2100 1162 2204 1111.5 c 128,-1,21
 2308 1061 2308 1061 2369 965 c 1,22,23
 2413 889 2413 889 2436 807 c 128,-1,24
 2459 725 2459 725 2459 638 c 0,25,26
 2458 478 2458 478 2456.5 322 c 128,-1,27
 2455 166 2455 166 2454 6 c 1,28,-1
 641 4 l 1,29,-1
 613 91 l 1,30,-1
 635 104 l 1,31,32
 782 180 782 180 779 373 c 1,33,34
 779 489 779 489 724.5 558 c 128,-1,35
 670 627 670 627 568 632 c 1,36,37
 461 632 461 632 405 562 c 128,-1,38
 349 492 349 492 349 379 c 0,39,40
 349 169 349 169 489 104 c 1,41,-1
 521 93 l 1,42,-1
 478 -7 l 1,43,-1
 430 9 l 1,44,45
 307 52 307 52 238.5 136.5 c 128,-1,46
 170 221 170 221 170 385 c 0,47,48
 170 547 170 547 283.5 645.5 c 128,-1,49
 397 744 397 744 569 744 c 256,50,51
 741 744 741 744 851 645.5 c 128,-1,52
 961 547 961 547 961 386 c 0,53,54
 961 229 961 229 860 121 c 1,55,-1
 1446 122 l 1,14,-1
EndSplineSet
EndChar

StartChar: ml_ba
Encoding: 3372 3372 164
Width: 2645
Flags: W
LayerCount: 2
Fore
SplineSet
584 641 m 0,0,1
 482 641 482 641 422 565 c 0,2,3
 363 491 363 491 363 382 c 0,4,5
 363 272 363 272 421 189 c 1,6,7
 478 105 478 105 584 105 c 0,8,9
 687 105 687 105 744 183 c 1,10,11
 801 259 801 259 801 374 c 0,12,13
 801 492 801 492 744 566 c 0,14,15
 687 641 687 641 584 641 c 0,0,1
1180 959 m 1,16,17
 1330 1160 1330 1160 1539 1155 c 1,18,19
 1748 1155 1748 1155 1883 1005 c 1,20,21
 2014 853 2014 853 2014 595 c 0,22,23
 2014 442 2014 442 1958.5 323 c 128,-1,24
 1903 204 1903 204 1789 120 c 1,25,-1
 2435 120 l 1,26,-1
 2435 1145 l 1,27,-1
 2620 1145 l 1,28,-1
 2620 4 l 1,29,-1
 1608 4 l 1,30,-1
 1578 119 l 1,31,32
 1829 259 1829 259 1829 595 c 0,33,34
 1829 910 1829 910 1671 1005 c 0,35,36
 1619 1036 1619 1036 1537 1036 c 1,37,38
 1431 1027 1431 1027 1361 960 c 1,39,40
 1277 888 1277 888 1267 746 c 1,41,42
 1267 561 1267 561 1267.5 375 c 128,-1,43
 1268 189 1268 189 1268 3 c 1,44,-1
 1084 3 l 1,45,-1
 1086 744 l 2,46,47
 1086 802 1086 802 1060 854.5 c 128,-1,48
 1034 907 1034 907 987 950 c 0,49,50
 890 1036 890 1036 751 1042 c 1,51,52
 563 1031 563 1031 453 915 c 0,53,54
 341 796 341 796 349 650 c 1,55,56
 396 690 396 690 430 711 c 1,57,58
 465 729 465 729 509.5 740 c 128,-1,59
 554 751 554 751 607 751 c 0,60,61
 756 751 756 751 861 647 c 0,62,63
 966 542 966 542 966 378 c 0,64,65
 966 217 966 217 869 106 c 0,66,67
 771 -5 771 -5 596 -5 c 0,68,69
 378 -5 378 -5 262 175 c 1,70,71
 170 315 170 315 170 524 c 2,72,-1
 170 553 l 2,73,74
 170 827 170 827 336 988 c 1,75,76
 501 1150 501 1150 759 1155 c 1,77,78
 817 1155 817 1155 873 1141.5 c 128,-1,79
 929 1128 929 1128 987 1103 c 1,80,81
 1102 1049 1102 1049 1176 959 c 1,82,-1
 1180 959 l 1,16,17
EndSplineSet
EndChar

StartChar: ml_bha
Encoding: 3373 3373 165
Width: 1429
Flags: W
LayerCount: 2
Fore
SplineSet
832 1157 m 1,0,-1
 837 1157 l 2,1,2
 1050 1157 1050 1157 1202 1081 c 0,3,4
 1385 989 1385 989 1385 835 c 2,5,-1
 1385 819 l 1,6,7
 1382 721 1382 721 1322 680 c 0,8,9
 1261 638 1261 638 1189 638 c 2,10,-1
 1174 638 l 2,11,12
 1129 638 1129 638 1066 651 c 1,13,14
 1003 666 1003 666 954 666 c 256,15,16
 905 666 905 666 878 647 c 1,17,18
 849 623 849 623 848 538 c 1,19,20
 850 504 850 504 868.5 483.5 c 128,-1,21
 887 463 887 463 931 463 c 0,22,23
 976 463 976 463 1039 485 c 1,24,25
 1071 495 1071 495 1103 500 c 128,-1,26
 1135 505 1135 505 1164 505 c 0,27,28
 1265 505 1265 505 1338 442 c 0,29,30
 1412 378 1412 378 1412 266 c 0,31,32
 1412 -29 1412 -29 990 -29 c 0,33,34
 889 -29 889 -29 746 -2 c 1,35,-1
 784 165 l 1,36,37
 889 98 889 98 1022 90 c 1,38,-1
 1030 90 l 2,39,40
 1109 90 1109 90 1178 130 c 1,41,42
 1246 176 1246 176 1246 252 c 0,43,44
 1246 296 1246 296 1208 336 c 0,45,46
 1171 375 1171 375 1122 375 c 0,47,48
 1096 375 1096 375 1069.5 369 c 128,-1,49
 1043 363 1043 363 1013 351 c 0,50,51
 951 326 951 326 898 326 c 1,52,53
 797 329 797 329 742.5 380.5 c 128,-1,54
 688 432 688 432 688 533 c 2,55,-1
 688 548 l 2,56,57
 688 696 688 696 746 746 c 1,58,59
 808 798 808 798 883 798 c 2,60,-1
 886 798 l 1,61,62
 964 796 964 796 1020 780 c 0,63,64
 1052 771 1052 771 1076 766.5 c 128,-1,65
 1100 762 1100 762 1122 762 c 0,66,67
 1162 762 1162 762 1189 786 c 0,68,69
 1216 809 1216 809 1216 844 c 0,70,71
 1216 885 1216 885 1187.5 918.5 c 128,-1,72
 1159 952 1159 952 1103 983 c 1,73,74
 988 1038 988 1038 842 1038 c 0,75,76
 818 1038 818 1038 790 1037 c 0,77,78
 597 1026 597 1026 473 895 c 1,79,80
 350 754 350 754 347 559 c 1,81,-1
 347 552 l 2,82,83
 347 240 347 240 486 57 c 1,84,-1
 366 -41 l 1,85,86
 170 201 170 201 170 563 c 0,87,88
 170 816 170 816 341 980 c 1,89,90
 508 1142 508 1142 832 1157 c 1,0,-1
EndSplineSet
EndChar

StartChar: ml_ma
Encoding: 3374 3374 166
Width: 1277
Flags: W
LayerCount: 2
Fore
SplineSet
1260 10 m 1,0,-1
 170 10 l 1,1,2
 170 75 170 75 171 324.5 c 128,-1,3
 172 574 172 574 172 641 c 1,4,5
 179 751 179 751 223.5 849.5 c 128,-1,6
 268 948 268 948 338 1017 c 1,7,8
 414 1081 414 1081 517 1119 c 128,-1,9
 620 1157 620 1157 739 1157 c 0,10,11
 862 1157 862 1157 959.5 1119 c 128,-1,12
 1057 1081 1057 1081 1132 1008 c 0,13,14
 1213 928 1213 928 1239 833 c 1,15,16
 1263 740 1263 740 1260 629 c 1,17,-1
 1260 10 l 1,0,-1
1110 138 m 1,18,-1
 1110 327 l 2,19,20
 1110 387 1110 387 1109.5 453.5 c 128,-1,21
 1109 520 1109 520 1108 595 c 1,22,-1
 1108 629 l 1,23,24
 1107 799 1107 799 1050 881 c 1,25,26
 991 963 991 963 908 1002.5 c 128,-1,27
 825 1042 825 1042 713 1042 c 1,28,29
 582 1034 582 1034 495 976 c 0,30,31
 408 919 408 919 378 837 c 1,32,33
 475 912 475 912 598 912 c 0,34,35
 743 912 743 912 834 819 c 0,36,37
 878 774 878 774 900.5 711.5 c 128,-1,38
 923 649 923 649 925 578 c 1,39,40
 914 460 914 460 846.5 350 c 128,-1,41
 779 240 779 240 652 138 c 1,42,-1
 1110 138 l 1,18,-1
431 138 m 1,43,44
 546 216 546 216 652 337 c 1,45,46
 704 401 704 401 730.5 458.5 c 128,-1,47
 757 516 757 516 757 573 c 0,48,49
 757 803 757 803 588 807 c 1,50,-1
 581 807 l 2,51,52
 495 807 495 807 423 735 c 0,53,54
 347 660 347 660 335 579 c 1,55,-1
 335 138 l 1,56,-1
 431 138 l 1,43,44
EndSplineSet
EndChar

StartChar: ml_ya
Encoding: 3375 3375 167
Width: 2159
Flags: W
LayerCount: 2
Fore
SplineSet
1398 354 m 1,0,1
 1481 480 1481 480 1481 650 c 0,2,3
 1481 817 1481 817 1395 940 c 0,4,5
 1325 1039 1325 1039 1207 1039 c 0,6,7
 1090 1039 1090 1039 1010 924 c 1,8,9
 930 807 930 807 930 642 c 0,10,11
 930 557 930 557 945 485 c 128,-1,12
 960 413 960 413 988 350 c 1,13,14
 1048 227 1048 227 1164 163 c 1,15,16
 1243 199 1243 199 1301.5 246.5 c 128,-1,17
 1360 294 1360 294 1398 354 c 1,0,1
1411 -18 m 1,18,19
 1277 -11 1277 -11 1161 37 c 1,20,21
 1027 -11 1027 -11 879 -11 c 0,22,23
 729 -11 729 -11 597.5 45.5 c 128,-1,24
 466 102 466 102 362 208 c 1,25,26
 320 256 320 256 285 311 c 128,-1,27
 250 366 250 366 224 425.5 c 128,-1,28
 198 485 198 485 184 548 c 128,-1,29
 170 611 170 611 170 674 c 0,30,31
 170 938 170 938 311 1067 c 1,32,-1
 311 1066 l 1,33,34
 418 1158 418 1158 555 1158 c 0,35,36
 627 1158 627 1158 707 1100 c 1,37,38
 784 1048 784 1048 841 965 c 1,39,40
 866 1004 866 1004 911 1042.5 c 128,-1,41
 956 1081 956 1081 1006 1105 c 1,42,43
 1056 1131 1056 1131 1108.5 1144.5 c 128,-1,44
 1161 1158 1161 1158 1213 1158 c 0,45,46
 1299 1158 1299 1158 1375 1125 c 128,-1,47
 1451 1092 1451 1092 1517 1028 c 0,48,49
 1663 889 1663 889 1663 639 c 0,50,51
 1663 469 1663 469 1542 308 c 0,52,53
 1494 244 1494 244 1433 192 c 0,54,55
 1406 169 1406 169 1380.5 148.5 c 128,-1,56
 1355 128 1355 128 1333 115 c 1,57,58
 1417 88 1417 88 1510 87 c 0,59,60
 1531 87 1531 87 1565 90 c 0,61,62
 1763 109 1763 109 1860.5 248.5 c 128,-1,63
 1958 388 1958 388 1958 610 c 0,64,65
 1958 733 1958 733 1902.5 851.5 c 128,-1,66
 1847 970 1847 970 1758 1037 c 1,67,68
 1734 1050 1734 1050 1718 1060 c 1,69,-1
 1799 1183 l 1,70,-1
 1838 1158 l 1,71,72
 2141 951 2141 951 2142 604 c 0,73,74
 2142 328 2142 328 1991 157 c 128,-1,75
 1840 -14 1840 -14 1565 -20 c 1,76,77
 1495 -20 1495 -20 1411 -18 c 1,18,19
747 648 m 0,78,79
 747 723 747 723 765 797 c 1,80,81
 700 996 700 996 549 1012 c 1,82,83
 476 1025 476 1025 424 956 c 0,84,85
 353 862 353 862 353 664 c 256,86,87
 353 466 353 466 481 298 c 1,88,89
 635 110 635 110 890 110 c 0,90,91
 977 110 977 110 1014 124 c 1,92,93
 994 137 994 137 972.5 156 c 128,-1,94
 951 175 951 175 926 202 c 1,95,96
 901 227 901 227 879.5 258 c 128,-1,97
 858 289 858 289 837 324 c 1,98,99
 793 402 793 402 770 483 c 128,-1,100
 747 564 747 564 747 648 c 0,78,79
EndSplineSet
EndChar

StartChar: ml_ra
Encoding: 3376 3376 168
Width: 1499
Flags: W
LayerCount: 2
Fore
SplineSet
1292 439 m 0,0,1
 1292 725 1292 725 1083 724 c 1,2,-1
 1078 724 l 1,3,4
 971 719 971 719 917 637 c 1,5,6
 892 595 892 595 878 542.5 c 128,-1,7
 864 490 864 490 863 403 c 1,8,9
 863 274 863 274 914 186 c 0,10,11
 966 97 966 97 1080 96 c 1,12,13
 1136 98 1136 98 1177.5 127 c 128,-1,14
 1219 156 1219 156 1247 209 c 0,15,16
 1268 250 1268 250 1280 303.5 c 128,-1,17
 1292 357 1292 357 1292 439 c 0,0,1
470 888 m 128,-1,19
 345 750 345 750 345 536 c 0,20,21
 345 264 345 264 519 103 c 1,22,-1
 546 79 l 1,23,-1
 474 -37 l 1,24,-1
 436 -9 l 1,25,26
 170 210 170 210 170 544 c 0,27,28
 170 805 170 805 344 976 c 0,29,30
 515 1145 515 1145 822 1154 c 1,31,32
 1074 1154 1074 1154 1236 1046 c 1,33,34
 1398 942 1398 942 1452 760 c 1,35,36
 1483 662 1483 662 1483 488 c 0,37,38
 1483 294 1483 294 1378 137 c 1,39,40
 1269 -12 1269 -12 1080 -12 c 0,41,42
 987 -12 987 -12 913 19.5 c 128,-1,43
 839 51 839 51 785 111 c 1,44,45
 736 170 736 170 708 245.5 c 128,-1,46
 680 321 680 321 680 409 c 0,47,48
 680 603 680 603 785 721 c 1,49,50
 892 839 892 839 1038 839 c 0,51,52
 1183 839 1183 839 1270 788 c 1,53,54
 1227 898 1227 898 1131 960 c 1,55,56
 1021 1033 1021 1033 836 1033 c 1,57,18
 595 1026 595 1026 470 888 c 128,-1,19
EndSplineSet
EndChar

StartChar: ml_rra
Encoding: 3377 3377 169
Width: 1386
Flags: W
LayerCount: 2
Fore
SplineSet
1370 589 m 1,0,1
 1364 338 1364 338 1246.5 181.5 c 128,-1,2
 1129 25 1129 25 965 -30 c 1,3,-1
 925 -47 l 1,4,-1
 882 77 l 1,5,-1
 921 91 l 1,6,7
 1042 136 1042 136 1111 262 c 128,-1,8
 1180 388 1180 388 1180 572 c 1,9,-1
 1179 578 l 1,10,11
 1179 771 1179 771 1075.5 902.5 c 128,-1,12
 972 1034 972 1034 767 1035 c 0,13,14
 571 1035 571 1035 457 890 c 1,15,16
 360 763 360 763 360 588 c 0,17,18
 360 397 360 397 429 267 c 128,-1,19
 498 137 498 137 623 91 c 1,20,-1
 663 77 l 1,21,-1
 614 -47 l 1,22,-1
 579 -30 l 1,23,24
 402 43 402 43 286 197 c 128,-1,25
 170 351 170 351 170 552 c 2,26,-1
 170 560 l 1,27,28
 176 841 176 841 351.5 996 c 128,-1,29
 527 1151 527 1151 776 1151 c 0,30,31
 1020 1151 1020 1151 1195 991.5 c 128,-1,32
 1370 832 1370 832 1370 589 c 1,0,1
EndSplineSet
EndChar

StartChar: ml_la
Encoding: 3378 3378 170
Width: 1702
Flags: W
LayerCount: 2
Fore
SplineSet
868 487 m 1,0,-1
 868 680 l 1,1,2
 866 753 866 753 865 792.5 c 128,-1,3
 864 832 864 832 863 839 c 0,4,5
 853 911 853 911 805 961 c 0,6,7
 732 1037 732 1037 607 1037 c 0,8,9
 480 1037 480 1037 418 963 c 0,10,11
 354 887 354 887 354 711 c 2,12,-1
 354 487 l 1,13,-1
 868 487 l 1,0,-1
1496 124 m 1,14,15
 1496 383 1496 383 1495 639 c 128,-1,16
 1494 895 1494 895 1494 1145 c 1,17,-1
 1677 1145 l 1,18,-1
 1677 10 l 1,19,-1
 170 10 l 1,20,-1
 173 700 l 2,21,22
 173 808 173 808 193 887.5 c 128,-1,23
 213 967 213 967 249 1014 c 1,24,25
 310 1085 310 1085 399 1123.5 c 128,-1,26
 488 1162 488 1162 602 1161 c 0,27,28
 715 1160 715 1160 804 1122 c 128,-1,29
 893 1084 893 1084 954 1014 c 1,30,31
 994 963 994 963 1016 884 c 128,-1,32
 1038 805 1038 805 1040 703 c 1,33,-1
 1034 376 l 1,34,-1
 354 376 l 1,35,-1
 354 124 l 1,36,-1
 1496 124 l 1,14,15
EndSplineSet
EndChar

StartChar: ml_lla
Encoding: 3379 3379 171
Width: 1454
Flags: W
LayerCount: 2
Fore
SplineSet
713 524 m 0,0,1
 713 730 713 730 544 730 c 0,2,3
 460 730 460 730 406 687 c 0,4,5
 351 642 351 642 351 578 c 0,6,7
 351 526 351 526 365 482.5 c 128,-1,8
 379 439 379 439 404 406 c 1,9,10
 449 341 449 341 534 341 c 0,11,12
 621 341 621 341 666 405 c 1,13,14
 713 467 713 467 713 524 c 0,0,1
789 171 m 1,15,-1
 806 171 l 2,16,17
 1239 171 1239 171 1254 372 c 1,18,19
 1254 419 1254 419 1227 460 c 1,20,21
 1176 525 1176 525 1111 525 c 0,22,23
 1076 525 1076 525 1039.5 524.5 c 128,-1,24
 1003 524 1003 524 968 524 c 1,25,26
 968 554 968 554 967 582.5 c 128,-1,27
 966 611 966 611 966 643 c 1,28,29
 1040 644 1040 644 1077 644 c 2,30,-1
 1118 644 l 1,31,32
 1230 674 1230 674 1230 791 c 0,33,34
 1230 873 1230 873 1130 945 c 1,35,36
 995 1029 995 1029 809 1034 c 0,37,38
 801 1034 801 1034 794.5 1034.5 c 128,-1,39
 788 1035 788 1035 780 1035 c 0,40,41
 739 1035 739 1035 696 1030 c 128,-1,42
 653 1025 653 1025 609 1014 c 1,43,44
 578 1005 578 1005 550 992 c 128,-1,45
 522 979 522 979 494 960 c 1,46,47
 400 886 400 886 392 816 c 1,48,49
 458 847 458 847 544 847 c 0,50,51
 708 847 708 847 803 759 c 1,52,53
 896 671 896 671 896 535 c 0,54,55
 896 470 896 470 869.5 413.5 c 128,-1,56
 843 357 843 357 793 313 c 1,57,58
 739 270 739 270 674 247 c 128,-1,59
 609 224 609 224 534 224 c 0,60,61
 384 224 384 224 276 315 c 0,62,63
 170 405 170 405 170 593 c 2,64,-1
 170 612 l 2,65,66
 170 827 170 827 311 984 c 1,67,68
 461 1147 461 1147 792 1147 c 2,69,-1
 798 1147 l 2,70,71
 1068 1147 1068 1147 1228 1058 c 1,72,73
 1402 968 1402 968 1402 778 c 0,74,75
 1402 720 1402 720 1369 666 c 1,76,77
 1335 615 1335 615 1298 592 c 1,78,79
 1437 507 1437 507 1437 359 c 1,80,81
 1435 245 1435 245 1343 149 c 0,82,83
 1244 46 1244 46 976 41 c 1,84,-1
 543 41 l 1,85,86
 339 36 339 36 339 -72 c 1,87,88
 343 -205 343 -205 543 -205 c 2,89,-1
 1404 -205 l 1,90,-1
 1404 -348 l 1,91,-1
 580 -348 l 2,92,93
 181 -348 181 -348 179 -94 c 1,94,95
 181 111 181 111 371 152 c 0,96,97
 455 170 455 170 628 170 c 1,98,-1
 789 171 l 1,15,-1
EndSplineSet
EndChar

StartChar: ml_llla
Encoding: 3380 3380 172
Width: 1493
Flags: W
LayerCount: 2
Fore
SplineSet
522 1089 m 1,0,1
 342 968 342 968 326 788 c 1,2,3
 328 701 328 701 368.5 627 c 128,-1,4
 409 553 409 553 490 516 c 1,5,6
 537 489 537 489 624.5 468.5 c 128,-1,7
 712 448 712 448 866 441 c 1,8,9
 719 619 719 619 721 797 c 1,10,11
 721 1162 721 1162 1104 1161 c 0,12,13
 1476 1161 1476 1161 1476 754 c 1,14,15
 1470 657 1470 657 1432 576 c 1,16,17
 1382 485 1382 485 1289 428 c 1,18,19
 1246 407 1246 407 1204 392.5 c 128,-1,20
 1162 378 1162 378 1123 374 c 1,21,22
 1199 244 1199 244 1199 176 c 0,23,24
 1199 14 1199 14 1079 -50 c 1,25,26
 975 -124 975 -124 758 -137 c 1,27,28
 626 -128 626 -128 565.5 -111 c 128,-1,29
 505 -94 505 -94 449 -61 c 1,30,31
 401 -36 401 -36 371 -4 c 128,-1,32
 341 28 341 28 318 61 c 1,33,-1
 465 111 l 1,34,35
 501 51 501 51 565 17.5 c 128,-1,36
 629 -16 629 -16 755 -18 c 1,37,38
 901 -14 901 -14 958.5 37 c 128,-1,39
 1016 88 1016 88 1016 184 c 0,40,41
 1016 245 1016 245 953 326 c 1,42,-1
 922 326 l 1,43,44
 885 325 885 325 846 322 c 128,-1,45
 807 319 807 319 792 320 c 0,46,47
 683 325 683 325 577 347.5 c 128,-1,48
 471 370 471 370 370 425 c 1,49,50
 274 486 274 486 222 574 c 128,-1,51
 170 662 170 662 170 764 c 0,52,53
 170 827 170 827 175.5 868.5 c 128,-1,54
 181 910 181 910 222 993 c 1,55,56
 314 1128 314 1128 429 1183 c 1,57,-1
 522 1089 l 1,0,1
1094 1043 m 1,58,59
 883 1043 883 1043 885 796 c 1,60,61
 885 596 885 596 1039 458 c 1,62,63
 1297 499 1297 499 1314 770 c 1,64,65
 1304 1034 1304 1034 1094 1043 c 1,58,59
EndSplineSet
EndChar

StartChar: ml_va
Encoding: 3381 3381 173
Width: 1971
Flags: W
LayerCount: 2
Fore
SplineSet
1003 131 m 0,0,1
 1066 180 1066 180 1111 262 c 0,2,3
 1180 388 1180 388 1180 573 c 0,4,5
 1179 772 1179 772 1074 906 c 128,-1,6
 969 1040 969 1040 764 1041 c 0,7,8
 568 1041 568 1041 457 891 c 1,9,10
 358 761 358 761 358 585 c 0,11,12
 358 584 358 584 359 583 c 2,13,-1
 360 582 l 1,14,15
 360 397 360 397 429 267 c 128,-1,16
 498 137 498 137 623 91 c 1,17,-1
 663 77 l 1,18,-1
 614 -47 l 1,19,-1
 579 -30 l 1,20,21
 382 38 382 38 276 194.5 c 128,-1,22
 170 351 170 351 170 553 c 2,23,-1
 170 561 l 1,24,25
 176 842 176 842 351.5 997 c 128,-1,26
 527 1152 527 1152 776 1152 c 0,27,28
 1020 1152 1020 1152 1195 992.5 c 128,-1,29
 1370 833 1370 833 1370 590 c 1,30,31
 1364 338 1364 338 1247 182 c 1,32,33
 1211 138 1211 138 1196 122 c 1,34,-1
 1763 122 l 1,35,-1
 1763 1149 l 1,36,-1
 1946 1149 l 1,37,-1
 1946 5 l 1,38,-1
 1024 5 l 1,39,-1
 968 107 l 1,40,41
 986 119 986 119 1003 131 c 0,0,1
EndSplineSet
EndChar

StartChar: ml_sha
Encoding: 3382 3382 174
Width: 2034
Flags: W
LayerCount: 2
Fore
SplineSet
1602 103 m 0,0,1
 1705 103 1705 103 1765 187 c 1,2,3
 1823 271 1823 271 1823 379 c 0,4,5
 1823 489 1823 489 1765 563 c 1,6,7
 1707 640 1707 640 1601 640 c 0,8,9
 1498 640 1498 640 1442 564 c 1,10,11
 1385 491 1385 491 1385 373 c 0,12,13
 1385 257 1385 257 1442 180 c 1,14,15
 1497 103 1497 103 1602 103 c 0,0,1
636 122 m 1,16,17
 766 124 766 124 817 241 c 1,18,19
 860 347 860 347 860 568 c 0,20,21
 860 684 860 684 898 788 c 128,-1,22
 936 892 936 892 1002 977 c 1,23,24
 1086 1064 1086 1064 1193 1111 c 128,-1,25
 1300 1158 1300 1158 1427 1155 c 1,26,27
 1558 1153 1558 1153 1663 1111 c 128,-1,28
 1768 1069 1768 1069 1851 987 c 0,29,30
 2017 825 2017 825 2017 552 c 2,31,-1
 2017 523 l 2,32,33
 2017 418 2017 418 1994 331 c 128,-1,34
 1971 244 1971 244 1924 172 c 1,35,36
 1810 -8 1810 -8 1590 -8 c 0,37,38
 1415 -8 1415 -8 1317 103 c 0,39,40
 1268 160 1268 160 1243.5 227.5 c 128,-1,41
 1219 295 1219 295 1219 376 c 0,42,43
 1219 540 1219 540 1324 646 c 0,44,45
 1428 750 1428 750 1580 750 c 0,46,47
 1687 750 1687 750 1755 710 c 0,48,49
 1826 669 1826 669 1859 627 c 1,50,51
 1846 795 1846 795 1732 914 c 0,52,53
 1620 1031 1620 1031 1422 1042 c 1,54,55
 1225 1039 1225 1039 1132 901 c 0,56,57
 1087 833 1087 833 1064.5 744.5 c 128,-1,58
 1042 656 1042 656 1042 547 c 0,59,60
 1042 443 1042 443 1019 350.5 c 128,-1,61
 996 258 996 258 955 185 c 1,62,63
 901 98 901 98 820 52 c 0,64,65
 747 10 747 10 638 5 c 1,66,67
 428 5 428 5 299 172 c 1,68,69
 176 320 176 320 170 538 c 1,70,-1
 171 538 l 1,71,-1
 171 539 l 1,72,73
 170 965 170 965 524 1150 c 1,74,-1
 560 1167 l 1,75,-1
 628 1044 l 1,76,-1
 588 1029 l 1,77,78
 362 919 362 919 347 553 c 1,79,80
 338 399 338 399 424 251 c 1,81,82
 495 124 495 124 636 122 c 1,16,17
EndSplineSet
EndChar

StartChar: ml_ssa
Encoding: 3383 3383 175
Width: 2420
Flags: W
LayerCount: 2
Fore
SplineSet
2211 123 m 1,0,-1
 2211 757 l 1,1,2
 2151 686 2151 686 2086 629.5 c 128,-1,3
 2021 573 2021 573 1954 532.5 c 128,-1,4
 1887 492 1887 492 1820.5 467 c 128,-1,5
 1754 442 1754 442 1688 430 c 1,6,-1
 1677 123 l 1,7,-1
 2211 123 l 1,0,-1
1519 878 m 1,8,9
 1519 1037 1519 1037 1412 1037 c 0,10,11
 1241 1037 1241 1037 1241 847 c 0,12,13
 1241 736 1241 736 1311 642 c 1,14,15
 1384 557 1384 557 1507 541 c 1,16,-1
 1519 878 l 1,8,9
859 122 m 1,17,-1
 1493 123 l 1,18,-1
 1506 425 l 1,19,20
 1333 441 1333 441 1197 540 c 1,21,-1
 1197 539 l 1,22,23
 1057 659 1057 659 1057 847 c 0,24,25
 1057 988 1057 988 1157 1072 c 1,26,27
 1258 1154 1258 1154 1412 1154 c 0,28,29
 1471 1154 1471 1154 1520.5 1135 c 128,-1,30
 1570 1116 1570 1116 1614 1079 c 0,31,32
 1656 1043 1656 1043 1677.5 992 c 128,-1,33
 1699 941 1699 941 1700 882 c 1,34,-1
 1688 546 l 1,35,36
 1800 563 1800 563 1959 683 c 1,37,38
 1990 705 1990 705 2029.5 744 c 128,-1,39
 2069 783 2069 783 2120 839 c 1,40,41
 2166 891 2166 891 2189.5 944 c 128,-1,42
 2213 997 2213 997 2211 1044 c 1,43,-1
 2211 1156 l 1,44,-1
 2395 1156 l 1,45,-1
 2395 6 l 1,46,-1
 641 6 l 1,47,-1
 613 95 l 1,48,-1
 635 108 l 1,49,50
 782 184 782 184 779 376 c 1,51,52
 779 492 779 492 724.5 561.5 c 128,-1,53
 670 631 670 631 568 636 c 1,54,55
 461 636 461 636 405 565.5 c 128,-1,56
 349 495 349 495 349 383 c 0,57,58
 349 173 349 173 489 108 c 1,59,-1
 521 97 l 1,60,-1
 478 -3 l 1,61,-1
 430 13 l 1,62,63
 307 56 307 56 238.5 140.5 c 128,-1,64
 170 225 170 225 170 389 c 0,65,66
 170 551 170 551 283.5 649 c 128,-1,67
 397 747 397 747 569 747 c 256,68,69
 741 747 741 747 851 649 c 128,-1,70
 961 551 961 551 961 390 c 0,71,72
 961 231 961 231 859 122 c 1,17,-1
EndSplineSet
EndChar

StartChar: ml_sa
Encoding: 3384 3384 176
Width: 2583
Flags: W
LayerCount: 2
Fore
SplineSet
2393 561 m 1,0,1
 2388 891 2388 891 2152 1024 c 1,2,-1
 2112 1039 l 1,3,-1
 2180 1162 l 1,4,-1
 2216 1145 l 1,5,6
 2571 947 2571 947 2575 561 c 1,7,8
 2575 340 2575 340 2421 167 c 0,9,10
 2264 -8 2264 -8 2043 -8 c 0,11,12
 1859 -8 1859 -8 1733 99 c 1,13,14
 1608 209 1608 209 1608 431 c 1,15,-1
 1637 728 l 1,16,17
 1637 804 1637 804 1608 874 c 1,18,19
 1546 1017 1546 1017 1383 1037 c 1,20,21
 1298 1037 1298 1037 1216 965 c 1,22,-1
 1216 966 l 1,23,24
 1107 875 1107 875 1107 725 c 2,25,-1
 1107 5 l 1,26,-1
 925 5 l 1,27,-1
 925 725 l 2,28,29
 925 1039 925 1039 682 1039 c 1,30,31
 554 1045 554 1045 447 908 c 1,32,33
 405 840 405 840 380.5 746.5 c 128,-1,34
 356 653 356 653 357 568 c 1,35,36
 380 224 380 224 598 119 c 1,37,-1
 638 103 l 1,38,-1
 570 -20 l 1,39,-1
 534 -3 l 1,40,41
 197 174 197 174 179 568 c 1,42,43
 178 820 178 820 327 984 c 1,44,45
 476 1156 476 1156 682 1156 c 0,46,47
 923 1156 923 1156 1022 978 c 1,48,-1
 1026 978 l 1,49,50
 1166 1154 1166 1154 1383 1154 c 0,51,52
 1555 1154 1555 1154 1687 1028 c 0,53,54
 1818 902 1818 902 1818 731 c 1,55,-1
 1789 437 l 1,56,57
 1789 109 1789 109 2043 109 c 0,58,59
 2195 109 2195 109 2298 256 c 0,60,61
 2346 324 2346 324 2369 400 c 128,-1,62
 2392 476 2392 476 2392 561 c 1,63,-1
 2393 561 l 1,0,1
EndSplineSet
EndChar

StartChar: ml_ha
Encoding: 3385 3385 177
Width: 2508
Flags: W
LayerCount: 2
Fore
SplineSet
1473 121 m 1,0,1
 1438 157 1438 157 1408 197 c 0,2,3
 1292 351 1292 351 1292 553 c 2,4,-1
 1292 561 l 1,5,6
 1297 842 1297 842 1472.5 997 c 128,-1,7
 1648 1152 1648 1152 1897 1152 c 0,8,9
 2142 1152 2142 1152 2316.5 992.5 c 128,-1,10
 2491 833 2491 833 2491 590 c 1,11,12
 2485 358 2485 358 2365.5 196.5 c 128,-1,13
 2246 35 2246 35 2046 -27 c 1,14,-1
 2003 97 l 1,15,-1
 2042 110 l 1,16,17
 2163 155 2163 155 2232.5 281.5 c 128,-1,18
 2302 408 2302 408 2302 573 c 1,19,-1
 2301 579 l 1,20,21
 2301 772 2301 772 2195.5 906 c 128,-1,22
 2090 1040 2090 1040 1885 1041 c 0,23,24
 1689 1041 1689 1041 1578 891 c 1,25,26
 1480 761 1480 761 1480 585 c 0,27,28
 1480 584 1480 584 1481 583 c 2,29,-1
 1482 582 l 1,30,31
 1482 397 1482 397 1551 266 c 0,32,33
 1601 172 1601 172 1683 121 c 1,34,-1
 1631 3 l 1,35,-1
 641 4 l 1,36,-1
 613 91 l 1,37,-1
 635 104 l 1,38,39
 782 180 782 180 779 373 c 1,40,41
 779 489 779 489 724.5 558 c 128,-1,42
 670 627 670 627 568 632 c 1,43,44
 461 632 461 632 405 562 c 128,-1,45
 349 492 349 492 349 379 c 0,46,47
 349 169 349 169 489 104 c 1,48,-1
 521 93 l 1,49,-1
 476 -12 l 1,50,-1
 428 4 l 1,51,52
 307 52 307 52 238.5 136.5 c 128,-1,53
 170 221 170 221 170 385 c 0,54,55
 170 547 170 547 283.5 645.5 c 128,-1,56
 397 744 397 744 569 744 c 256,57,58
 741 744 741 744 851 645.5 c 128,-1,59
 961 547 961 547 961 386 c 0,60,61
 961 229 961 229 860 121 c 1,62,-1
 1473 121 l 1,0,1
EndSplineSet
EndChar

StartChar: ml_ttta
Encoding: 3386 3386 178
Width: 1449
Flags: W
LayerCount: 2
Fore
SplineSet
790 4 m 1,0,-1
 175 3 l 1,1,-1
 637 1177 l 1,2,-1
 796 1129 l 1,3,-1
 412 134 l 1,4,-1
 1432 134 l 1,5,-1
 1431 4 l 1,6,-1
 939 4 l 1,7,-1
 939 -595 l 1,8,-1
 790 -595 l 1,9,-1
 790 4 l 1,0,-1
EndSplineSet
EndChar

StartChar: ml_avagraha
Encoding: 3389 3389 181
Width: 733
Flags: W
LayerCount: 2
Fore
SplineSet
615 1237 m 1,0,-1
 456 -61 l 2,1,2
 441 -180 441 -180 386 -237 c 0,3,4
 335 -290 335 -290 263 -290 c 2,5,-1
 252 -290 l 1,6,7
 166 -280 166 -280 119 -238 c 1,8,-1
 157 -112 l 1,9,10
 178 -133 178 -133 215 -143 c 0,11,12
 229 -146 229 -146 237 -146 c 0,13,14
 293 -146 293 -146 306 -43 c 2,15,-1
 460 1212 l 1,16,-1
 460 1212 l 1,17,18
 478 1352 478 1352 533 1408 c 0,19,20
 585 1461 585 1461 657 1461 c 2,21,-1
 669 1461 l 1,22,23
 740 1448 740 1448 803 1415 c 1,24,-1
 764 1285 l 1,25,26
 740 1306 740 1306 705 1315 c 1,27,-1
 699 1315 l 2,28,29
 637 1315 637 1315 615 1237 c 1,0,-1
EndSplineSet
EndChar

StartChar: ml_aakaar
Encoding: 3390 3390 182
Width: 1134
Flags: W
LayerCount: 2
Fore
SplineSet
347 292 m 0,1,2
 371 244 371 244 406 212 c 1,3,4
 449 170 449 170 504.5 147 c 128,-1,5
 560 124 560 124 626 124 c 0,6,7
 916 124 916 124 916 581 c 256,8,9
 916 1038 916 1038 630 1038 c 0,10,11
 477 1038 477 1038 395 924 c 1,12,13
 356 866 356 866 333 795 c 0,14,15
 327 778 327 778 322 761 c 1,16,-1
 176 824 l 1,17,18
 187 856 187 856 200 888 c 0,19,20
 238 977 238 977 304 1034 c 1,21,22
 442 1156 442 1156 630 1156 c 0,23,24
 869 1156 869 1156 1003 969 c 1,25,26
 1118 815 1118 815 1118 583 c 0,27,28
 1118 353 1118 353 1011 202 c 1,29,30
 877 7 877 7 626 7 c 0,31,32
 422 7 422 7 284 129 c 1,33,34
 203 199 203 199 170 286 c 1,35,-1
 322 358 l 1,36,0
 331 323 331 323 347 292 c 0,1,2
EndSplineSet
EndChar

StartChar: ml_ikaar
Encoding: 3391 3391 183
Width: 430
Flags: W
LayerCount: 2
Fore
SplineSet
220 1354 m 1,0,1
 211 1529 211 1529 50 1529 c 0,2,3
 -35 1529 -35 1529 -68 1477 c 1,4,-1
 -67 1477 l 1,5,6
 -84 1454 -84 1454 -93 1419.5 c 128,-1,7
 -102 1385 -102 1385 -103 1352 c 1,8,9
 -105 1341 -105 1341 -103.5 1321.5 c 128,-1,10
 -102 1302 -102 1302 -97 1276 c 1,11,12
 -141 1276 -141 1276 -181.5 1276.5 c 128,-1,13
 -222 1277 -222 1277 -266 1277 c 1,14,15
 -266 1375 -266 1375 -242 1449 c 128,-1,16
 -218 1523 -218 1523 -174 1572 c 1,17,18
 -129 1619 -129 1619 -71.5 1645 c 128,-1,19
 -14 1671 -14 1671 50 1671 c 1,20,21
 118 1674 118 1674 190 1653 c 1,22,23
 263 1630 263 1630 310 1570 c 0,24,25
 392 1465 392 1465 392 1296 c 2,26,-1
 392 1284 l 1,27,-1
 393 8 l 1,28,-1
 220 9 l 1,29,-1
 220 1354 l 1,0,1
EndSplineSet
EndChar

StartChar: ml_iikaar
Encoding: 3392 3392 184
Width: 430
Flags: W
LayerCount: 2
Fore
SplineSet
56 1432 m 0,0,1
 55 1493 55 1493 36 1522 c 1,2,3
 7 1530 7 1530 -20 1530 c 0,4,5
 -67 1530 -67 1530 -101 1504 c 1,6,7
 -144 1467 -144 1467 -144 1417 c 0,8,9
 -143 1366 -143 1366 -124 1341 c 1,10,11
 -104 1317 -104 1317 -55 1316 c 0,12,13
 -27 1316 -27 1316 -10 1322 c 1,14,15
 9 1331 9 1331 25 1350 c 0,16,17
 56 1384 56 1384 56 1432 c 0,0,1
221 6 m 1,18,-1
 221 1341 l 2,19,20
 221 1443 221 1443 180 1465 c 1,21,22
 186 1330 186 1330 119 1246 c 1,23,24
 83 1209 83 1209 41 1194 c 128,-1,25
 -1 1179 -1 1179 -53 1176 c 1,26,27
 -147 1176 -147 1176 -213 1240 c 1,28,29
 -276 1305 -276 1305 -276 1426 c 256,30,31
 -276 1547 -276 1547 -179 1609 c 1,32,33
 -82 1675 -82 1675 45 1675 c 0,34,35
 348 1675 348 1675 389 1371 c 1,36,37
 395 1334 395 1334 395 1081 c 2,38,-1
 395 8 l 1,39,-1
 221 6 l 1,18,-1
EndSplineSet
EndChar

StartChar: ml_ukaar
Encoding: 3393 3393 185
Width: 756
Flags: W
LayerCount: 2
Fore
SplineSet
633 -162 m 0,0,1
 633 -118 633 -118 619.5 -75.5 c 128,-1,2
 606 -33 606 -33 582.5 -5 c 128,-1,3
 559 23 559 23 521.5 39.5 c 128,-1,4
 484 56 484 56 446 56 c 0,5,6
 407 56 407 56 370 39 c 128,-1,7
 333 22 333 22 310.5 -6 c 128,-1,8
 288 -34 288 -34 274 -77 c 128,-1,9
 260 -120 260 -120 260 -162 c 0,10,11
 260 -202 260 -202 272 -236.5 c 128,-1,12
 284 -271 284 -271 310 -303 c 0,13,14
 364 -368 364 -368 448 -368 c 0,15,16
 485 -368 485 -368 522 -351.5 c 128,-1,17
 559 -335 559 -335 582.5 -307 c 128,-1,18
 606 -279 606 -279 619.5 -242 c 128,-1,19
 633 -205 633 -205 633 -162 c 0,0,1
548 175 m 1,20,-1
 557 175 l 1,21,22
 781 89 781 89 781 -166 c 0,23,24
 781 -338 781 -338 689 -421 c 0,25,26
 641 -463 641 -463 578 -482 c 128,-1,27
 515 -501 515 -501 443 -501 c 0,28,29
 293 -501 293 -501 200 -415 c 0,30,31
 111 -332 111 -332 111 -166 c 0,32,33
 111 -3 111 -3 192 86 c 0,34,35
 234 131 234 131 286 154 c 0,36,37
 333 175 333 175 402 180 c 1,38,39
 406 202 406 202 431.5 290.5 c 128,-1,40
 457 379 457 379 482 476 c 1,41,42
 516 598 516 598 539 718 c 0,43,44
 550 778 550 778 552 820 c 1,45,46
 564 901 564 901 529.5 961 c 128,-1,47
 495 1021 495 1021 410 1029 c 1,48,49
 313 1046 313 1046 249 931 c 1,50,-1
 125 1014 l 1,51,52
 250 1178 250 1178 418 1162 c 1,53,54
 512 1157 512 1157 565.5 1131.5 c 128,-1,55
 619 1106 619 1106 652.5 1063 c 128,-1,56
 686 1020 686 1020 700 961.5 c 128,-1,57
 714 903 714 903 708 833 c 0,58,59
 694 684 694 684 654 543 c 0,60,61
 617 415 617 415 548 175 c 1,20,-1
EndSplineSet
EndChar

StartChar: ml_uukaar
Encoding: 3394 3394 186
Width: 787
Flags: W
LayerCount: 2
Fore
SplineSet
475 -49 m 0,0,1
 475 67 475 67 369 62 c 0,2,3
 263 58 263 58 263 -76 c 0,4,5
 263 -192 263 -192 374 -191 c 0,6,7
 421 -191 421 -191 448 -153.5 c 128,-1,8
 475 -116 475 -116 475 -49 c 0,0,1
655 544 m 0,10,11
 618 416 618 416 549 177 c 1,12,13
 647 156 647 156 717 80 c 0,14,15
 794 -5 794 -5 794 -158 c 1,16,17
 789 -338 789 -338 662 -446 c 0,18,19
 613 -488 613 -488 549.5 -508.5 c 128,-1,20
 486 -529 486 -529 409 -531 c 1,21,22
 331 -532 331 -532 269 -523.5 c 128,-1,23
 207 -515 207 -515 161 -496 c 1,24,25
 117 -480 117 -480 73 -455 c 128,-1,26
 29 -430 29 -430 -21 -398 c 1,27,28
 -1 -369 -1 -369 19 -339 c 128,-1,29
 39 -309 39 -309 60 -279 c 1,30,31
 121 -335 121 -335 199.5 -368.5 c 128,-1,32
 278 -402 278 -402 375 -410 c 1,33,34
 507 -405 507 -405 577 -343 c 128,-1,35
 647 -281 647 -281 655 -158 c 1,36,37
 653 -95 653 -95 635.5 -45.5 c 128,-1,38
 618 4 618 4 583 40 c 1,39,-1
 579 39 l 1,40,41
 612 -33 612 -33 605 -93 c 1,42,43
 605 -125 605 -125 593.5 -158 c 128,-1,44
 582 -191 582 -191 562 -217 c 1,45,46
 524 -261 524 -261 475.5 -283.5 c 128,-1,47
 427 -306 427 -306 374 -306 c 0,48,49
 266 -306 266 -306 186 -250 c 1,50,51
 148 -221 148 -221 128.5 -173.5 c 128,-1,52
 109 -126 109 -126 107 -66 c 1,53,54
 114 43 114 43 178 116 c 128,-1,55
 242 189 242 189 379 194 c 1,56,-1
 401 192 l 1,57,58
 411 219 411 219 433.5 300 c 128,-1,59
 456 381 456 381 484 490 c 1,60,61
 516 599 516 599 533 692 c 128,-1,62
 550 785 550 785 552 819 c 1,63,64
 564 899 564 899 530 959.5 c 128,-1,65
 496 1020 496 1020 411 1027 c 1,66,67
 314 1044 314 1044 250 929 c 1,68,-1
 125 1013 l 1,69,70
 251 1176 251 1176 419 1160 c 1,71,72
 512 1155 512 1155 566 1129.5 c 128,-1,73
 620 1104 620 1104 653.5 1061.5 c 128,-1,74
 687 1019 687 1019 700.5 960 c 128,-1,75
 714 901 714 901 708 832 c 0,76,77
 702 758 702 758 689 687 c 0,78,9
 675 614 675 614 655 544 c 0,10,11
EndSplineSet
EndChar

